<svg width="130" height="49" viewBox="0 0 130 49" fill="none" xmlns="http://www.w3.org/2000/svg">
<g clip-path="url(#clip0_1_146)">
<path d="M45.6208 35.3457V20.7907H45.8801L56.4748 35.3457H59.8088V13.9714H56.1043V28.4898H55.845L45.2504 13.9714H41.9164V35.3457H45.6208ZM70.2923 35.6757C75.1821 35.6757 78.1827 32.5227 78.1827 27.2433C78.1827 22.0005 75.1821 18.8109 70.2923 18.8109C65.4395 18.8109 62.4019 22.0005 62.4019 27.2433C62.4389 32.5227 65.4025 35.6757 70.2923 35.6757ZM70.2923 32.596C67.6992 32.596 66.2174 30.6529 66.2174 27.2433C66.2174 23.8703 67.6992 21.8906 70.2923 21.8906C72.8854 21.8906 74.3672 23.8703 74.3672 27.2433C74.3672 30.6529 72.8854 32.596 70.2923 32.596ZM81.5538 15.1813V19.2509H78.9607V22.1839H81.5538V31.0195C81.5538 34.1725 83.0355 35.4191 86.814 35.4191C87.5179 35.4191 88.2217 35.3457 88.7774 35.2357V32.3761C88.3329 32.4127 88.0365 32.4494 87.5179 32.4494C85.962 32.4494 85.2582 31.7528 85.2582 30.1396V22.1839H88.7774V19.2509H85.2582V15.1813H81.5538ZM91.0001 35.3457H94.7045V19.1409H91.0001V35.3457ZM92.8523 16.4645C94.0747 16.4645 95.0749 15.4746 95.0749 14.2647C95.0749 13.0182 94.0747 12.0283 92.8523 12.0283C91.6298 12.0283 90.6296 13.0182 90.6296 14.2647C90.6296 15.4746 91.6298 16.4645 92.8523 16.4645ZM104.855 35.6757C109.744 35.6757 112.745 32.5227 112.745 27.2433C112.745 22.0005 109.744 18.8109 104.855 18.8109C100.002 18.8109 96.9642 22.0005 96.9642 27.2433C96.9642 32.5227 99.9277 35.6757 104.855 35.6757ZM104.855 32.596C102.262 32.596 100.78 30.6529 100.78 27.2433C100.78 23.8703 102.262 21.8906 104.855 21.8906C107.411 21.8906 108.929 23.8703 108.929 27.2433C108.892 30.6529 107.411 32.596 104.855 32.596ZM114.931 35.3457H118.635V25.9234C118.635 23.5404 120.043 22.0372 122.228 22.0372C124.488 22.0372 125.525 23.2837 125.525 25.7401V35.3457H129.23V24.8602C129.23 20.974 127.229 18.8109 123.599 18.8109C121.154 18.8109 119.524 19.9108 118.746 21.7439H118.487V19.1409H114.894C114.931 19.1409 114.931 35.3457 114.931 35.3457ZM6.39724 12.6034C7.47541 13.4732 7.86539 13.4045 9.88411 13.2672L28.9014 12.1227C29.3143 12.1227 28.9702 11.7107 28.8325 11.6649L25.6668 9.39886C25.0704 8.94108 24.2445 8.39173 22.7076 8.52907L4.3097 9.87954C3.64444 9.94821 3.5068 10.2916 3.78208 10.5433L6.39724 12.6034ZM7.54423 17.021V36.9806C7.54423 38.0565 8.07186 38.4456 9.28767 38.3769L30.186 37.1638C31.4018 37.0951 31.5395 36.3626 31.5395 35.4928V15.6706C31.5395 14.8008 31.1953 14.3201 30.4613 14.3888L8.62241 15.6706C7.81951 15.7392 7.54423 16.1512 7.54423 17.021ZM28.1673 18.0969C28.3049 18.692 28.1673 19.31 27.5708 19.3787L26.5615 19.5847V34.3255C25.6898 34.7833 24.8869 35.0579 24.1987 35.0579C23.1205 35.0579 22.8452 34.7146 22.0423 33.7075L15.4585 23.3843V33.3641L17.5461 33.8219C17.5461 33.8219 17.5461 35.035 15.8714 35.035L11.2376 35.3097C11.0999 35.035 11.2376 34.3713 11.6964 34.2339L12.9122 33.8906V20.7063L11.2376 20.5689C11.0999 19.9738 11.444 19.104 12.3846 19.0353L17.3625 18.692L24.2216 29.1296V19.9051L22.4782 19.6991C22.3405 18.9667 22.8911 18.4173 23.5563 18.3486L28.1673 18.0969ZM2.77272 8.04839L21.9276 6.65213C24.2675 6.44612 24.8869 6.58346 26.355 7.65927L32.4571 11.9396C33.4664 12.6721 33.8105 12.8781 33.8105 13.6792V37.1867C33.8105 38.6516 33.2829 39.5214 31.4018 39.6587L9.17297 41.0092C7.7507 41.0779 7.08544 40.8719 6.35136 39.9334L1.83218 34.0966C1.02928 33.0208 0.685181 32.2196 0.685181 31.2812V10.3831C0.685181 9.16997 1.23574 8.18572 2.77272 8.04839Z" fill="#40513B"/>
<path fill-rule="evenodd" clip-rule="evenodd" d="M45.6208 35.3457V20.7907H45.8801L56.4748 35.3457H59.8088V13.9714H56.1043V28.4898H55.845L45.2504 13.9714H41.9164V35.3457H45.6208ZM70.2923 35.6757C75.1821 35.6757 78.1827 32.5227 78.1827 27.2433C78.1827 22.0005 75.1821 18.8109 70.2923 18.8109C65.4395 18.8109 62.4019 22.0005 62.4019 27.2433C62.4389 32.5227 65.4025 35.6757 70.2923 35.6757ZM70.2923 32.596C67.6992 32.596 66.2174 30.6529 66.2174 27.2433C66.2174 23.8703 67.6992 21.8906 70.2923 21.8906C72.8854 21.8906 74.3672 23.8703 74.3672 27.2433C74.3672 30.6529 72.8854 32.596 70.2923 32.596ZM81.5538 15.1813V19.2509H78.9607V22.1839H81.5538V31.0195C81.5538 34.1725 83.0355 35.4191 86.814 35.4191C87.5179 35.4191 88.2217 35.3457 88.7774 35.2357V32.3761C88.3329 32.4127 88.0365 32.4494 87.5179 32.4494C85.962 32.4494 85.2582 31.7528 85.2582 30.1396V22.1839H88.7774V19.2509H85.2582V15.1813H81.5538ZM91.0001 35.3457H94.7045V19.1409H91.0001V35.3457ZM92.8523 16.4645C94.0747 16.4645 95.0749 15.4746 95.0749 14.2647C95.0749 13.0182 94.0747 12.0283 92.8523 12.0283C91.6298 12.0283 90.6296 13.0182 90.6296 14.2647C90.6296 15.4746 91.6298 16.4645 92.8523 16.4645ZM104.855 35.6757C109.744 35.6757 112.745 32.5227 112.745 27.2433C112.745 22.0005 109.744 18.8109 104.855 18.8109C100.002 18.8109 96.9642 22.0005 96.9642 27.2433C96.9642 32.5227 99.9277 35.6757 104.855 35.6757ZM104.855 32.596C102.262 32.596 100.78 30.6529 100.78 27.2433C100.78 23.8703 102.262 21.8906 104.855 21.8906C107.411 21.8906 108.929 23.8703 108.929 27.2433C108.892 30.6529 107.411 32.596 104.855 32.596ZM114.931 35.3457H118.635V25.9234C118.635 23.5404 120.043 22.0372 122.228 22.0372C124.488 22.0372 125.525 23.2837 125.525 25.7401V35.3457H129.23V24.8602C129.23 20.974 127.229 18.8109 123.599 18.8109C121.154 18.8109 119.524 19.9108 118.746 21.7439H118.487V19.1409H114.894C114.931 19.1409 114.931 35.3457 114.931 35.3457ZM6.39724 12.6034C7.47541 13.4732 7.86539 13.4045 9.88411 13.2672L28.9014 12.1227C29.3143 12.1227 28.9702 11.7107 28.8325 11.6649L25.6668 9.39886C25.0704 8.94108 24.2445 8.39173 22.7076 8.52907L4.3097 9.87954C3.64444 9.94821 3.5068 10.2916 3.78208 10.5433L6.39724 12.6034ZM7.54423 17.021V36.9806C7.54423 38.0565 8.07186 38.4456 9.28767 38.3769L30.186 37.1638C31.4018 37.0951 31.5395 36.3626 31.5395 35.4928V15.6706C31.5395 14.8008 31.1953 14.3201 30.4613 14.3888L8.62241 15.6706C7.81951 15.7392 7.54423 16.1512 7.54423 17.021ZM28.1673 18.0969C28.3049 18.692 28.1673 19.31 27.5708 19.3787L26.5615 19.5847V34.3255C25.6898 34.7833 24.8869 35.0579 24.1987 35.0579C23.1205 35.0579 22.8452 34.7146 22.0423 33.7075L15.4585 23.3843V33.3641L17.5461 33.8219C17.5461 33.8219 17.5461 35.035 15.8714 35.035L11.2376 35.3097C11.0999 35.035 11.2376 34.3713 11.6964 34.2339L12.9122 33.8906V20.7063L11.2376 20.5689C11.0999 19.9738 11.444 19.104 12.3846 19.0353L17.3625 18.692L24.2216 29.1296V19.9051L22.4782 19.6991C22.3405 18.9667 22.8911 18.4173 23.5563 18.3486L28.1673 18.0969ZM2.77272 8.04839L21.9276 6.65213C24.2675 6.44612 24.8869 6.58346 26.355 7.65927L32.4571 11.9396C33.4664 12.6721 33.8105 12.8781 33.8105 13.6792V37.1867C33.8105 38.6516 33.2829 39.5214 31.4018 39.6587L9.17297 41.0092C7.7507 41.0779 7.08544 40.8719 6.35136 39.9334L1.83218 34.0966C1.02928 33.0208 0.685181 32.2196 0.685181 31.2812V10.3831C0.685181 9.16997 1.23574 8.18572 2.77272 8.04839Z" fill="#40513B"/>
</g>
<defs>
<clipPath id="clip0_1_146">
<rect width="129" height="48" fill="white" transform="translate(0.685181 0.570801)"/>
</clipPath>
</defs>
</svg>
