<svg width="122" height="49" viewBox="0 0 122 49" fill="none" xmlns="http://www.w3.org/2000/svg">
<g clip-path="url(#clip0_1_126)">
<path d="M38.6103 32.9973L40.0784 29.5658C41.6858 30.7562 43.7825 31.3863 45.8797 31.3863C47.4175 31.3863 48.3959 30.7913 48.3959 29.8811C48.3608 27.3599 39.1345 29.3207 39.0644 22.9821C39.0293 19.7606 41.8954 17.2745 45.9498 17.2745C48.3608 17.2745 50.7727 17.87 52.4849 19.2358L51.1131 22.7405C49.5377 21.7275 47.5919 21.0212 45.7398 21.0212C44.4817 21.0212 43.6427 21.6162 43.6427 22.3871C43.6777 24.8732 52.9746 23.5074 53.0794 29.5658C53.0794 32.8574 50.283 35.1686 46.2987 35.1686C43.3635 35.1686 40.6723 34.4684 38.6098 32.9973H38.6103ZM97.0683 28.3232C96.6977 28.9817 96.1587 29.5297 95.5064 29.9111C94.8542 30.2925 94.1122 30.4935 93.3567 30.4936C91.0018 30.4936 89.0931 28.5809 89.0931 26.2216C89.0931 23.8622 91.0018 21.9495 93.3567 21.9495C94.1122 21.9496 94.8542 22.1506 95.5064 22.532C96.1587 22.9134 96.6977 23.4614 97.0683 24.1199L101.15 21.8543C99.6211 19.1221 96.7049 17.2745 93.3567 17.2745C88.425 17.2745 84.4271 21.2799 84.4271 26.2216C84.4271 31.1627 88.425 35.1686 93.3567 35.1686C96.7049 35.1686 99.6211 33.321 101.15 30.5888L97.0683 28.3232ZM55.7279 34.8182H60.8305V9.82666H55.7284L55.7279 34.8182ZM103.727 9.82666V34.8182H108.829V27.3308L114.876 34.8182H121.398L113.709 25.9233L120.838 17.6234H114.596L108.829 24.5239V9.82666H103.727ZM76.5507 17.6244V19.6559C75.7122 18.2549 73.6501 17.2745 71.4832 17.2745C67.0097 17.2745 63.48 21.2318 63.48 26.204C63.48 31.1763 67.0097 35.1686 71.4832 35.1686C73.6501 35.1686 75.7122 34.1882 76.5507 32.7872V34.8182H81.6533V17.6244H76.5507ZM76.5507 28.3578C75.8169 29.5833 74.2791 30.4931 72.5669 30.4931C70.2116 30.4931 68.3029 28.5809 68.3029 26.2216C68.3029 23.8622 70.2116 21.9495 72.5669 21.9495C74.2791 21.9495 75.8169 22.8949 76.5507 24.155V28.3578Z" fill="#40513B"/>
<path d="M11.6635 9.27441C10.0099 9.27441 8.66961 10.6177 8.66961 12.2743C8.66921 12.6679 8.74634 13.0576 8.89658 13.4214C9.04682 13.7851 9.26724 14.1157 9.54525 14.3943C9.82325 14.6729 10.1534 14.894 10.5169 15.0449C10.8803 15.1959 11.2699 15.2738 11.6635 15.2742H14.6579V12.2743C14.6585 11.4794 14.3434 10.7169 13.7819 10.1543C13.2204 9.5917 12.4584 9.27521 11.6635 9.27441V9.27441ZM11.6635 17.2741H3.67931C2.02574 17.2741 0.685432 18.6174 0.685432 20.2745C0.685432 21.9311 2.02574 23.2744 3.67931 23.2744H11.664C13.3171 23.2744 14.6579 21.9311 14.6579 20.2745C14.6579 18.6174 13.3171 17.2741 11.6635 17.2741Z" fill="#40513B"/>
<path d="M30.6263 20.2745C30.6263 18.6174 29.2855 17.2741 27.6319 17.2741C25.9784 17.2741 24.6381 18.6174 24.6381 20.2745V23.2744H27.6319C28.4268 23.2736 29.1888 22.9571 29.7503 22.3945C30.3119 21.832 30.627 21.0694 30.6263 20.2745V20.2745ZM22.6421 20.2745V12.2743C22.6428 11.4794 22.3277 10.7169 21.7662 10.1543C21.2046 9.5917 20.4426 9.27521 19.6478 9.27441C17.9942 9.27441 16.6539 10.6177 16.6539 12.2743V20.274C16.6539 21.9316 17.9942 23.2749 19.6478 23.2749C20.4426 23.2741 21.2046 22.9576 21.7662 22.395C22.3277 21.8325 22.6428 21.0699 22.6421 20.275" fill="#40513B"/>
<path d="M19.6478 39.2744C20.4427 39.2736 21.2047 38.9571 21.7662 38.3945C22.3278 37.832 22.6429 37.0694 22.6422 36.2745C22.6429 35.4796 22.3278 34.7171 21.7662 34.1545C21.2047 33.5919 20.4427 33.2754 19.6478 33.2746H16.6539V36.2745C16.6539 37.9311 17.9942 39.2744 19.6478 39.2744ZM19.6478 31.2747H27.6325C29.2856 31.2747 30.6264 29.9314 30.6264 28.2743C30.627 27.4794 30.3119 26.7169 29.7504 26.1543C29.1889 25.5917 28.4269 25.2752 27.632 25.2744H19.6478C17.9942 25.2744 16.6539 26.6177 16.6539 28.2743C16.6535 28.6679 16.7307 29.0576 16.8809 29.4214C17.0312 29.7851 17.2516 30.1157 17.5296 30.3943C17.8076 30.6729 18.1377 30.894 18.5012 31.0449C18.8646 31.1959 19.2543 31.2738 19.6478 31.2742" fill="#40513B"/>
<path d="M0.68519 28.2743C0.684795 28.6679 0.76192 29.0576 0.912163 29.4214C1.06241 29.7851 1.28282 30.1157 1.56083 30.3943C1.83884 30.6729 2.16899 30.894 2.53244 31.0449C2.89589 31.1959 3.28551 31.2738 3.67907 31.2742C4.47394 31.2734 5.23594 30.9569 5.79748 30.3943C6.35902 29.8318 6.67411 29.0692 6.67344 28.2743V25.2744H3.67907C2.02549 25.2744 0.68519 26.6177 0.68519 28.2743V28.2743ZM8.66936 28.2743V36.274C8.66936 37.9311 10.0097 39.2744 11.6632 39.2744C12.4581 39.2736 13.2201 38.9571 13.7817 38.3945C14.3432 37.832 14.6583 37.0694 14.6576 36.2745V28.2743C14.658 27.8807 14.5809 27.4909 14.4306 27.1271C14.2803 26.7633 14.0599 26.4327 13.7818 26.1541C13.5037 25.8756 13.1735 25.6545 12.81 25.5035C12.4465 25.3526 12.0568 25.2747 11.6632 25.2744C10.0097 25.2744 8.66936 26.6177 8.66936 28.2743Z" fill="#40513B"/>
</g>
<defs>
<clipPath id="clip0_1_126">
<rect width="121" height="48" fill="white" transform="translate(0.685188 0.570801)"/>
</clipPath>
</defs>
</svg>
