<svg width="141" height="49" viewBox="0 0 141 49" fill="none" xmlns="http://www.w3.org/2000/svg">
<g clip-path="url(#clip0_1_124)">
<path d="M21.7578 3.6499C10.1599 3.6499 0.757454 13.0521 0.757454 24.65C0.757454 36.2485 10.1599 45.6499 21.7578 45.6499C33.357 45.6499 42.7585 36.2485 42.7585 24.65C42.7585 13.0528 33.357 3.65091 21.7576 3.65091L21.7578 3.6499ZM31.3885 33.9381C31.0123 34.555 30.2048 34.7506 29.5879 34.3719C24.6573 31.3602 18.4502 30.6781 11.1402 32.3482C10.4357 32.5087 9.73358 32.0674 9.57309 31.3627C9.41184 30.658 9.85144 29.9559 10.5576 29.7954C18.5572 27.9677 25.4191 28.7547 30.9546 32.1376C31.5715 32.5162 31.7671 33.3212 31.3885 33.9381ZM33.9589 28.22C33.4849 28.9904 32.4768 29.2336 31.707 28.7597C26.0621 25.29 17.4574 24.2852 10.7806 26.3119C9.91464 26.5734 9.00007 26.0854 8.73726 25.221C8.47646 24.3551 8.96471 23.4423 9.82913 23.179C17.4558 20.8649 26.9373 21.9858 33.4197 25.9693C34.1896 26.4433 34.4328 27.4511 33.9589 28.22ZM34.1796 22.2657C27.4112 18.2456 16.2444 17.8759 9.78223 19.8372C8.74454 20.1519 7.64716 19.5661 7.33269 18.5284C7.01822 17.4902 7.60352 16.3936 8.64197 16.0781C16.0601 13.8262 28.3918 14.2613 36.1842 18.8873C37.1196 19.4412 37.4256 20.6467 36.8714 21.5788C36.3197 22.5122 35.1099 22.8199 34.1796 22.2657ZM57.8926 23.0361C54.2664 22.1714 53.6219 21.5645 53.6219 20.2894C53.6219 19.0846 54.7554 18.2739 56.4431 18.2739C58.0781 18.2739 59.6981 18.8895 61.3983 20.1569C61.4485 20.1953 61.5137 20.2106 61.5764 20.2006C61.6416 20.1911 61.6968 20.1562 61.7344 20.1038L63.5048 17.6081C63.5775 17.5053 63.5575 17.3636 63.4597 17.2851C61.436 15.6619 59.159 14.8727 56.4958 14.8727C52.5812 14.8727 49.8453 17.2222 49.8453 20.5838C49.8453 24.1886 52.205 25.465 56.2826 26.4503C59.7508 27.2495 60.3376 27.9191 60.3376 29.1158C60.3376 30.4424 59.1539 31.2674 57.2481 31.2674C55.1316 31.2674 53.4037 30.5527 51.4728 28.8826C51.4251 28.8399 51.3599 28.8224 51.2998 28.8249C51.2346 28.8299 51.1769 28.86 51.1368 28.9076L49.1506 31.2699C49.0679 31.3702 49.0779 31.5157 49.1732 31.6009C51.4201 33.6071 54.1836 34.6653 57.1678 34.6653C61.3858 34.6653 64.1117 32.3608 64.1117 28.7923C64.1192 25.7813 62.3162 24.1136 57.9001 23.0393L57.8926 23.0361ZM73.6561 19.4601C71.8279 19.4601 70.3283 20.1803 69.0895 21.6561V19.995C69.0895 19.8638 68.9842 19.757 68.8538 19.757H65.6063C65.4759 19.757 65.3706 19.8638 65.3706 19.995V38.452C65.3706 38.5824 65.4759 38.6902 65.6063 38.6902H68.8538C68.9842 38.6902 69.0895 38.5824 69.0895 38.452V32.6266C70.3283 34.0133 71.8279 34.6929 73.6561 34.6929C77.054 34.6929 80.4946 32.0774 80.4946 27.0772C80.4996 22.0761 77.059 19.4598 73.6586 19.4598L73.6561 19.4601ZM76.718 27.0772C76.718 29.6223 75.1507 31.4003 72.9038 31.4003C70.6844 31.4003 69.0093 29.5421 69.0093 27.0772C69.0093 24.6122 70.6844 22.7544 72.9038 22.7544C75.1131 22.7542 76.718 24.572 76.718 27.0772ZM89.3092 19.4601C84.9333 19.4601 81.5052 22.8294 81.5052 27.1317C81.5052 31.3878 84.9107 34.7205 89.2566 34.7205C93.6476 34.7205 97.0857 31.3627 97.0857 27.0772C97.0857 22.8064 93.6702 19.4601 89.3092 19.4601ZM89.3092 31.4254C86.9821 31.4254 85.2267 29.5546 85.2267 27.076C85.2267 24.5861 86.9219 22.7793 89.2566 22.7793C91.5988 22.7793 93.3642 24.6493 93.3642 27.1304C93.3642 29.6198 91.659 31.4254 89.3092 31.4254ZM106.429 19.757H102.856V16.1042C102.856 15.9733 102.751 15.8665 102.62 15.8665H99.3727C99.2423 15.8665 99.1345 15.9733 99.1345 16.1042V19.757H97.5747C97.4443 19.757 97.339 19.8638 97.339 19.995V22.7853C97.339 22.9162 97.4443 23.0233 97.5747 23.0233H99.1345V30.2442C99.1345 33.1607 100.586 34.6403 103.453 34.6403C104.616 34.6403 105.582 34.3995 106.492 33.8829C106.567 33.8428 106.613 33.7626 106.613 33.6773V31.0191C106.613 30.9389 106.57 30.8611 106.5 30.8185C106.429 30.7734 106.342 30.7709 106.269 30.8085C105.645 31.1219 105.04 31.2674 104.363 31.2674C103.322 31.2674 102.856 30.7934 102.856 29.7352V23.0245H106.429C106.56 23.0245 106.665 22.9177 106.665 22.7865V19.9965C106.67 19.8653 106.565 19.7585 106.432 19.7585L106.429 19.757ZM118.878 19.7713V19.3226C118.878 18.0028 119.384 17.4143 120.518 17.4143C121.195 17.4143 121.739 17.5487 122.348 17.7518C122.424 17.7754 122.501 17.7636 122.562 17.7187C122.624 17.6738 122.659 17.6018 122.659 17.5256V14.7897C122.659 14.6851 122.594 14.5926 122.491 14.5617C121.849 14.3704 121.027 14.174 119.793 14.174C116.796 14.174 115.209 15.8627 115.209 19.0558V19.7429H113.649C113.519 19.7429 113.411 19.8498 113.411 19.9807V22.7853C113.411 22.9162 113.519 23.0233 113.649 23.0233H115.209V34.1588C115.209 34.2917 115.317 34.397 115.447 34.397H118.692C118.825 34.397 118.93 34.2917 118.93 34.1588V23.024H121.962L126.607 34.1588C126.08 35.3274 125.561 35.5606 124.854 35.5606C124.282 35.5606 123.678 35.3901 123.063 35.0515C123.005 35.0214 122.935 35.0164 122.875 35.034C122.812 35.0566 122.76 35.1017 122.735 35.1619L121.634 37.5768C121.581 37.6922 121.626 37.8251 121.737 37.8853C122.885 38.5072 123.921 38.773 125.202 38.773C127.6 38.773 128.926 37.6545 130.092 34.6503L135.725 20.0963C135.755 20.023 135.745 19.9403 135.7 19.8753C135.657 19.8109 135.584 19.772 135.506 19.772H132.126C132.023 19.772 131.933 19.8365 131.9 19.9315L128.437 29.8204L124.646 19.925C124.61 19.833 124.523 19.772 124.425 19.772L118.878 19.7713ZM111.661 19.757H108.413C108.283 19.757 108.175 19.8638 108.175 19.995V34.1588C108.175 34.2917 108.283 34.397 108.413 34.397H111.661C111.791 34.397 111.899 34.2917 111.899 34.1588V19.996C111.899 19.8648 111.793 19.758 111.661 19.758V19.757ZM110.056 13.3074C108.769 13.3074 107.726 14.3486 107.726 15.6348C107.726 16.9217 108.769 17.9642 110.056 17.9642C111.342 17.9642 112.383 16.9217 112.383 15.6348C112.383 14.3488 111.34 13.3074 110.056 13.3074ZM138.498 24.3112C137.214 24.3112 136.214 23.2793 136.214 22.0262C136.214 20.7731 137.227 19.7294 138.511 19.7294C139.795 19.7294 140.795 20.7611 140.795 22.0132C140.795 23.2663 139.782 24.3112 138.498 24.3112ZM138.511 19.9566C137.34 19.9566 136.454 20.8869 136.454 22.0262C136.454 23.165 137.335 24.0828 138.498 24.0828C139.669 24.0828 140.554 23.1532 140.554 22.0132C140.554 20.8744 139.674 19.9566 138.511 19.9566ZM139.017 22.2481L139.664 23.1529H139.118L138.536 22.3229H138.037V23.1529H137.58V20.7545H138.649C139.208 20.7545 139.574 21.0397 139.574 21.5196C139.576 21.9129 139.348 22.1531 139.02 22.2481H139.017ZM138.631 21.1661H138.037V21.9246H138.631C138.927 21.9246 139.105 21.7794 139.105 21.545C139.105 21.2982 138.927 21.1661 138.631 21.1661Z" fill="#40513B"/>
</g>
<defs>
<clipPath id="clip0_1_124">
<rect width="140" height="48" fill="white" transform="translate(0.685188 0.570801)"/>
</clipPath>
</defs>
</svg>
