<svg width="136" height="49" viewBox="0 0 136 49" fill="none" xmlns="http://www.w3.org/2000/svg">
<g clip-path="url(#clip0_1_138)">
<path d="M0.685181 2.5708H29.8278V17.1421H15.2565L0.685181 2.5708ZM0.685181 17.1421H15.2565L29.8278 31.7135H0.685181V17.1421ZM0.685181 31.7135H15.2565V46.2848L0.685181 31.7135ZM46.2711 14.0662H58.0511V17.8095H50.7298V23.0115H58.0511V26.6722H50.7298V33.3328H46.2711V14.0662ZM60.4731 20.0662H64.6845V22.8462C64.9045 21.8908 65.3545 21.1575 66.0331 20.6442C66.7291 20.1115 67.5018 19.8462 68.3451 19.8462C68.7858 19.8462 69.1531 19.8835 69.4458 19.9562V23.8648C69.0258 23.8142 68.6031 23.7868 68.1798 23.7822C67.0238 23.7822 66.1531 24.1575 65.5651 24.9102C64.9791 25.6442 64.6845 26.7448 64.6845 28.2135V33.3328H60.4751V20.0662H60.4731ZM76.0938 33.6908C74.8098 33.6908 73.6898 33.3875 72.7358 32.7822C71.7998 32.1768 71.0558 31.3175 70.5891 30.3048C70.0938 29.2415 69.8445 28.0382 69.8445 26.6995C69.8445 25.3782 70.1031 24.1848 70.6165 23.1215C71.0978 22.0942 71.8618 21.2255 72.8184 20.6168C73.7898 20.0115 74.9004 19.7082 76.1491 19.7082C77.0844 19.7082 77.9205 19.9108 78.6538 20.3142C79.3871 20.7188 79.9378 21.2695 80.3051 21.9655V20.0662H84.4884V33.3328H80.3051V31.4608C79.9378 32.1215 79.3691 32.6622 78.5984 33.0848C77.8278 33.4935 76.9664 33.7015 76.0938 33.6908ZM77.3051 30.1948C78.3138 30.1948 79.0938 29.8648 79.6444 29.2042C80.1951 28.5435 80.4705 27.7082 80.4705 26.6995C80.4705 25.7088 80.1951 24.8828 79.6444 24.2222C79.0938 23.5615 78.3138 23.2315 77.3051 23.2315C76.3498 23.2315 75.5804 23.5522 74.9931 24.1948C74.4244 24.8375 74.1398 25.6715 74.1398 26.6995C74.1398 27.7275 74.4244 28.5708 74.9931 29.2315C75.5804 29.8742 76.3511 30.1948 77.3051 30.1948ZM87.4338 20.0662H91.6451V21.9928C91.9398 21.3128 92.4158 20.7622 93.0758 20.3415C93.7558 19.9208 94.5444 19.7082 95.4431 19.7082C97.5351 19.7082 98.9211 20.5242 99.5991 22.1582C99.9724 21.4175 100.556 20.8048 101.278 20.3968C102.05 19.9322 102.937 19.6942 103.838 19.7082C106.976 19.7082 108.544 21.5055 108.544 25.1028V33.3328H104.306V25.8735C104.306 24.9755 104.14 24.3148 103.81 23.8922C103.48 23.4708 102.984 23.2588 102.324 23.2588C101.608 23.2588 101.058 23.5068 100.672 24.0022C100.287 24.4795 100.094 25.3135 100.094 26.5068V33.3328H95.8558V25.8462C95.8558 24.9475 95.6911 24.2955 95.3604 23.8922C95.0498 23.4708 94.5624 23.2588 93.9031 23.2588C93.1684 23.2588 92.6084 23.5068 92.2231 24.0022C91.8378 24.4795 91.6451 25.3135 91.6451 26.5068V33.3328H87.4351V20.0662H87.4338ZM124.364 26.0115C124.364 26.5795 124.327 27.1948 124.252 27.8555H114.456C114.493 28.7182 114.786 29.3775 115.336 29.8375C115.887 30.2955 116.632 30.5255 117.566 30.5255C118.869 30.5255 119.695 30.1302 120.043 29.3415H124.172C123.969 30.6448 123.254 31.6988 122.024 32.5068C120.814 33.2955 119.327 33.6908 117.566 33.6908C115.291 33.6908 113.502 33.0755 112.198 31.8462C110.914 30.6162 110.272 28.9015 110.272 26.6995C110.272 25.2682 110.565 24.0295 111.152 22.9835C111.72 21.9388 112.594 21.0935 113.657 20.5615C114.74 19.9935 115.997 19.7082 117.43 19.7082C118.786 19.7082 119.988 19.9742 121.034 20.5068C122.098 21.0395 122.915 21.7822 123.483 22.7362C124.071 23.6915 124.364 24.7828 124.364 26.0115ZM120.206 25.2408C120.188 24.3602 119.941 23.6895 119.463 23.2315C118.987 22.7735 118.298 22.5435 117.399 22.5435C116.5 22.5435 115.785 22.7908 115.252 23.2868C114.739 23.7642 114.473 24.4148 114.454 25.2408H120.206ZM126.221 20.0662H130.432V22.8462C130.652 21.8908 131.102 21.1575 131.781 20.6442C132.44 20.1255 133.254 19.8442 134.093 19.8462C134.533 19.8462 134.901 19.8835 135.194 19.9562V23.8648C134.774 23.8142 134.351 23.7868 133.928 23.7822C132.772 23.7822 131.901 24.1575 131.313 24.9102C130.725 25.6442 130.432 26.7448 130.432 28.2135V33.3328H126.221V20.0662Z" fill="#40513B"/>
<path d="M0.685181 2.5708H29.8278V17.1421H15.2565L0.685181 2.5708ZM0.685181 17.1421H15.2565L29.8278 31.7135H0.685181V17.1421ZM0.685181 31.7135H15.2565V46.2848L0.685181 31.7135ZM46.2711 14.0662H58.0511V17.8095H50.7298V23.0115H58.0511V26.6722H50.7298V33.3328H46.2711V14.0662ZM60.4731 20.0662H64.6845V22.8462C64.9045 21.8908 65.3545 21.1575 66.0331 20.6442C66.7291 20.1115 67.5018 19.8462 68.3451 19.8462C68.7858 19.8462 69.1531 19.8835 69.4458 19.9562V23.8648C69.0258 23.8142 68.6031 23.7868 68.1798 23.7822C67.0238 23.7822 66.1531 24.1575 65.5651 24.9102C64.9791 25.6442 64.6845 26.7448 64.6845 28.2135V33.3328H60.4751V20.0662H60.4731ZM76.0938 33.6908C74.8098 33.6908 73.6898 33.3875 72.7358 32.7822C71.7998 32.1768 71.0558 31.3175 70.5891 30.3048C70.0938 29.2415 69.8445 28.0382 69.8445 26.6995C69.8445 25.3782 70.1031 24.1848 70.6165 23.1215C71.0978 22.0942 71.8618 21.2255 72.8184 20.6168C73.7898 20.0115 74.9004 19.7082 76.1491 19.7082C77.0844 19.7082 77.9205 19.9108 78.6538 20.3142C79.3871 20.7188 79.9378 21.2695 80.3051 21.9655V20.0662H84.4884V33.3328H80.3051V31.4608C79.9378 32.1215 79.3691 32.6622 78.5984 33.0848C77.8278 33.4935 76.9664 33.7015 76.0938 33.6908ZM77.3051 30.1948C78.3138 30.1948 79.0938 29.8648 79.6444 29.2042C80.1951 28.5435 80.4705 27.7082 80.4705 26.6995C80.4705 25.7088 80.1951 24.8828 79.6444 24.2222C79.0938 23.5615 78.3138 23.2315 77.3051 23.2315C76.3498 23.2315 75.5804 23.5522 74.9931 24.1948C74.4244 24.8375 74.1398 25.6715 74.1398 26.6995C74.1398 27.7275 74.4244 28.5708 74.9931 29.2315C75.5804 29.8742 76.3511 30.1948 77.3051 30.1948ZM87.4338 20.0662H91.6451V21.9928C91.9398 21.3128 92.4158 20.7622 93.0758 20.3415C93.7558 19.9208 94.5444 19.7082 95.4431 19.7082C97.5351 19.7082 98.9211 20.5242 99.5991 22.1582C99.9724 21.4175 100.556 20.8048 101.278 20.3968C102.05 19.9322 102.937 19.6942 103.838 19.7082C106.976 19.7082 108.544 21.5055 108.544 25.1028V33.3328H104.306V25.8735C104.306 24.9755 104.14 24.3148 103.81 23.8922C103.48 23.4708 102.984 23.2588 102.324 23.2588C101.608 23.2588 101.058 23.5068 100.672 24.0022C100.287 24.4795 100.094 25.3135 100.094 26.5068V33.3328H95.8558V25.8462C95.8558 24.9475 95.6911 24.2955 95.3604 23.8922C95.0498 23.4708 94.5624 23.2588 93.9031 23.2588C93.1684 23.2588 92.6084 23.5068 92.2231 24.0022C91.8378 24.4795 91.6451 25.3135 91.6451 26.5068V33.3328H87.4351V20.0662H87.4338ZM124.364 26.0115C124.364 26.5795 124.327 27.1948 124.252 27.8555H114.456C114.493 28.7182 114.786 29.3775 115.336 29.8375C115.887 30.2955 116.632 30.5255 117.566 30.5255C118.869 30.5255 119.695 30.1302 120.043 29.3415H124.172C123.969 30.6448 123.254 31.6988 122.024 32.5068C120.814 33.2955 119.327 33.6908 117.566 33.6908C115.291 33.6908 113.502 33.0755 112.198 31.8462C110.914 30.6162 110.272 28.9015 110.272 26.6995C110.272 25.2682 110.565 24.0295 111.152 22.9835C111.72 21.9388 112.594 21.0935 113.657 20.5615C114.74 19.9935 115.997 19.7082 117.43 19.7082C118.786 19.7082 119.988 19.9742 121.034 20.5068C122.098 21.0395 122.915 21.7822 123.483 22.7362C124.071 23.6915 124.364 24.7828 124.364 26.0115ZM120.206 25.2408C120.188 24.3602 119.941 23.6895 119.463 23.2315C118.987 22.7735 118.298 22.5435 117.399 22.5435C116.5 22.5435 115.785 22.7908 115.252 23.2868C114.739 23.7642 114.473 24.4148 114.454 25.2408H120.206ZM126.221 20.0662H130.432V22.8462C130.652 21.8908 131.102 21.1575 131.781 20.6442C132.44 20.1255 133.254 19.8442 134.093 19.8462C134.533 19.8462 134.901 19.8835 135.194 19.9562V23.8648C134.774 23.8142 134.351 23.7868 133.928 23.7822C132.772 23.7822 131.901 24.1575 131.313 24.9102C130.725 25.6442 130.432 26.7448 130.432 28.2135V33.3328H126.221V20.0662Z" fill="#40513B"/>
</g>
<defs>
<clipPath id="clip0_1_138">
<rect width="135" height="48" fill="white" transform="translate(0.685181 0.570801)"/>
</clipPath>
</defs>
</svg>
