<svg width="25" height="25" viewBox="0 0 25 25" fill="none" xmlns="http://www.w3.org/2000/svg">
<path d="M19.4352 6.0708V15.8208C19.4352 16.0197 19.3562 16.2105 19.2155 16.3511C19.0748 16.4918 18.8841 16.5708 18.6852 16.5708C18.4863 16.5708 18.2955 16.4918 18.1548 16.3511C18.0142 16.2105 17.9352 16.0197 17.9352 15.8208V7.88111L7.2158 18.6014C7.07507 18.7422 6.88419 18.8212 6.68517 18.8212C6.48615 18.8212 6.29528 18.7422 6.15455 18.6014C6.01381 18.4607 5.93475 18.2698 5.93475 18.0708C5.93475 17.8718 6.01381 17.6809 6.15455 17.5402L16.8749 6.8208H8.93517C8.73626 6.8208 8.54549 6.74178 8.40484 6.60113C8.26419 6.46048 8.18517 6.26971 8.18517 6.0708C8.18517 5.87189 8.26419 5.68112 8.40484 5.54047C8.54549 5.39982 8.73626 5.3208 8.93517 5.3208H18.6852C18.8841 5.3208 19.0748 5.39982 19.2155 5.54047C19.3562 5.68112 19.4352 5.87189 19.4352 6.0708Z" fill="white"/>
</svg>
