<svg width="25" height="25" viewBox="0 0 25 25" fill="none" xmlns="http://www.w3.org/2000/svg">
<path d="M23.7158 7.85136L20.9127 10.6545C20.3464 17.2189 14.8105 22.3207 8.18518 22.3207C6.82393 22.3207 5.70174 22.1051 4.84956 21.6795C4.16237 21.3354 3.88112 20.967 3.81081 20.862C3.74811 20.768 3.70747 20.661 3.69193 20.549C3.67639 20.4371 3.68634 20.3231 3.72105 20.2156C3.75576 20.108 3.81432 20.0097 3.89236 19.928C3.97041 19.8462 4.06591 19.7832 4.17174 19.7435C4.19612 19.7342 6.44424 18.8707 7.87206 17.2273C7.08023 16.5763 6.389 15.8118 5.82081 14.9585C4.65831 13.2326 3.35706 10.2345 3.75831 5.75417C3.77102 5.61181 3.82416 5.47605 3.91145 5.36287C3.99874 5.24969 4.11655 5.16381 4.25102 5.11534C4.38548 5.06688 4.53099 5.05784 4.67042 5.08931C4.80984 5.12077 4.93737 5.19141 5.03799 5.29292C5.07081 5.32574 8.15799 8.39605 11.9324 9.39167V8.82074C11.9309 8.22204 12.0493 7.62911 12.2805 7.07687C12.5117 6.52462 12.8511 6.02421 13.2786 5.60511C13.6938 5.19048 14.1879 4.86321 14.7316 4.64262C15.2754 4.42203 15.8578 4.31258 16.4446 4.32074C17.2316 4.3285 18.0033 4.53979 18.6846 4.93405C19.3659 5.32832 19.9335 5.89215 20.3324 6.57074H23.1852C23.3336 6.57062 23.4787 6.61454 23.6022 6.69695C23.7256 6.77935 23.8218 6.89653 23.8786 7.03364C23.9355 7.17076 23.9503 7.32165 23.9213 7.46722C23.8923 7.61278 23.8208 7.74647 23.7158 7.85136Z" fill="#40513B"/>
</svg>
