<svg width="84" height="26" viewBox="0 0 84 26" fill="none" xmlns="http://www.w3.org/2000/svg">
<g clip-path="url(#clip0_40_3727)">
<path fill-rule="evenodd" clip-rule="evenodd" d="M51.7997 19.66C46.9667 23.233 39.9377 25.137 33.8747 25.137C25.7874 25.1772 17.9757 22.2007 11.9657 16.789C11.5267 16.379 11.9067 15.822 12.4657 16.145C18.2856 19.4943 24.8017 21.4512 31.504 21.8627C38.2062 22.2742 44.9127 21.1291 51.0987 18.517C51.9167 18.196 52.5907 19.078 51.7997 19.66Z" fill="white"/>
<path fill-rule="evenodd" clip-rule="evenodd" d="M53.8213 17.346C53.2063 16.555 49.7213 16.965 48.1683 17.17C47.6993 17.229 47.6113 16.819 48.0513 16.526C50.8343 14.564 55.3733 15.149 55.9013 15.794C56.4293 16.439 55.7553 21.008 53.1483 23.175C52.7383 23.497 52.3573 23.321 52.5333 22.882C53.1183 21.418 54.4363 18.166 53.8213 17.346Z" fill="white"/>
<path fill-rule="evenodd" clip-rule="evenodd" d="M48.2559 2.75999V0.859992C48.2525 0.79753 48.2624 0.735075 48.2848 0.676673C48.3072 0.61827 48.3416 0.565232 48.3859 0.521003C48.4301 0.476773 48.4831 0.442326 48.5415 0.419928C48.5999 0.397531 48.6624 0.387684 48.7249 0.390998H57.2159C57.3441 0.387747 57.4685 0.435118 57.5621 0.522895C57.6557 0.610671 57.7109 0.731785 57.7159 0.859992V2.47098C57.7159 2.73498 57.4819 3.086 57.0719 3.671L52.6788 9.939C54.353 9.84882 56.0213 10.2013 57.5159 10.961C57.6456 11.0352 57.7541 11.1415 57.8309 11.2697C57.9078 11.3979 57.9505 11.5436 57.9548 11.693V13.714C57.9548 14.007 57.6619 14.329 57.3399 14.153C55.954 13.4357 54.4153 13.0637 52.8548 13.0688C51.2943 13.0738 49.7581 13.4557 48.3768 14.182C48.3069 14.207 48.232 14.2148 48.1585 14.2045C48.085 14.1943 48.015 14.1664 47.9546 14.1233C47.8941 14.0802 47.8451 14.0231 47.8115 13.9568C47.7779 13.8906 47.7609 13.8172 47.7619 13.743V11.807C47.7331 11.3543 47.8456 10.9039 48.0838 10.518L53.1839 3.22498H48.7608C48.6326 3.22823 48.5082 3.18086 48.4146 3.09309C48.321 3.00531 48.2658 2.8842 48.2608 2.75599L48.2559 2.75999ZM17.2969 14.56H14.7159C14.6003 14.5484 14.4918 14.4992 14.4071 14.4198C14.3223 14.3405 14.266 14.2355 14.2469 14.121V0.885993C14.2518 0.757786 14.3071 0.636672 14.4006 0.548896C14.4942 0.461119 14.6186 0.413748 14.7469 0.416999H17.1469C17.2657 0.418615 17.3796 0.464494 17.4663 0.545691C17.5531 0.626888 17.6064 0.737552 17.6159 0.855994V2.58399H17.6749C17.9029 1.86968 18.3521 1.24635 18.9576 0.804053C19.5631 0.361758 20.2935 0.123389 21.0434 0.123389C21.7932 0.123389 22.5236 0.361758 23.1291 0.804053C23.7346 1.24635 24.1838 1.86968 24.4119 2.58399C24.6688 1.84755 25.1537 1.2121 25.7961 0.769782C26.4386 0.327462 27.2052 0.101275 27.9848 0.123999C28.5636 0.112322 29.1368 0.239183 29.6566 0.494025C30.1763 0.748867 30.6277 1.1243 30.9729 1.589C31.7929 2.702 31.6169 4.31299 31.6169 5.74799V14.125C31.6119 14.2532 31.5567 14.3743 31.4631 14.4621C31.3695 14.5498 31.2451 14.5973 31.1169 14.594H28.5688C28.4469 14.5866 28.3318 14.5349 28.2454 14.4485C28.159 14.3621 28.1072 14.247 28.0999 14.125V7.09598C28.1391 6.26563 28.1194 5.43355 28.0408 4.60599C27.9871 4.25371 27.7972 3.9366 27.512 3.723C27.2267 3.5094 26.869 3.4164 26.5159 3.464C26.1796 3.4737 25.8536 3.58146 25.5779 3.77405C25.3021 3.96665 25.0887 4.23566 24.9639 4.54798C24.7516 5.3796 24.6726 6.23962 24.7299 7.09598V14.125C24.7249 14.2532 24.6697 14.3743 24.5761 14.4621C24.4825 14.5498 24.3581 14.5973 24.2299 14.594H21.6528C21.5309 14.5866 21.4158 14.5349 21.3294 14.4485C21.243 14.3621 21.1912 14.247 21.1839 14.125V7.09598C21.1839 5.63098 21.4179 3.435 19.6019 3.435C17.7569 3.435 17.8149 5.54398 17.8149 7.09598V14.125C17.7965 14.2502 17.7325 14.3643 17.6353 14.4453C17.538 14.5263 17.4143 14.5685 17.2879 14.564L17.2969 14.56ZM65.0388 0.120002C68.8758 0.120002 70.9559 3.4 70.9559 7.589C70.9559 11.631 68.6709 14.853 65.0388 14.853C61.2898 14.853 59.2389 11.573 59.2389 7.47199C59.2099 3.34199 61.2888 0.120002 65.0388 0.120002ZM65.0388 2.844C63.1388 2.844 63.0179 5.45099 63.0179 7.06199C63.0179 8.67299 62.9889 12.129 65.0099 12.129C67.0019 12.129 67.1189 9.34599 67.1189 7.64799C67.1548 6.46434 67.0266 5.28144 66.7379 4.133C66.6578 3.74945 66.4414 3.40787 66.1289 3.17161C65.8163 2.93534 65.4287 2.82038 65.0379 2.848L65.0388 2.844ZM75.9049 14.56H73.3279C73.2059 14.5526 73.0908 14.5008 73.0044 14.4144C72.918 14.328 72.8662 14.213 72.8589 14.091V0.827002C72.8751 0.705751 72.9346 0.594449 73.0266 0.513739C73.1185 0.433029 73.2365 0.38835 73.3589 0.387976H75.7589C75.8679 0.391621 75.9727 0.430852 76.0574 0.49964C76.1421 0.568429 76.202 0.663012 76.2279 0.768988V2.78998H76.2868C77.0189 0.973984 78.0148 0.124976 79.8018 0.124976C80.3964 0.0979618 80.9877 0.227008 81.517 0.499274C82.0463 0.77154 82.4951 1.17755 82.8188 1.67698C83.4929 2.73198 83.4929 4.51798 83.4929 5.80698V14.155C83.4752 14.2731 83.4142 14.3805 83.3218 14.4563C83.2294 14.532 83.1122 14.5708 82.9929 14.565H80.4158C80.3046 14.5545 80.1994 14.5092 80.1152 14.4356C80.0311 14.3621 79.9722 14.2639 79.9469 14.155V6.94999C79.9469 5.48599 80.1229 3.37699 78.3359 3.37699C78.0123 3.39209 77.6998 3.49931 77.4351 3.68604C77.1704 3.87277 76.9646 4.13121 76.8419 4.43098C76.5285 5.23219 76.3888 6.09077 76.4319 6.94999V14.097C76.4156 14.2257 76.3533 14.3442 76.2564 14.4304C76.1595 14.5167 76.0346 14.5648 75.9049 14.566V14.56ZM41.4899 8.23298C41.5856 9.17618 41.4235 10.1277 41.0209 10.986C40.8575 11.3252 40.6049 11.6135 40.29 11.82C39.9752 12.0265 39.6101 12.1433 39.2339 12.158C38.2339 12.158 37.6519 11.396 37.6519 10.283C37.6519 8.083 39.6139 7.676 41.4889 7.676L41.4899 8.23298ZM44.0968 14.533C44.0134 14.6059 43.9092 14.6508 43.7988 14.6614C43.6885 14.672 43.5777 14.6477 43.4819 14.592C42.8853 14.1092 42.3794 13.5241 41.9879 12.864C41.4772 13.4883 40.8265 13.9835 40.0885 14.3093C39.3506 14.6351 38.5463 14.7823 37.7409 14.739C37.2123 14.77 36.6834 14.6862 36.1903 14.4934C35.6972 14.3007 35.2517 14.0034 34.8844 13.6221C34.5171 13.2408 34.2367 12.7846 34.0624 12.2846C33.8881 11.7847 33.8241 11.253 33.8748 10.726C33.8445 9.82519 34.0925 8.93694 34.5851 8.18217C35.0778 7.4274 35.791 6.84281 36.6279 6.508C38.1999 5.98658 39.8355 5.6811 41.4899 5.59998V5.27799C41.5774 4.63476 41.465 3.98016 41.1678 3.40299C40.9995 3.18465 40.7815 3.00959 40.5319 2.89237C40.2823 2.77515 40.0084 2.71914 39.7328 2.72898C39.2561 2.68738 38.7807 2.82256 38.3972 3.10874C38.0136 3.39492 37.7487 3.81213 37.6528 4.28098C37.5938 4.51498 37.4529 4.74998 37.2139 4.74998L34.7238 4.486C34.6637 4.47755 34.6059 4.45704 34.5539 4.4257C34.5019 4.39436 34.4567 4.35284 34.4211 4.30363C34.3856 4.25441 34.3603 4.19851 34.3468 4.13929C34.3334 4.08007 34.332 4.01875 34.3428 3.95899C34.9288 0.912991 37.6529 0.00498089 40.1129 0.00498089C41.5266 -0.0554719 42.9136 0.402967 44.0128 1.29398C45.2718 2.46598 45.1549 4.04698 45.1549 5.74598V9.75898C45.1713 10.6506 45.5155 11.505 46.1219 12.159C46.2979 12.393 46.3269 12.686 46.1219 12.833C45.5609 13.275 44.6218 14.095 44.0968 14.533ZM7.66086 8.23298C7.75659 9.17618 7.59449 10.1277 7.19185 10.986C7.0285 11.3252 6.77585 11.6135 6.46102 11.82C6.14619 12.0265 5.78108 12.1433 5.40486 12.158C4.40486 12.158 3.82286 11.396 3.82286 10.283C3.82286 8.083 5.78485 7.676 7.65985 7.676L7.66086 8.23298ZM10.2389 14.533C10.1554 14.6059 10.0512 14.6508 9.94084 14.6614C9.83053 14.672 9.71967 14.6477 9.62386 14.592C9.02728 14.1092 8.52139 13.5241 8.12985 12.864C7.61916 13.4883 6.96845 13.9835 6.23055 14.3093C5.49264 14.6351 4.68832 14.7823 3.88286 14.739C3.35434 14.77 2.82537 14.6862 2.33229 14.4934C1.83921 14.3007 1.39371 14.0034 1.0264 13.6221C0.659085 13.2408 0.378659 12.7846 0.204393 12.2846C0.0301277 11.7847 -0.0338427 11.253 0.0168627 10.726C-0.0135014 9.82519 0.234506 8.93694 0.727129 8.18217C1.21975 7.4274 1.93304 6.84281 2.76985 6.508C4.34193 5.98658 5.97755 5.6811 7.63185 5.59998V5.27799C7.71941 4.63476 7.607 3.98016 7.30986 3.40299C7.14149 3.18465 6.92346 3.00959 6.67389 2.89237C6.42432 2.77515 6.1504 2.71914 5.87485 2.72898C5.39811 2.68738 4.92273 2.82256 4.53919 3.10874C4.15564 3.39492 3.89072 3.81213 3.79486 4.28098C3.73586 4.51498 3.58985 4.74998 3.35585 4.74998L0.865862 4.486C0.805725 4.47755 0.747911 4.45704 0.695894 4.4257C0.643877 4.39436 0.598722 4.35284 0.563143 4.30363C0.527563 4.25441 0.502285 4.19851 0.488832 4.13929C0.475379 4.08007 0.474025 4.01875 0.48485 3.95899C1.07085 0.912991 3.79485 0.00498089 6.25485 0.00498089C7.66857 -0.0554719 9.05562 0.402967 10.1549 1.29398C11.4139 2.46598 11.2969 4.04698 11.2969 5.74598V9.75898C11.3134 10.6506 11.6576 11.505 12.2639 12.159C12.4399 12.393 12.4689 12.686 12.2639 12.833C11.7069 13.272 10.7699 14.092 10.2429 14.533H10.2389Z" fill="white"/>
</g>
<defs>
<clipPath id="clip0_40_3727">
<rect width="83.493" height="25.138" fill="white"/>
</clipPath>
</defs>
</svg>
