<svg width="83" height="20" viewBox="0 0 83 20" fill="none" xmlns="http://www.w3.org/2000/svg">
<g clip-path="url(#clip0_40_3732)">
<path d="M19.8312 18.332H15.2642L13.8642 14.963H6.25716L4.98416 18.332H0.493164L7.35416 1.315H12.2702L19.8312 18.332ZM9.87516 5.381L7.37516 11.993H12.6152L9.87516 5.381ZM36.4182 1.315H40.1112V18.332H35.8692V7.7L31.2782 13.039H30.6292L26.0382 7.7V18.332H21.7932V1.315H25.4932L30.9532 7.628L36.4182 1.315ZM50.8602 1.315C57.0732 1.315 60.2662 5.182 60.2662 9.848C60.2662 14.738 57.1722 18.332 50.3862 18.332H43.3492V1.315H50.8602ZM47.5932 15.213H50.3622C54.6292 15.213 55.9012 12.313 55.9012 9.822C55.9012 6.902 54.3292 4.433 50.3122 4.433H47.5932V15.213ZM68.7052 5.35L63.3562 0H82.8292V19.474L77.4802 14.125V5.35H68.7052ZM68.6992 6.422L63.1932 11.929V19.638H70.9012L76.4082 14.131H68.6992V6.422Z" fill="white"/>
</g>
<defs>
<clipPath id="clip0_40_3732">
<rect width="82.336" height="19.638" fill="white" transform="translate(0.493164)"/>
</clipPath>
</defs>
</svg>
