<svg width="75" height="42" viewBox="0 0 75 42" fill="none" xmlns="http://www.w3.org/2000/svg">
<path d="M24.7297 37.441H21.7207V25.517H24.7297V37.441Z" fill="white"/>
<path d="M48.9912 28.9341C48.2144 28.5126 47.3441 28.293 46.4603 28.2959C46.0309 28.2723 45.6013 28.3377 45.1983 28.4878C44.7953 28.6378 44.4276 28.8693 44.1183 29.168C43.8089 29.4666 43.5646 29.8261 43.4006 30.2236C43.2366 30.6211 43.1565 31.0481 43.1652 31.478C43.1562 31.908 43.2361 32.3352 43.3999 32.7329C43.5638 33.1306 43.808 33.4902 44.1173 33.789C44.4267 34.0879 44.7945 34.3197 45.1977 34.4697C45.6009 34.6198 46.0308 34.685 46.4603 34.6611C47.3434 34.6631 48.2131 34.4453 48.9912 34.0278V37.228C48.1024 37.5005 47.1789 37.6431 46.2493 37.6518C45.4198 37.6902 44.5912 37.5581 43.8148 37.2637C43.0384 36.9692 42.3307 36.5187 41.7353 35.9399C41.1397 35.3613 40.6691 34.667 40.3524 33.8994C40.0358 33.1318 39.8799 32.3073 39.8943 31.477C39.8807 30.6472 40.0372 29.8232 40.3542 29.0561C40.6712 28.2891 41.1419 27.5953 41.7373 27.0171C42.3327 26.439 43.0403 25.9891 43.8162 25.6948C44.5922 25.4005 45.4203 25.2682 46.2493 25.3061C47.1798 25.3086 48.1044 25.453 48.9912 25.7348V28.9341ZM17.5843 28.9341C16.8089 28.5118 15.9392 28.2924 15.0562 28.2969C14.6265 28.2725 14.1964 28.3376 13.7929 28.4873C13.3893 28.637 13.0211 28.8682 12.7113 29.167C12.4012 29.4656 12.1564 29.8252 11.992 30.2231C11.8277 30.621 11.7474 31.0486 11.7563 31.479C11.7473 31.9094 11.8275 32.3373 11.9917 32.7353C12.1558 33.1334 12.4005 33.493 12.7103 33.792C13.0203 34.0908 13.3887 34.3224 13.7924 34.4722C14.1961 34.6219 14.6264 34.6866 15.0562 34.6621C15.9385 34.6651 16.8075 34.4472 17.5843 34.0288V37.229C16.6947 37.5029 15.77 37.6455 14.8393 37.6528C14.0101 37.6912 13.1818 37.5591 12.4057 37.2646C11.6296 36.9702 10.9223 36.5197 10.3273 35.9409C9.73234 35.362 9.26233 34.6675 8.94638 33.8999C8.63042 33.1323 8.47518 32.308 8.49026 31.478C8.47651 30.6486 8.63274 29.8253 8.94937 29.0586C9.26599 28.2919 9.7363 27.598 10.3313 27.02C10.9262 26.442 11.6332 25.9922 12.4087 25.6977C13.1841 25.4033 14.0116 25.2706 14.8402 25.3081C15.7714 25.3092 16.6968 25.453 17.5843 25.7348V28.9341ZM58.4572 28.3418C58.0454 28.3379 57.6369 28.4166 57.2559 28.5732C56.875 28.7299 56.5293 28.9614 56.2393 29.2539C55.9493 29.5463 55.7209 29.8937 55.5675 30.2759C55.4141 30.658 55.3389 31.0673 55.3463 31.479C55.3385 31.891 55.4135 32.3001 55.5667 32.6826C55.7199 33.0651 55.9482 33.4133 56.2382 33.706C56.5283 33.9988 56.8741 34.2304 57.2553 34.3872C57.6364 34.544 58.0451 34.623 58.4572 34.6191C58.8694 34.6229 59.2781 34.544 59.6592 34.3872C60.0403 34.2304 60.3862 33.9988 60.6763 33.706C60.9665 33.4134 61.1951 33.0656 61.3487 32.6831C61.5022 32.3006 61.5776 31.8911 61.5703 31.479C61.5766 31.0668 61.5002 30.6575 61.3456 30.2754C61.191 29.8932 60.9614 29.5458 60.6703 29.2539C60.3801 28.9615 60.0345 28.7303 59.6535 28.5737C59.2726 28.4171 58.8642 28.338 58.4523 28.3418H58.4572ZM64.7523 31.478C64.7599 32.3016 64.6011 33.1185 64.2857 33.8794C63.9702 34.6402 63.5045 35.3296 62.9163 35.9062C62.3281 36.4829 61.6296 36.935 60.8625 37.2353C60.0955 37.5357 59.2757 37.6777 58.4523 37.6538C57.629 37.6779 56.8092 37.536 56.0421 37.2358C55.2751 36.9356 54.5765 36.4837 53.9882 35.9072C53.3999 35.3305 52.934 34.6409 52.6186 33.8799C52.3031 33.1188 52.1445 32.3018 52.1522 31.478C52.1452 30.6546 52.3043 29.8381 52.6201 29.0776C52.936 28.3171 53.402 27.6284 53.9903 27.0522C54.5785 26.476 55.2769 26.0241 56.0438 25.7241C56.8106 25.4241 57.6302 25.282 58.4533 25.3061C59.2763 25.2824 60.0956 25.4249 60.8622 25.7251C61.6289 26.0253 62.3271 26.477 62.9152 27.0532C63.5033 27.6294 63.9691 28.3178 64.2849 29.0781C64.6007 29.8384 64.76 30.6548 64.7533 31.478H64.7523ZM36.1353 28.228C35.3679 28.0166 34.5787 27.895 33.7833 27.8652C32.5773 27.8652 31.9223 28.2648 31.9223 28.8418C31.9223 29.5688 32.8063 29.822 33.3013 29.978L34.1313 30.2422C34.9195 30.4088 35.6288 30.8361 36.1446 31.4551C36.6603 32.0741 36.9526 32.8484 36.9743 33.6538C36.9743 36.6538 34.3403 37.6538 32.0373 37.6538C30.9473 37.6437 29.8605 37.5349 28.7902 37.3281V34.582C29.7144 34.8508 30.6692 34.9998 31.6313 35.0259C33.1313 35.0259 33.8162 34.5881 33.8162 33.9131C33.8162 33.3131 33.2163 32.9601 32.4743 32.7261C32.2933 32.6651 32.0182 32.5801 31.8322 32.5181C30.1562 31.9881 28.7592 31.0028 28.7592 29.0298C28.7592 26.7998 30.4293 25.3022 33.2023 25.3022C34.1913 25.3156 35.1754 25.4427 36.1353 25.6811V28.2261V28.228Z" fill="white"/>
<path d="M5.29852 12.703C5.29746 12.3076 5.1395 11.9288 4.85938 11.6498C4.57925 11.3708 4.19986 11.2147 3.8045 11.2152C3.4094 11.2149 3.03034 11.371 2.75031 11.6498C2.47027 11.9285 2.31213 12.3069 2.31055 12.702V15.8329C2.32145 16.2223 2.48343 16.5925 2.76227 16.8646C3.04111 17.1367 3.41489 17.2895 3.8045 17.2909C4.19458 17.291 4.56922 17.1385 4.84839 16.8661C5.12756 16.5936 5.28912 16.2228 5.29852 15.8329V12.703ZM13.5035 8.59507C13.5035 8.19884 13.3461 7.81861 13.0659 7.53843C12.7857 7.25825 12.4058 7.10093 12.0095 7.10093C11.6133 7.10093 11.2333 7.25825 10.9531 7.53843C10.6729 7.81861 10.5155 8.19884 10.5155 8.59507V15.8329C10.5155 16.2291 10.6729 16.6093 10.9531 16.8895C11.2333 17.1697 11.6133 17.327 12.0095 17.327C12.4058 17.327 12.7857 17.1697 13.0659 16.8895C13.3461 16.6093 13.5035 16.2291 13.5035 15.8329V8.59409V8.59507ZM21.7095 2.973C21.7085 2.57773 21.5507 2.1989 21.2708 1.91978C20.9909 1.64065 20.6118 1.48423 20.2165 1.48423C19.8209 1.48396 19.4413 1.64041 19.1612 1.91978C18.8811 2.19915 18.7233 2.57836 18.7225 2.97398V18.807C18.7322 19.1968 18.8938 19.5675 19.173 19.8397C19.4521 20.1119 19.8266 20.2641 20.2165 20.264C20.6064 20.2641 20.9809 20.1119 21.2601 19.8397C21.5392 19.5675 21.7009 19.1968 21.7105 18.807L21.7095 2.973ZM29.9146 8.59507C29.9146 8.19884 29.7571 7.81861 29.4769 7.53843C29.1967 7.25825 28.8168 7.10093 28.4205 7.10093C28.0243 7.10093 27.6443 7.25825 27.3641 7.53843C27.0839 7.81861 26.9265 8.19884 26.9265 8.59507V15.8329C26.9265 16.2291 27.0839 16.6093 27.3641 16.8895C27.6443 17.1697 28.0243 17.327 28.4205 17.327C28.8168 17.327 29.1967 17.1697 29.4769 16.8895C29.7571 16.6093 29.9146 16.2291 29.9146 15.8329V8.59409V8.59507ZM38.1145 12.703C38.1148 12.3088 37.9585 11.9307 37.6801 11.6517C37.4016 11.3727 37.0237 11.2157 36.6295 11.2152C36.2343 11.2144 35.8549 11.3704 35.5747 11.6493C35.2946 11.9281 35.1366 12.3067 35.1355 12.702V15.8329C35.1355 16.2278 35.2924 16.6068 35.5717 16.8861C35.8509 17.1653 36.2296 17.3221 36.6245 17.3221C37.0186 17.3208 37.396 17.1632 37.6742 16.8841C37.9524 16.605 38.1085 16.2269 38.1085 15.8329L38.1145 12.703ZM46.3235 8.59507C46.3139 8.20652 46.1527 7.83722 45.8746 7.56577C45.5964 7.29432 45.2232 7.14209 44.8345 7.14195C44.4459 7.14209 44.0726 7.29432 43.7944 7.56577C43.5163 7.83722 43.3552 8.20652 43.3455 8.59507V15.8329C43.3455 16.2278 43.5024 16.6068 43.7816 16.8861C44.0609 17.1653 44.4396 17.3221 44.8345 17.3221C45.2294 17.3221 45.6081 17.1653 45.8874 16.8861C46.1666 16.6068 46.3235 16.2278 46.3235 15.8329V8.59409V8.59507ZM54.5345 2.973C54.5343 2.57827 54.3772 2.19978 54.098 1.92075C53.8188 1.64173 53.4403 1.48521 53.0455 1.48521C52.6508 1.48521 52.2722 1.64173 51.993 1.92075C51.7138 2.19978 51.5568 2.57827 51.5565 2.973V18.807C51.5447 19.0757 51.6059 19.3426 51.7335 19.5794C51.8612 19.8162 52.0505 20.0143 52.2815 20.1522C52.5126 20.2898 52.7766 20.3622 53.0455 20.3622C53.3145 20.3622 53.5784 20.2898 53.8095 20.1522C54.0407 20.0143 54.2301 19.816 54.3578 19.579C54.4854 19.342 54.5466 19.0749 54.5345 18.806V2.973ZM62.7435 8.59507C62.7428 8.39787 62.7033 8.20274 62.6271 8.02085C62.5509 7.83896 62.4396 7.67384 62.2995 7.53501C62.1592 7.39665 61.993 7.28736 61.8105 7.21323C61.6279 7.13911 61.4326 7.10148 61.2355 7.10288C60.8405 7.10315 60.4618 7.26049 60.1826 7.53989C59.9033 7.81929 59.7465 8.19812 59.7465 8.59312V15.8319C59.746 16.0279 59.7842 16.222 59.8588 16.4032C59.9335 16.5844 60.0431 16.7493 60.1815 16.888C60.4609 17.168 60.84 17.3255 61.2355 17.326C61.4329 17.3278 61.6285 17.2905 61.8113 17.2162C61.9941 17.1418 62.1604 17.0319 62.3005 16.8929C62.4408 16.7541 62.5522 16.5892 62.6282 16.4071C62.7043 16.225 62.7435 16.0292 62.7435 15.8319V8.59312V8.59507ZM70.9375 12.703C70.9375 12.3075 70.7804 11.9284 70.5008 11.6488C70.2212 11.3692 69.842 11.2118 69.4465 11.2118C69.0511 11.2118 68.6718 11.3692 68.3922 11.6488C68.1126 11.9284 67.9555 12.3075 67.9555 12.703V15.8329C67.9551 16.029 67.9934 16.2233 68.0681 16.4046C68.1429 16.5859 68.2526 16.7507 68.3911 16.8895C68.5296 17.0284 68.6941 17.1385 68.8752 17.2137C69.0563 17.2889 69.2504 17.3278 69.4465 17.328C69.6425 17.3277 69.8364 17.2889 70.0173 17.2137C70.1982 17.1385 70.3626 17.0282 70.5009 16.8895C70.6393 16.7508 70.749 16.5862 70.8237 16.4051C70.8985 16.224 70.9368 16.0298 70.9365 15.8338V12.704L70.9375 12.703Z" fill="white"/>
<path d="M69.2136 35.8709V36.0579H68.6816V37.4412H68.4626V36.0589H67.9287V35.8709H69.2136ZM69.3247 35.8709H69.6666L70.1366 37.159H70.1447L70.5996 35.8718H70.9357V37.4412H70.7117V36.1541H70.7036L70.2277 37.4412H70.0206L69.5557 36.1541H69.5457V37.4412H69.3267L69.3247 35.8709Z" fill="white"/>
</svg>
