<svg width="136" height="49" viewBox="0 0 136 49" fill="none" xmlns="http://www.w3.org/2000/svg">
<g clip-path="url(#clip0_1_148)">
<path fill-rule="evenodd" clip-rule="evenodd" d="M18.1152 5.5708C8.4851 5.5708 0.685181 13.3707 0.685181 23.0008C0.685181 30.7136 5.67452 37.228 12.6029 39.5375C13.4744 39.69 13.8013 39.1671 13.8013 38.7096C13.8013 38.2956 13.7795 36.923 13.7795 35.4632C9.40018 36.2694 8.26723 34.3957 7.91863 33.4152C7.72254 32.9141 6.87283 31.3672 6.13205 30.9532C5.522 30.6264 4.6505 29.8203 6.11027 29.7985C7.48288 29.7767 8.46332 31.0622 8.79013 31.5851C10.3588 34.2214 12.8644 33.4806 13.8666 33.023C14.0191 31.8901 14.4767 31.1275 14.9778 30.6918C11.0996 30.256 7.04713 28.7527 7.04713 22.0857C7.04713 20.1902 7.72254 18.6215 8.8337 17.4014C8.6594 16.9657 8.04935 15.1791 9.008 12.7825C9.008 12.7825 10.4678 12.3249 13.8013 14.569C15.1957 14.1769 16.6772 13.9808 18.1588 13.9808C19.6403 13.9808 21.1219 14.1769 22.5163 14.569C25.8497 12.3031 27.3095 12.7825 27.3095 12.7825C28.2682 15.1791 27.6581 16.9657 27.4838 17.4014C28.595 18.6215 29.2704 20.1684 29.2704 22.0857C29.2704 28.7745 25.1961 30.256 21.3179 30.6918C21.9498 31.2365 22.4945 32.2823 22.4945 33.9163C22.4945 36.2476 22.4727 38.1213 22.4727 38.7096C22.4727 39.1671 22.7995 39.7118 23.671 39.5375C27.1312 38.3694 30.1379 36.1456 32.268 33.1791C34.3981 30.2126 35.5442 26.6528 35.5452 23.0008C35.5452 13.3707 27.7453 5.5708 18.1152 5.5708ZM81.9409 31.4138H81.9003C81.9186 31.4138 81.9308 31.4342 81.9491 31.4362H81.9613L81.9409 31.4158V31.4138ZM81.9491 31.4362C81.7599 31.4382 81.2841 31.5379 80.7818 31.5379C79.1957 31.5379 78.6466 30.8058 78.6466 29.8501V23.4832H81.8799C82.0629 23.4832 82.2053 23.3205 82.2053 23.0968V19.6399C82.2053 19.4568 82.0426 19.2942 81.8799 19.2942H78.6466V15.0035C78.6466 14.8408 78.545 14.7391 78.362 14.7391H73.9696C73.7866 14.7391 73.6849 14.8408 73.6849 15.0035V19.4162C73.6849 19.4162 71.4684 19.9652 71.3261 19.9855C71.1634 20.0262 71.0617 20.1686 71.0617 20.3312V23.0968C71.0617 23.3205 71.2244 23.4832 71.4074 23.4832H73.6646V30.153C73.6646 35.1148 77.1215 35.6232 79.4804 35.6232C80.5581 35.6232 81.8596 35.2775 82.0629 35.1758C82.1849 35.1351 82.2459 34.9928 82.2459 34.8504V31.8002C82.2487 31.7137 82.2203 31.629 82.1657 31.5618C82.1112 31.4946 82.0343 31.4493 81.9491 31.4341V31.4362ZM130.135 26.9605C130.135 23.2798 128.65 22.7918 127.085 22.9545C125.865 23.0358 124.888 23.6458 124.888 23.6458V30.8038C124.888 30.8038 125.885 31.4952 127.369 31.5358C129.464 31.5968 130.135 30.8444 130.135 26.9605ZM135.076 26.6351C135.076 33.61 132.819 35.6028 128.874 35.6028C125.539 35.6028 123.75 33.915 123.75 33.915C123.75 33.915 123.668 34.8504 123.567 34.9724C123.506 35.0944 123.404 35.1351 123.282 35.1351H120.272C120.069 35.1351 119.886 34.9724 119.886 34.7894L119.927 12.1972C119.927 12.0142 120.089 11.8516 120.272 11.8516H124.604C124.787 11.8516 124.949 12.0142 124.949 12.1972V19.8635C124.949 19.8635 126.617 18.7858 129.057 18.7858L129.037 18.7451C131.477 18.7451 135.076 19.6602 135.076 26.6351ZM117.344 19.2942H113.074C112.85 19.2942 112.728 19.4568 112.728 19.6805V30.7428C112.728 30.7428 111.61 31.5358 110.085 31.5358C108.559 31.5358 108.112 30.8444 108.112 29.3193V19.6602C108.112 19.4772 107.949 19.3145 107.766 19.3145H103.415C103.232 19.3145 103.069 19.4772 103.069 19.6602V30.0514C103.069 34.5251 105.57 35.6435 109.007 35.6435C111.833 35.6435 114.131 34.0777 114.131 34.0777C114.131 34.0777 114.233 34.8708 114.294 34.9928C114.335 35.0944 114.477 35.1758 114.619 35.1758H117.344C117.568 35.1758 117.69 35.0131 117.69 34.8301L117.731 19.6399C117.731 19.4568 117.568 19.2942 117.344 19.2942ZM69.1502 19.2738H64.8188C64.6358 19.2738 64.4732 19.4568 64.4732 19.6805V34.6064C64.4732 35.0131 64.7375 35.1555 65.0832 35.1555H68.9875C69.3942 35.1555 69.4959 34.9724 69.4959 34.6064V19.6195C69.4959 19.4365 69.3332 19.2738 69.1502 19.2738ZM67.015 12.4006C65.4492 12.4006 64.2088 13.641 64.2088 15.2068C64.2088 16.7726 65.4492 18.0131 67.015 18.0131C68.5402 18.0131 69.7806 16.7726 69.7806 15.2068C69.7806 13.641 68.5402 12.4006 67.015 12.4006ZM100.547 11.8922H96.2568C96.0737 11.8922 95.9111 12.0549 95.9111 12.2379V20.5549H89.1802V12.2379C89.1802 12.0549 89.0175 11.8922 88.8345 11.8922H84.5031C84.3201 11.8922 84.1574 12.0549 84.1574 12.2379V34.8301C84.1574 35.0131 84.3405 35.1758 84.5031 35.1758H88.8345C89.0175 35.1758 89.1802 35.0131 89.1802 34.8301V25.171H95.9111L95.8704 34.8301C95.8704 35.0131 96.0331 35.1758 96.2161 35.1758H100.547C100.73 35.1758 100.893 35.0131 100.893 34.8301V12.2379C100.893 12.0549 100.73 11.8922 100.547 11.8922ZM62.1753 21.897V33.5693C62.1753 33.6507 62.155 33.793 62.0533 33.8337C62.0533 33.8337 59.5114 35.6435 55.3224 35.6435C50.259 35.6435 44.2602 34.0574 44.2602 23.6052C44.2602 13.153 49.5066 10.9975 54.631 11.0178C59.064 11.0178 60.8535 12.0142 61.1382 12.1972C61.2196 12.2989 61.2602 12.3803 61.2602 12.4819L60.4062 16.1016C60.4062 16.2846 60.2231 16.5083 59.9995 16.4473C59.2674 16.2236 58.1693 15.7762 55.5868 15.7762C52.5975 15.7762 49.3846 16.6303 49.3846 23.3612C49.3846 30.092 52.4348 30.8851 54.631 30.8851C56.5018 30.8851 57.1729 30.6614 57.1729 30.6614V25.9844H54.1837C53.96 25.9844 53.7973 25.8217 53.7973 25.6387V21.897C53.7973 21.714 53.96 21.5513 54.1837 21.5513H61.7889C62.0126 21.5513 62.1753 21.714 62.1753 21.897Z" fill="#40513B"/>
<path d="M18.1152 5.5708C8.4851 5.5708 0.685181 13.3707 0.685181 23.0008C0.685181 30.7136 5.67452 37.228 12.6029 39.5375C13.4744 39.69 13.8013 39.1671 13.8013 38.7096C13.8013 38.2956 13.7795 36.923 13.7795 35.4632C9.40018 36.2694 8.26723 34.3957 7.91863 33.4152C7.72254 32.9141 6.87283 31.3672 6.13205 30.9532C5.522 30.6264 4.6505 29.8203 6.11027 29.7985C7.48288 29.7767 8.46332 31.0622 8.79013 31.5851C10.3588 34.2214 12.8644 33.4806 13.8666 33.023C14.0191 31.8901 14.4767 31.1275 14.9778 30.6918C11.0996 30.256 7.04713 28.7527 7.04713 22.0857C7.04713 20.1902 7.72254 18.6215 8.8337 17.4014C8.6594 16.9657 8.04935 15.1791 9.008 12.7825C9.008 12.7825 10.4678 12.3249 13.8013 14.569C15.1957 14.1769 16.6772 13.9808 18.1588 13.9808C19.6403 13.9808 21.1219 14.1769 22.5163 14.569C25.8497 12.3031 27.3095 12.7825 27.3095 12.7825C28.2682 15.1791 27.6581 16.9657 27.4838 17.4014C28.595 18.6215 29.2704 20.1684 29.2704 22.0857C29.2704 28.7745 25.1961 30.256 21.3179 30.6918C21.9498 31.2365 22.4945 32.2823 22.4945 33.9163C22.4945 36.2476 22.4727 38.1213 22.4727 38.7096C22.4727 39.1671 22.7995 39.7118 23.671 39.5375C27.1312 38.3694 30.1379 36.1456 32.268 33.1791C34.3981 30.2126 35.5442 26.6528 35.5452 23.0008C35.5452 13.3707 27.7453 5.5708 18.1152 5.5708ZM81.9409 31.4138H81.9003C81.9186 31.4138 81.9308 31.4342 81.9491 31.4362H81.9613L81.9409 31.4158V31.4138ZM81.9491 31.4362C81.7599 31.4382 81.2841 31.5379 80.7818 31.5379C79.1957 31.5379 78.6466 30.8058 78.6466 29.8501V23.4832H81.8799C82.0629 23.4832 82.2053 23.3205 82.2053 23.0968V19.6399C82.2053 19.4568 82.0426 19.2942 81.8799 19.2942H78.6466V15.0035C78.6466 14.8408 78.545 14.7391 78.362 14.7391H73.9696C73.7866 14.7391 73.6849 14.8408 73.6849 15.0035V19.4162C73.6849 19.4162 71.4684 19.9652 71.3261 19.9855C71.1634 20.0262 71.0617 20.1686 71.0617 20.3312V23.0968C71.0617 23.3205 71.2244 23.4832 71.4074 23.4832H73.6646V30.153C73.6646 35.1148 77.1215 35.6232 79.4804 35.6232C80.5581 35.6232 81.8596 35.2775 82.0629 35.1758C82.1849 35.1351 82.2459 34.9928 82.2459 34.8504V31.8002C82.2487 31.7137 82.2203 31.629 82.1657 31.5618C82.1112 31.4946 82.0343 31.4493 81.9491 31.4341V31.4362ZM130.135 26.9605C130.135 23.2798 128.65 22.7918 127.085 22.9545C125.865 23.0358 124.888 23.6458 124.888 23.6458V30.8038C124.888 30.8038 125.885 31.4952 127.369 31.5358C129.464 31.5968 130.135 30.8444 130.135 26.9605ZM135.076 26.6351C135.076 33.61 132.819 35.6028 128.874 35.6028C125.539 35.6028 123.75 33.915 123.75 33.915C123.75 33.915 123.668 34.8504 123.567 34.9724C123.506 35.0944 123.404 35.1351 123.282 35.1351H120.272C120.069 35.1351 119.886 34.9724 119.886 34.7894L119.927 12.1972C119.927 12.0142 120.089 11.8516 120.272 11.8516H124.604C124.787 11.8516 124.949 12.0142 124.949 12.1972V19.8635C124.949 19.8635 126.617 18.7858 129.057 18.7858L129.037 18.7451C131.477 18.7451 135.076 19.6602 135.076 26.6351ZM117.344 19.2942H113.074C112.85 19.2942 112.728 19.4568 112.728 19.6805V30.7428C112.728 30.7428 111.61 31.5358 110.085 31.5358C108.559 31.5358 108.112 30.8444 108.112 29.3193V19.6602C108.112 19.4772 107.949 19.3145 107.766 19.3145H103.415C103.232 19.3145 103.069 19.4772 103.069 19.6602V30.0514C103.069 34.5251 105.57 35.6435 109.007 35.6435C111.833 35.6435 114.131 34.0777 114.131 34.0777C114.131 34.0777 114.233 34.8708 114.294 34.9928C114.335 35.0944 114.477 35.1758 114.619 35.1758H117.344C117.568 35.1758 117.69 35.0131 117.69 34.8301L117.731 19.6399C117.731 19.4568 117.568 19.2942 117.344 19.2942ZM69.1502 19.2738H64.8188C64.6358 19.2738 64.4732 19.4568 64.4732 19.6805V34.6064C64.4732 35.0131 64.7375 35.1555 65.0832 35.1555H68.9875C69.3942 35.1555 69.4959 34.9724 69.4959 34.6064V19.6195C69.4959 19.4365 69.3332 19.2738 69.1502 19.2738ZM67.015 12.4006C65.4492 12.4006 64.2088 13.641 64.2088 15.2068C64.2088 16.7726 65.4492 18.0131 67.015 18.0131C68.5402 18.0131 69.7806 16.7726 69.7806 15.2068C69.7806 13.641 68.5402 12.4006 67.015 12.4006ZM100.547 11.8922H96.2568C96.0737 11.8922 95.9111 12.0549 95.9111 12.2379V20.5549H89.1802V12.2379C89.1802 12.0549 89.0175 11.8922 88.8345 11.8922H84.5031C84.3201 11.8922 84.1574 12.0549 84.1574 12.2379V34.8301C84.1574 35.0131 84.3405 35.1758 84.5031 35.1758H88.8345C89.0175 35.1758 89.1802 35.0131 89.1802 34.8301V25.171H95.9111L95.8704 34.8301C95.8704 35.0131 96.0331 35.1758 96.2161 35.1758H100.547C100.73 35.1758 100.893 35.0131 100.893 34.8301V12.2379C100.893 12.0549 100.73 11.8922 100.547 11.8922ZM62.1753 21.897V33.5693C62.1753 33.6507 62.155 33.793 62.0533 33.8337C62.0533 33.8337 59.5114 35.6435 55.3224 35.6435C50.259 35.6435 44.2602 34.0574 44.2602 23.6052C44.2602 13.153 49.5066 10.9975 54.631 11.0178C59.064 11.0178 60.8535 12.0142 61.1382 12.1972C61.2196 12.2989 61.2602 12.3803 61.2602 12.4819L60.4062 16.1016C60.4062 16.2846 60.2231 16.5083 59.9995 16.4473C59.2674 16.2236 58.1693 15.7762 55.5868 15.7762C52.5975 15.7762 49.3846 16.6303 49.3846 23.3612C49.3846 30.092 52.4348 30.8851 54.631 30.8851C56.5018 30.8851 57.1729 30.6614 57.1729 30.6614V25.9844H54.1837C53.96 25.9844 53.7973 25.8217 53.7973 25.6387V21.897C53.7973 21.714 53.96 21.5513 54.1837 21.5513H61.7889C62.0126 21.5513 62.1753 21.714 62.1753 21.897Z" fill="#40513B"/>
</g>
<defs>
<clipPath id="clip0_1_148">
<rect width="135" height="48" fill="white" transform="translate(0.685181 0.570801)"/>
</clipPath>
</defs>
</svg>
