<svg width="133" height="49" viewBox="0 0 133 49" fill="none" xmlns="http://www.w3.org/2000/svg">
<g clip-path="url(#clip0_1_140)">
<path d="M28.3904 7.5708H6.44347C3.40098 7.5708 0.935181 10.0366 0.935181 13.0791V35.0261C0.935181 38.0685 3.40098 40.5343 6.44347 40.5343H28.3904C31.4329 40.5343 33.8987 38.0685 33.8987 35.0261V13.0791C33.8987 10.0366 31.4329 7.5708 28.3904 7.5708ZM27.9066 32.8022C27.9066 33.7633 27.1277 34.5422 26.1666 34.5422H8.66733C7.7062 34.5422 6.92735 33.7633 6.92735 32.8022V15.3029C6.92735 14.3418 7.7062 13.563 8.66733 13.563H26.1666C27.1277 13.563 27.9066 14.3418 27.9066 15.3029V32.8022ZM13.9204 28.5268C13.3669 28.5268 12.9228 28.0794 12.9228 27.5259V20.5395C12.9228 19.986 13.3669 19.5352 13.9204 19.5352H20.9168C21.467 19.5352 21.9144 19.9827 21.9144 20.5395V27.5226C21.9144 28.0761 21.467 28.5235 20.9168 28.5235H13.9204V28.5268ZM42.6384 28.0496H46.2377C46.4167 30.0878 47.7987 31.6787 50.586 31.6787C53.075 31.6787 54.6062 30.4491 54.6062 28.5898C54.6062 26.8498 53.4064 26.0709 51.2455 25.5606L48.4549 24.9607C45.4257 24.3011 43.1455 22.3524 43.1455 19.1707C43.1455 15.6609 46.2642 13.2614 50.3142 13.2614C54.6029 13.2614 57.3636 15.5117 57.6023 18.8393H54.1223C53.708 17.2816 52.4154 16.3536 50.3175 16.3536C48.097 16.3536 46.5691 17.5533 46.5691 19.0845C46.5691 20.6157 47.8882 21.5437 50.1684 22.0541L52.9292 22.654C55.9584 23.3135 58.0265 25.143 58.0265 28.3512C58.0265 32.431 54.9674 34.8603 50.5893 34.8603C45.6676 34.857 42.94 32.1891 42.6384 28.0496ZM70.9023 40.5343V34.5654L71.1376 31.9471H70.9023C70.0771 33.8296 68.3437 34.8603 65.9906 34.8603C62.1958 34.8603 59.3721 31.7715 59.3721 27.0354C59.3721 22.2993 62.1958 19.2105 65.9906 19.2105C68.3139 19.2105 69.9611 20.2975 70.9023 22.0044H71.1376V19.5021H74.2564V40.5343H70.9023ZM71.0183 27.0321C71.0183 24.0029 69.1657 22.2364 66.8987 22.2364C64.6318 22.2364 62.7791 24.0029 62.7791 27.0321C62.7791 30.0613 64.6318 31.8278 66.8987 31.8278C69.1657 31.8278 71.0183 30.0646 71.0183 27.0321ZM76.7454 28.5931V19.5021H80.0994V28.2981C80.0994 30.6811 81.2461 31.8278 83.1584 31.8278C85.5116 31.8278 87.0427 30.1508 87.0427 27.5325V19.5021H90.3968V34.5621H87.2781V31.4433H87.0427C86.307 33.4452 84.6896 34.857 82.1907 34.857C78.598 34.857 76.7454 32.5636 76.7454 28.5931ZM92.4383 30.3563C92.4383 27.5325 94.4103 25.8854 97.9102 25.6799L102.056 25.4147V24.2382C102.056 22.8263 101.026 21.9745 99.2027 21.9745C97.5257 21.9745 96.5248 22.8263 96.2597 24.0327H92.9057C93.2603 20.9736 95.7891 19.2071 99.1994 19.2071C103.054 19.2071 105.407 20.8543 105.407 24.0327V34.5621H102.288V31.7681H102.053C101.347 33.6208 99.8755 34.857 97.0518 34.857C94.3507 34.857 92.4383 33.0342 92.4383 30.3563ZM102.06 28.5036V27.7082L98.6758 27.9435C96.8529 28.0595 96.0277 28.7389 96.0277 30.0911C96.0277 31.2379 96.9689 32.0631 98.2913 32.0631C100.678 32.0631 102.06 30.5352 102.06 28.5036ZM107.909 34.5654V19.5021H111.028V22.3855H111.263C111.704 20.4135 113.205 19.5021 115.439 19.5021H116.97V22.5313H115.058C112.881 22.5313 111.263 23.9432 111.263 26.6211V34.5621H107.909V34.5654ZM132.315 27.6518H120.871C121.047 30.4159 122.989 31.9769 125.137 31.9769C126.96 31.9769 128.106 31.2412 128.756 30.005H132.08C131.169 33.064 128.491 34.857 125.107 34.857C120.666 34.857 117.547 31.5328 117.547 27.0321C117.547 22.5313 120.752 19.2071 125.137 19.2071C129.548 19.2071 132.431 22.2364 132.431 26.0014C132.435 26.7404 132.375 27.1216 132.315 27.6518ZM129.111 25.3286C128.995 23.2406 127.258 21.8287 125.14 21.8287C123.138 21.8287 121.465 23.0948 121.05 25.3286H129.111Z" fill="#40513B"/>
</g>
<defs>
<clipPath id="clip0_1_140">
<rect width="132" height="48" fill="white" transform="translate(0.685181 0.570801)"/>
</clipPath>
</defs>
</svg>
