<svg width="146" height="49" viewBox="0 0 146 49" fill="none" xmlns="http://www.w3.org/2000/svg">
<g clip-path="url(#clip0_1_144)">
<path d="M11.516 13.3115C17.4849 13.3115 22.3467 18.1733 22.3467 24.1904C22.3467 30.2075 17.4849 35.0693 11.516 35.0693C5.54699 35.0693 0.685181 30.2556 0.685181 24.1904C0.685181 18.1252 5.54699 13.3115 11.516 13.3115ZM96.4292 13.0708V32.133C96.4292 33.5771 97.0068 33.9622 98.114 34.251L98.1621 34.4917H92.0487V32.133C91.3267 33.8659 89.8345 34.9249 87.909 34.9249C84.6357 34.9249 82.4695 31.9404 82.4695 27.5118C82.4695 25.0087 83.1916 22.8907 84.5394 21.3022C85.8391 19.7618 87.6202 18.9435 89.5938 18.9435C90.5565 18.9435 91.3748 19.136 92.0487 19.5693V16.9699C92.0487 16.3922 91.9043 16.0071 91.6155 15.7183C91.2304 15.3814 90.6046 15.237 89.6419 15.3332H89.5938V15.0925L96.4292 13.0708ZM119.631 18.9916V32.133C119.631 33.5771 120.209 33.9622 121.316 34.251V34.4917H115.203V32.0848C114.48 33.8177 112.892 34.9249 111.111 34.9249C108.993 34.9249 107.645 33.9622 107.116 32.0848L107.019 31.6035C106.923 31.1221 106.875 30.6407 106.875 30.1593V23.1314C106.875 21.591 106.538 21.1096 105.19 21.0134H105.142V20.7727L111.255 18.9916V30.0631C111.255 31.6997 111.977 32.6143 113.325 32.6143C114.144 32.6143 114.817 32.1811 115.203 31.459V23.1314C115.203 21.5429 114.914 21.0615 113.807 20.9652H113.758V20.7245L119.631 18.9916ZM75.4897 18.9435C77.1264 18.9435 78.7149 19.5211 79.7739 20.532C80.9773 21.6873 81.6031 23.3721 81.6512 25.5864V25.6345H72.4571C72.2645 28.8115 74.2381 31.4109 76.8375 31.5072C78.7149 31.6516 80.3515 30.4963 81.2661 28.619L81.5068 28.7152C80.9773 32.2292 78.9074 34.8767 75.2972 34.8767C71.2055 34.8767 68.895 31.459 68.7987 27.1749V26.0677C68.9912 24.1904 69.5689 22.5056 70.5798 21.254C71.2055 20.4839 71.9276 19.9062 72.794 19.5211C73.5161 19.136 74.5751 18.9435 75.4416 18.9435H75.4897ZM139.175 18.9916C141.774 18.9916 143.363 20.6283 143.363 23.4202V32.3736C143.363 33.4326 143.844 33.9622 145.047 34.251H145.095V34.4917H138.934V23.5646C138.934 21.8317 138.308 20.9652 137.008 20.9652C135.949 20.9652 135.42 21.7354 135.131 22.4093C135.179 22.7463 135.227 23.0832 135.227 23.4202V32.518C135.227 33.6252 135.564 34.0103 136.527 34.251H136.575V34.4917H130.847V23.5646C130.847 21.8317 130.173 20.9652 128.922 20.9652C127.911 20.9652 127.381 21.6873 127.14 22.2649V32.5662C127.14 33.6733 127.477 34.0584 128.44 34.2991H128.488V34.5398H122.76V23.0832C122.76 21.5429 122.375 21.0615 121.075 20.9652H121.027V20.7245L127.14 19.0398V21.591C127.766 19.9544 129.21 18.9916 131.04 18.9916C133.109 18.9916 134.553 20.0025 135.035 21.8317C135.661 20.0988 137.249 18.9916 139.175 18.9916ZM51.3732 14.0335L57.1015 27.4637L62.8297 14.0335H68.9912L68.9431 14.2742L68.8732 14.2898C67.8116 14.5317 67.2583 14.9287 67.2583 16.2478V32.6143C67.3546 33.6733 67.9322 34.0103 68.9431 34.251H68.9912V34.4917H61.145V34.251H61.1931C62.204 34.0103 62.7816 33.6733 62.8779 32.6143V16.6811L55.3204 34.4435H54.8872L47.5222 17.1624V32.2292C47.5222 33.5771 48.0999 33.9622 49.207 34.2028H49.2552V34.4435H44.7303V34.2028H44.7785C45.8856 33.9622 46.4632 33.5771 46.4632 32.2292V16.2478C46.4632 14.9 45.8856 14.5149 44.7785 14.2742H44.7303V14.0335H51.3732ZM103.89 18.9916V32.133L103.891 32.2218C103.915 33.5931 104.491 33.9682 105.575 34.251L105.623 34.4917H99.5099V23.1314C99.5099 21.591 99.173 21.1096 97.8252 21.0134H97.777V20.7727L103.89 18.9916ZM28.8452 13.9373C31.7815 13.9373 34.2365 18.5584 34.2365 24.1904C34.2365 29.8705 31.8297 34.4435 28.8452 34.4435C25.8607 34.4435 23.4539 29.8705 23.4539 24.1904C23.4539 18.5103 25.8607 13.9373 28.8452 13.9373ZM37.1247 14.9963C38.2319 14.9963 39.0502 19.136 39.0502 24.1904C39.0502 29.2448 38.1837 33.3845 37.1247 33.3845C36.0763 33.3845 35.2166 29.3271 35.1995 24.3417L35.1992 24.1904C35.1992 19.136 36.0657 14.9963 37.1247 14.9963ZM90.3158 19.8099C88.3904 19.8099 87.1869 22.3612 87.1869 26.3084C87.1869 28.1857 87.5239 29.8224 88.1015 30.9295C88.631 31.9885 89.4012 32.5662 90.2677 32.5662C91.1341 32.5662 91.7599 32.1811 92.0487 31.459V20.869C91.7118 20.195 91.086 19.8099 90.3158 19.8099ZM75.4416 19.8581C73.7086 19.8581 72.6978 21.928 72.5534 24.8162V24.8643H77.8003C77.8965 22.6019 77.5114 21.1096 76.7894 20.3876C76.4043 20.0506 75.9711 19.8581 75.4416 19.8581ZM101.532 13.2152C102.928 13.2152 103.987 14.2742 103.987 15.6702C103.987 17.0662 102.928 18.1252 101.532 18.1252C100.136 18.1252 99.0767 17.0662 99.0767 15.6702C99.0767 14.2742 100.136 13.2152 101.532 13.2152Z" fill="#40513B"/>
</g>
<defs>
<clipPath id="clip0_1_144">
<rect width="145" height="48" fill="white" transform="translate(0.685181 0.570801)"/>
</clipPath>
</defs>
</svg>
