<svg width="122" height="24" viewBox="0 0 122 24" fill="none" xmlns="http://www.w3.org/2000/svg">
<g clip-path="url(#clip0_40_3742)">
<path fill-rule="evenodd" clip-rule="evenodd" d="M4.07369 2.235C4.98196 1.44583 6.03745 0.844245 7.17932 0.464939C8.32118 0.0856318 9.52684 -0.0638967 10.7268 0.0249734C11.9267 0.113844 13.0972 0.439354 14.1707 0.982739C15.2442 1.52612 16.1996 2.27663 16.9817 3.191C18.6635 4.89173 19.6458 7.1617 19.7343 9.55192C19.8228 11.9421 19.0111 14.2785 17.4597 16.099L10.2887 23.27C8.85469 22.314 6.46469 20.402 7.42069 18.489C9.33269 16.099 11.7207 14.189 13.6357 11.796C15.0697 9.884 14.1137 6.059 11.2457 5.581C10.6021 5.35604 9.91155 5.30009 9.24015 5.4185C8.56875 5.53691 7.939 5.82572 7.4112 6.25727C6.88341 6.68882 6.47525 7.24865 6.22583 7.88315C5.9764 8.51765 5.89406 9.20556 5.98669 9.881C5.98669 12.271 7.89869 13.705 9.33269 15.14C7.89869 16.574 5.98669 17.53 5.98669 19.44C4.55269 17.528 2.16269 16.094 1.20569 13.703C0.331664 11.7462 0.139235 9.55279 0.659189 7.4737C1.17914 5.39461 2.38143 3.55 4.07369 2.235Z" fill="white"/>
<path fill-rule="evenodd" clip-rule="evenodd" d="M34.6701 2.235C35.1481 0.801001 36.5821 1.279 37.5381 1.279V18.962H34.6701V17.532C33.5191 18.46 32.0851 18.9661 30.6066 18.9661C29.1281 18.9661 27.6941 18.46 26.5431 17.532C25.2191 16.3232 24.4261 14.6404 24.3366 12.8499C24.2471 11.0593 24.8683 9.30585 26.0651 7.971C27.1412 6.79969 28.6051 6.05758 30.186 5.88184C31.7669 5.70611 33.3579 6.10863 34.6651 7.015L34.6701 2.235ZM30.3701 8.45C27.9801 8.928 26.0701 12.274 27.9801 14.665C28.3372 15.1859 28.825 15.6038 29.3947 15.8765C29.9644 16.1493 30.5957 16.2674 31.2255 16.2189C31.8552 16.1705 32.4611 15.9573 32.9824 15.6006C33.5036 15.2439 33.9218 14.7564 34.1951 14.187C35.6261 11.796 33.2351 8.449 30.3671 8.449L30.3701 8.45Z" fill="white"/>
<path fill-rule="evenodd" clip-rule="evenodd" d="M39.9277 6.059H42.7957V7.015C43.7517 5.581 45.6637 5.581 47.5767 6.059C47.0987 7.015 46.6207 7.493 46.6207 8.449C44.7087 7.971 42.7967 8.927 42.7967 10.361V17.532C42.3177 18.971 40.8837 18.971 39.9277 18.971V6.059Z" fill="white"/>
<path fill-rule="evenodd" clip-rule="evenodd" d="M51.8783 6.06C56.6593 4.148 61.4393 8.928 60.4783 13.709C59.5173 18.49 52.8293 20.88 49.4783 17.533C45.6543 14.187 47.0883 7.016 51.8683 6.06H51.8783ZM53.3123 8.45C52.5096 8.66415 51.7776 9.08626 51.1901 9.67374C50.6026 10.2612 50.1805 10.9933 49.9663 11.796C49.8682 12.3414 49.8953 12.902 50.0455 13.4354C50.1957 13.9689 50.4651 14.4612 50.8333 14.8753C51.2016 15.2894 51.6591 15.6145 52.1714 15.8259C52.6836 16.0374 53.2372 16.1297 53.7903 16.096C55.7023 16.096 57.6143 14.662 57.6143 12.75C57.6143 10.362 55.2253 7.972 53.3143 8.45H53.3123Z" fill="white"/>
<path fill-rule="evenodd" clip-rule="evenodd" d="M62.3965 6.059H65.2645V7.015C66.5716 6.10863 68.1627 5.70611 69.7436 5.88184C71.3245 6.05758 72.7883 6.79969 73.8645 7.971C74.4555 8.58527 74.9142 9.31422 75.2123 10.1128C75.5104 10.9114 75.6416 11.7626 75.5977 12.6139C75.5539 13.4651 75.3359 14.2984 74.9573 15.0621C74.5787 15.8258 74.0475 16.5037 73.3965 17.054C71.4845 19.444 67.6595 19.444 65.2695 18.01V22.31C64.7915 23.744 63.3575 23.744 62.4015 23.744V6.059H62.3965ZM68.6115 8.449C65.7435 8.927 64.3115 12.273 65.7435 14.186C67.1775 16.576 71.0025 16.576 71.9585 14.186C73.8695 11.795 71.4795 8.449 68.6115 8.449Z" fill="white"/>
<path fill-rule="evenodd" clip-rule="evenodd" d="M80.5623 6.538C81.7722 5.85953 83.1676 5.5863 84.544 5.75833C85.9205 5.93036 87.2057 6.53861 88.2113 7.494C87.7333 7.972 87.2553 8.928 86.2993 9.406C85.8537 9.04499 85.3303 8.79251 84.7704 8.66849C84.2105 8.54447 83.6294 8.5523 83.073 8.69137C82.5166 8.83044 82.0002 9.09694 81.5645 9.46983C81.1288 9.84271 80.7857 10.3118 80.5623 10.84C80.3546 11.4061 80.2801 12.0124 80.3448 12.6119C80.4094 13.2115 80.6114 13.788 80.9351 14.2967C81.2588 14.8055 81.6955 15.2328 82.2111 15.5453C82.7268 15.8579 83.3076 16.0474 83.9083 16.099C84.8643 16.099 85.8204 15.621 86.7764 15.621C87.6302 15.997 88.3123 16.6791 88.6883 17.533C85.3423 20.401 79.6053 19.445 78.1713 15.143C76.2593 12.274 77.6933 8.448 80.5623 6.538Z" fill="white"/>
<path fill-rule="evenodd" clip-rule="evenodd" d="M88.6897 14.664C87.2577 10.362 90.6017 5.581 94.9047 5.581C96.6258 5.65613 98.271 6.31105 99.5728 7.43935C100.875 8.56765 101.757 10.103 102.076 11.796V18.967C100.642 18.967 99.6857 18.967 98.7297 18.011C95.3837 20.401 90.1297 18.489 88.6907 14.665L88.6897 14.664ZM94.9047 8.449C94.2464 8.57286 93.6272 8.85241 93.0988 9.26431C92.5705 9.67621 92.1484 10.2085 91.8677 10.8168C91.587 11.425 91.4559 12.0916 91.4853 12.7609C91.5147 13.4302 91.7038 14.0827 92.0367 14.664C93.9487 17.054 97.7737 16.576 98.7297 14.186C98.9745 13.5556 99.064 12.8756 98.9906 12.2033C98.9172 11.531 98.683 10.8863 98.3078 10.3237C97.9327 9.761 97.4276 9.29691 96.8353 8.97061C96.243 8.64432 95.5808 8.46541 94.9047 8.449Z" fill="white"/>
<path fill-rule="evenodd" clip-rule="evenodd" d="M103.987 6.06H106.855V7.016C108.289 5.104 111.636 5.582 113.548 7.494C115.938 4.626 120.719 5.582 121.675 8.928C122.153 11.796 121.675 15.143 121.675 18.011C121.675 18.967 120.241 18.967 118.807 18.967C118.807 16.099 119.285 13.23 118.807 10.367C118.714 9.8651 118.448 9.41174 118.055 9.08547C117.662 8.7592 117.168 8.58058 116.657 8.58058C116.147 8.58058 115.652 8.7592 115.26 9.08547C114.867 9.41174 114.601 9.8651 114.507 10.367V18.967H111.639C111.719 15.9315 111.559 12.8944 111.161 9.884C110.683 7.972 107.337 8.45 107.337 10.362C106.94 13.2105 106.78 16.087 106.859 18.962H103.987V6.06Z" fill="white"/>
</g>
<defs>
<clipPath id="clip0_40_3742">
<rect width="121.516" height="23.743" fill="white" transform="translate(0.373047)"/>
</clipPath>
</defs>
</svg>
