<svg width="1141" height="635" viewBox="0 0 1141 635" fill="none" xmlns="http://www.w3.org/2000/svg">
<circle cx="886.5" cy="417.5" r="98.5" fill="#3E3470"/>
<circle cx="5" cy="5" r="5" transform="matrix(1 0 0 -1 0 52)" fill="#54AFAB"/>
<circle cx="5" cy="5" r="5" transform="matrix(1 0 0 -1 57 304)" fill="#EFA75D"/>
<circle cx="5" cy="5" r="5" transform="matrix(1 0 0 -1 246 594)" fill="#BEC9E3"/>
<circle cx="5" cy="5" r="5" transform="matrix(1 0 0 -1 702 378)" fill="#7F99DB"/>
<circle cx="5" cy="5" r="5" transform="matrix(1 0 0 -1 837 10)" fill="#F7D4B0"/>
<circle cx="5" cy="5" r="5" transform="matrix(1 0 0 -1 556 156)" fill="#B2BAC4"/>
<circle cx="1085.5" cy="579.5" r="55.5" fill="#3E3470"/>
</svg>
