<svg width="33" height="33" viewBox="0 0 33 33" fill="none" xmlns="http://www.w3.org/2000/svg">
<path d="M16.6852 8.5708C15.6963 8.5708 14.7296 8.86405 13.9073 9.41345C13.0851 9.96286 12.4442 10.7438 12.0658 11.6574C11.6873 12.571 11.5883 13.5763 11.7813 14.5463C11.9742 15.5162 12.4504 16.4071 13.1496 17.1063C13.8489 17.8056 14.7398 18.2818 15.7097 18.4747C16.6796 18.6677 17.685 18.5686 18.5986 18.1902C19.5122 17.8118 20.2931 17.1709 20.8425 16.3487C21.3919 15.5264 21.6852 14.5597 21.6852 13.5708C21.6852 12.2447 21.1584 10.9729 20.2207 10.0353C19.283 9.09758 18.0113 8.5708 16.6852 8.5708ZM16.6852 16.5708C16.0918 16.5708 15.5118 16.3949 15.0185 16.0652C14.5251 15.7356 14.1406 15.267 13.9135 14.7189C13.6865 14.1707 13.6271 13.5675 13.7428 12.9855C13.8586 12.4036 14.1443 11.869 14.5639 11.4495C14.9834 11.0299 15.518 10.7442 16.0999 10.6284C16.6819 10.5127 17.2851 10.5721 17.8332 10.7992C18.3814 11.0262 18.8499 11.4107 19.1796 11.9041C19.5092 12.3974 19.6852 12.9775 19.6852 13.5708C19.6852 14.3665 19.3691 15.1295 18.8065 15.6921C18.2439 16.2547 17.4808 16.5708 16.6852 16.5708ZM16.6852 2.5708C13.7688 2.57411 10.9728 3.7341 8.91066 5.79628C6.84848 7.85846 5.68849 10.6544 5.68518 13.5708C5.68518 17.4958 7.49893 21.6558 10.9352 25.6021C12.4792 27.3853 14.217 28.991 16.1164 30.3896C16.2846 30.5073 16.4849 30.5705 16.6902 30.5705C16.8955 30.5705 17.0958 30.5073 17.2639 30.3896C19.1599 28.9904 20.8943 27.3847 22.4352 25.6021C25.8664 21.6558 27.6852 17.4958 27.6852 13.5708C27.6819 10.6544 26.5219 7.85846 24.4597 5.79628C22.3975 3.7341 19.6015 2.57411 16.6852 2.5708ZM16.6852 28.3208C14.6189 26.6958 7.68518 20.7271 7.68518 13.5708C7.68518 11.1839 8.63339 8.89467 10.3212 7.20684C12.009 5.51901 14.2982 4.5708 16.6852 4.5708C19.0721 4.5708 21.3613 5.51901 23.0491 7.20684C24.737 8.89467 25.6852 11.1839 25.6852 13.5708C25.6852 20.7246 18.7514 26.6958 16.6852 28.3208Z" fill="#9368EC"/>
</svg>
