<svg width="33" height="33" viewBox="0 0 33 33" fill="none" xmlns="http://www.w3.org/2000/svg">
<path d="M22.6852 2.5708H10.6852C9.88953 2.5708 9.12647 2.88687 8.56386 3.44948C8.00125 4.01209 7.68518 4.77515 7.68518 5.5708V27.5708C7.68518 28.3665 8.00125 29.1295 8.56386 29.6921C9.12647 30.2547 9.88953 30.5708 10.6852 30.5708H22.6852C23.4808 30.5708 24.2439 30.2547 24.8065 29.6921C25.3691 29.1295 25.6852 28.3665 25.6852 27.5708V5.5708C25.6852 4.77515 25.3691 4.01209 24.8065 3.44948C24.2439 2.88687 23.4808 2.5708 22.6852 2.5708ZM9.68518 8.5708H23.6852V24.5708H9.68518V8.5708ZM10.6852 4.5708H22.6852C22.9504 4.5708 23.2048 4.67616 23.3923 4.86369C23.5798 5.05123 23.6852 5.30558 23.6852 5.5708V6.5708H9.68518V5.5708C9.68518 5.30558 9.79054 5.05123 9.97807 4.86369C10.1656 4.67616 10.42 4.5708 10.6852 4.5708ZM22.6852 28.5708H10.6852C10.42 28.5708 10.1656 28.4654 9.97807 28.2779C9.79054 28.0904 9.68518 27.836 9.68518 27.5708V26.5708H23.6852V27.5708C23.6852 27.836 23.5798 28.0904 23.3923 28.2779C23.2048 28.4654 22.9504 28.5708 22.6852 28.5708Z" fill="#9368EC"/>
</svg>
