<svg width="25" height="25" viewBox="0 0 25 25" fill="none" xmlns="http://www.w3.org/2000/svg">
<path d="M20.9352 2.8208H4.43518C4.03736 2.8208 3.65582 2.97884 3.37452 3.26014C3.09322 3.54145 2.93518 3.92298 2.93518 4.3208V20.8208C2.93518 21.2186 3.09322 21.6002 3.37452 21.8815C3.65582 22.1628 4.03736 22.3208 4.43518 22.3208H20.9352C21.333 22.3208 21.7145 22.1628 21.9958 21.8815C22.2771 21.6002 22.4352 21.2186 22.4352 20.8208V4.3208C22.4352 3.92298 22.2771 3.54145 21.9958 3.26014C21.7145 2.97884 21.333 2.8208 20.9352 2.8208ZM9.68518 17.0708C9.68518 17.2697 9.60616 17.4605 9.46551 17.6011C9.32486 17.7418 9.13409 17.8208 8.93518 17.8208C8.73627 17.8208 8.5455 17.7418 8.40485 17.6011C8.2642 17.4605 8.18518 17.2697 8.18518 17.0708V11.0708C8.18518 10.8719 8.2642 10.6811 8.40485 10.5405C8.5455 10.3998 8.73627 10.3208 8.93518 10.3208C9.13409 10.3208 9.32486 10.3998 9.46551 10.5405C9.60616 10.6811 9.68518 10.8719 9.68518 11.0708V17.0708ZM8.93518 9.5708C8.71268 9.5708 8.49517 9.50482 8.31016 9.3812C8.12516 9.25759 7.98096 9.08189 7.89582 8.87632C7.81067 8.67075 7.78839 8.44455 7.8318 8.22632C7.87521 8.0081 7.98235 7.80764 8.13969 7.65031C8.29702 7.49297 8.49748 7.38583 8.7157 7.34242C8.93393 7.29901 9.16013 7.32129 9.3657 7.40644C9.57127 7.49158 9.74697 7.63578 9.87058 7.82078C9.9942 8.00579 10.0602 8.2233 10.0602 8.4458C10.0602 8.74417 9.94165 9.03032 9.73068 9.2413C9.5197 9.45227 9.23355 9.5708 8.93518 9.5708ZM17.9352 17.0708C17.9352 17.2697 17.8562 17.4605 17.7155 17.6011C17.5749 17.7418 17.3841 17.8208 17.1852 17.8208C16.9863 17.8208 16.7955 17.7418 16.6549 17.6011C16.5142 17.4605 16.4352 17.2697 16.4352 17.0708V13.6958C16.4352 13.1985 16.2376 12.7216 15.886 12.37C15.5344 12.0183 15.0575 11.8208 14.5602 11.8208C14.0629 11.8208 13.586 12.0183 13.2344 12.37C12.8827 12.7216 12.6852 13.1985 12.6852 13.6958V17.0708C12.6852 17.2697 12.6062 17.4605 12.4655 17.6011C12.3249 17.7418 12.1341 17.8208 11.9352 17.8208C11.7363 17.8208 11.5455 17.7418 11.4049 17.6011C11.2642 17.4605 11.1852 17.2697 11.1852 17.0708V11.0708C11.1861 10.8871 11.2544 10.7101 11.3772 10.5734C11.5 10.4368 11.6686 10.3499 11.8512 10.3293C12.0337 10.3087 12.2175 10.3559 12.3676 10.4618C12.5177 10.5677 12.6237 10.725 12.6655 10.9039C13.1729 10.5597 13.7644 10.3603 14.3766 10.3269C14.9887 10.2936 15.5985 10.4276 16.1402 10.7146C16.682 11.0016 17.1353 11.4308 17.4515 11.956C17.7678 12.4813 17.935 13.0827 17.9352 13.6958V17.0708Z" fill="#40513B"/>
</svg>
