<svg width="83" height="25" viewBox="0 0 83 25" fill="none" xmlns="http://www.w3.org/2000/svg">
<g clip-path="url(#clip0_40_3756)">
<path d="M0.888672 17.57V0.364H3.91067V17.57H0.888672ZM11.6477 5.088C10.7926 5.06873 9.94225 5.22077 9.1468 5.53515C8.35135 5.84954 7.62686 6.31992 7.01598 6.91858C6.4051 7.51725 5.92019 8.23211 5.58982 9.02105C5.25944 9.80999 5.09027 10.6571 5.09227 11.5124C5.09427 12.3677 5.2674 13.214 5.60147 14.0014C5.93554 14.7887 6.42379 15.5013 7.03746 16.0971C7.65114 16.6929 8.37783 17.1599 9.17474 17.4706C9.97165 17.7812 10.8227 17.9293 11.6777 17.906C12.526 17.9144 13.3676 17.7544 14.1536 17.4351C14.9396 17.1158 15.6545 16.6437 16.2566 16.046C16.8588 15.4484 17.3364 14.7372 17.6616 13.9536C17.9868 13.17 18.1533 12.3297 18.1513 11.4813C18.1493 10.6329 17.9789 9.79337 17.65 9.01133C17.3211 8.22928 16.8403 7.52031 16.2353 6.92551C15.6303 6.33071 14.9133 5.86193 14.1258 5.54633C13.3383 5.23073 12.496 5.07461 11.6477 5.087V5.088ZM11.6127 8C12.4132 7.99747 13.1899 8.27247 13.8106 8.77819C14.4312 9.28391 14.8573 9.98909 15.0165 10.7737C15.1757 11.5583 15.058 12.3738 14.6835 13.0814C14.309 13.789 13.7009 14.3449 12.9626 14.6545C12.2244 14.9642 11.4016 15.0084 10.6344 14.7797C9.86722 14.5509 9.20301 14.0633 8.75486 13.3999C8.30672 12.7366 8.10233 11.9384 8.17651 11.1412C8.25068 10.3441 8.59882 9.59731 9.16167 9.028C9.81117 8.37556 10.6921 8.00609 11.6127 8ZM25.7767 5.088C24.9216 5.06873 24.0713 5.22077 23.2758 5.53515C22.4804 5.84954 21.7559 6.31992 21.145 6.91858C20.5341 7.51725 20.0492 8.23211 19.7188 9.02105C19.3884 9.80999 19.2193 10.6571 19.2213 11.5124C19.2233 12.3677 19.3964 13.214 19.7305 14.0014C20.0645 14.7887 20.5528 15.5013 21.1665 16.0971C21.7801 16.6929 22.5068 17.1599 23.3037 17.4706C24.1006 17.7812 24.9517 17.9293 25.8067 17.906C26.6606 17.9268 27.51 17.775 28.3039 17.4597C29.0977 17.1444 29.8198 16.6721 30.4267 16.071C31.0337 15.4699 31.5131 14.7525 31.8361 13.9617C32.1591 13.171 32.3192 12.3231 32.3067 11.469C32.3914 10.2907 32.041 9.12217 31.3217 8.185L32.1597 7.898V5.445H27.8727C27.1972 5.21092 26.4876 5.09029 25.7727 5.088H25.7767ZM25.7417 8C26.5422 7.99793 27.3186 8.27333 27.9389 8.77931C28.5592 9.28529 28.985 9.99059 29.1438 10.7752C29.3026 11.5597 29.1846 12.3751 28.8099 13.0825C28.4352 13.7899 27.827 14.3455 27.0887 14.6549C26.3504 14.9643 25.5278 15.0083 24.7607 14.7794C23.9936 14.5505 23.3296 14.0629 22.8816 13.3995C22.4336 12.7362 22.2293 11.938 22.3035 11.141C22.3778 10.3439 22.7259 9.59725 23.2887 9.028C23.9387 8.37508 24.8204 8.00556 25.7417 8ZM29.2417 18.408C29.2417 19.3331 28.8742 20.2203 28.2201 20.8744C27.5659 21.5285 26.6787 21.896 25.7537 21.896C24.8286 21.896 23.9414 21.5285 23.2873 20.8744C22.6332 20.2203 22.2657 19.3331 22.2657 18.408H19.1987C19.1843 19.2701 19.3462 20.126 19.6744 20.9233C20.0025 21.7206 20.49 22.4425 21.107 23.0447C21.7241 23.6469 22.4576 24.1168 23.2626 24.4255C24.0676 24.7342 24.9272 24.8752 25.7887 24.84C26.6421 24.8618 27.4912 24.7109 28.2849 24.3965C29.0786 24.0821 29.8006 23.6106 30.4076 23.0103C31.0147 22.41 31.4942 21.6933 31.8174 20.9031C32.1406 20.1129 32.3009 19.2656 32.2887 18.412L29.2417 18.408ZM33.5237 17.567V5.445H36.5467V17.57L33.5237 17.567ZM39.4807 17.567V8.161H37.8597V5.445H39.4807V1.722H42.5027V5.445H44.1677V8.161H42.5027V17.57L39.4807 17.567ZM37.0297 2C37.0297 2.39556 36.9124 2.78224 36.6926 3.11114C36.4728 3.44004 36.1605 3.69638 35.795 3.84776C35.4296 3.99913 35.0275 4.03874 34.6395 3.96157C34.2515 3.8844 33.8952 3.69392 33.6155 3.41421C33.3358 3.13451 33.1453 2.77814 33.0681 2.39018C32.9909 2.00222 33.0305 1.60009 33.1819 1.23463C33.3333 0.869181 33.5896 0.556824 33.9185 0.337061C34.2474 0.117298 34.6341 0 35.0297 0C35.5601 0 36.0688 0.210714 36.4439 0.585786C36.819 0.960859 37.0297 1.46957 37.0297 2ZM50.9627 5.08C50.1083 5.06267 49.2593 5.21999 48.4679 5.54231C47.6764 5.86463 46.9591 6.34518 46.3599 6.95449C45.7607 7.5638 45.2922 8.28906 44.9832 9.0858C44.6741 9.88255 44.531 10.734 44.5627 11.588C44.5276 12.4402 44.6721 13.2903 44.9866 14.0832C45.3011 14.8761 45.7786 15.594 46.3883 16.1905C46.998 16.787 47.7262 17.2487 48.5258 17.5458C49.3254 17.8429 50.1784 17.9687 51.0297 17.915C52.0569 17.9475 53.0791 17.7589 54.0271 17.3621C54.9751 16.9653 55.8269 16.3695 56.5247 15.615L54.5047 13.592C53.5983 14.5413 52.3764 15.1266 51.0687 15.238C50.3103 15.2678 49.5651 15.0327 48.9612 14.5731C48.3572 14.1135 47.932 13.4579 47.7587 12.719H57.1767V11.887C57.1767 8.566 55.2547 5.081 50.9677 5.081L50.9627 5.08ZM50.8627 7.741C51.6051 7.69831 52.337 7.9329 52.9162 8.39928C53.4955 8.86565 53.8809 9.53055 53.9977 10.265H47.6677C47.8163 9.53374 48.2193 8.87884 48.8052 8.41672C49.3911 7.95459 50.1219 7.71517 50.8677 7.741H50.8627ZM64.7317 17.916C63.8886 17.9169 63.0536 17.7516 62.2743 17.4298C61.4951 17.1079 60.7869 16.6358 60.1901 16.0402C58.9849 14.8375 58.3069 13.2052 58.3052 11.5025C58.3034 9.79981 58.9782 8.16617 60.181 6.96097C61.3837 5.75577 63.016 5.07772 64.7187 5.076C65.7086 5.06859 66.6876 5.28239 67.5843 5.70176C68.4811 6.12114 69.2728 6.73551 69.9017 7.5L67.7887 9.6C67.4111 9.13765 66.9417 8.75867 66.4102 8.48705C65.8787 8.21543 65.2966 8.05708 64.7007 8.022C64.2417 8.01057 63.7852 8.09221 63.3587 8.26199C62.9321 8.43177 62.5444 8.68618 62.2188 9.00987C61.8933 9.33357 61.6366 9.71984 61.4644 10.1454C61.2922 10.571 61.2079 11.027 61.2167 11.486C61.2051 11.9461 61.2863 12.4037 61.4554 12.8318C61.6245 13.2598 61.878 13.6494 62.2009 13.9773C62.5238 14.3052 62.9094 14.5648 63.3348 14.7405C63.7601 14.9162 64.2165 15.0044 64.6767 15C65.277 14.9688 65.8642 14.8121 66.4002 14.5399C66.9362 14.2678 67.4092 13.8863 67.7887 13.42L69.9187 15.52C69.288 16.282 68.4946 16.8931 67.5969 17.3084C66.6991 17.7237 65.7197 17.9327 64.7307 17.92L64.7317 17.916ZM71.0197 17.579V0.32H74.0417V6.661C74.4963 6.13835 75.0626 5.72463 75.6988 5.45044C76.3349 5.17626 77.0246 5.04863 77.7167 5.077C80.8817 5.077 82.7167 7.43 82.7167 10.439V17.579H79.6887V10.9C79.7341 10.5312 79.6984 10.157 79.5841 9.80348C79.4699 9.44994 79.2797 9.12564 79.027 8.85324C78.7744 8.58085 78.4652 8.36694 78.1213 8.22647C77.7773 8.086 77.4068 8.02236 77.0357 8.04C76.6321 8.00791 76.2263 8.06407 75.8466 8.20458C75.4669 8.3451 75.1224 8.56659 74.8369 8.85368C74.5515 9.14077 74.3319 9.48657 74.1935 9.86706C74.0552 10.2475 74.0013 10.6536 74.0357 11.057V17.584H71.0197V17.579Z" fill="white"/>
</g>
<defs>
<clipPath id="clip0_40_3756">
<rect width="81.828" height="24.845" fill="white" transform="translate(0.888672)"/>
</clipPath>
</defs>
</svg>
