<svg width="60" height="60" viewBox="0 0 60 60" fill="none" xmlns="http://www.w3.org/2000/svg">
<circle cx="30" cy="30" r="30" fill="#322867"/>
<g clip-path="url(#clip0_40_3281)">
<path d="M36.707 30.2973C36.7067 30.297 36.7065 30.2968 36.7062 30.2965L31.6977 25.288C31.3048 24.8986 30.6706 24.9014 30.2812 25.2943C30.2504 25.3254 30.2217 25.3584 30.1952 25.3932C29.9144 25.8121 29.9757 26.3723 30.3405 26.7205L33.1051 29.4952C33.2521 29.6423 33.4211 29.7656 33.606 29.8608L33.9115 30.021H24.0699C23.5659 29.9999 23.1198 30.3445 23.0131 30.8374C22.9245 31.3835 23.2954 31.898 23.8415 31.9866C23.8988 31.9959 23.9568 32.0001 24.0148 31.9994H33.8914L33.6761 32.0996C33.466 32.1977 33.2745 32.3316 33.1101 32.4952L30.3405 35.2649C29.9757 35.6131 29.9144 36.1733 30.1952 36.5922C30.522 37.0385 31.1488 37.1354 31.5952 36.8086C31.6313 36.7822 31.6655 36.7534 31.6977 36.7224L36.7062 31.7139C37.0976 31.3229 37.0979 30.6887 36.707 30.2973Z" fill="white"/>
</g>
<defs>
<clipPath id="clip0_40_3281">
<rect width="14" height="14" fill="white" transform="translate(23 24)"/>
</clipPath>
</defs>
</svg>
