<svg width="60" height="60" viewBox="0 0 60 60" fill="none" xmlns="http://www.w3.org/2000/svg">
<circle cx="30" cy="30" r="30" fill="#0044EB"/>
<g clip-path="url(#clip0_40_3287)">
<path d="M23.293 31.7027C23.2933 31.703 23.2935 31.7032 23.2938 31.7035L28.3023 36.7119C28.6952 37.1014 29.3294 37.0986 29.7188 36.7057C29.7496 36.6746 29.7783 36.6416 29.8048 36.6068C30.0856 36.1879 30.0243 35.6277 29.6595 35.2795L26.8949 32.5048C26.7479 32.3577 26.5789 32.2344 26.394 32.1392L26.0885 31.979L35.9301 31.979C36.4341 32.0001 36.8802 31.6555 36.9869 31.1626C37.0755 30.6165 36.7046 30.102 36.1585 30.0134C36.1012 30.0041 36.0432 29.9999 35.9852 30.0006L26.1086 30.0006L26.3239 29.9004C26.534 29.8023 26.7255 29.6684 26.8899 29.5048L29.6596 26.7351C30.0243 26.3869 30.0856 25.8267 29.8048 25.4078C29.478 24.9615 28.8512 24.8646 28.4048 25.1914C28.3687 25.2178 28.3345 25.2466 28.3023 25.2776L23.2938 30.2861C22.9024 30.6771 22.9021 31.3113 23.293 31.7027Z" fill="white"/>
</g>
<defs>
<clipPath id="clip0_40_3287">
<rect width="14" height="14" fill="white" transform="translate(37 38) rotate(-180)"/>
</clipPath>
</defs>
</svg>
