<svg width="30" height="33" viewBox="0 0 30 33" fill="none" xmlns="http://www.w3.org/2000/svg">
<path fill-rule="evenodd" clip-rule="evenodd" d="M23.3275 29.2379C23.0265 29.3941 22.7227 29.5503 22.4217 29.7065C14.2499 33.9132 14.5373 33.1157 6.20128 28.9858C-1.61747 24.9216 0.177801 23.6363 0.177801 15.7245C2.77767 17.0153 5.38027 18.3033 7.98287 19.5941C7.98287 21.7043 7.89529 21.5864 10.0217 22.6415C14.4552 24.8394 18.8914 27.0373 23.3275 29.2379Z" fill="white"/>
<path fill-rule="evenodd" clip-rule="evenodd" d="M29.8377 19.5364C29.8377 24.1295 30.6998 25.4038 25.9078 27.895C24.0961 26.9961 22.2817 26.0999 20.47 25.1983C20.47 22.984 20.4892 23.1374 18.2505 22.0275C12.2271 19.0431 6.20086 16.0587 0.177384 13.0716C0.177384 8.42914 -0.638152 7.17673 4.10728 4.71301C5.91898 5.6119 7.73067 6.50804 9.5451 7.40693C9.5451 9.46231 9.3809 9.39654 11.4471 10.4187C17.5746 13.458 23.7075 16.4972 29.8377 19.5364Z" fill="white"/>
<path fill-rule="evenodd" clip-rule="evenodd" d="M23.812 3.62236C31.5541 7.64542 29.8382 9.03212 29.8382 16.8837C27.2356 15.5929 24.633 14.3049 22.0331 13.0141C22.0331 11.0354 22.2247 11.0711 20.2351 10.0872C15.7196 7.84822 11.204 5.60923 6.68848 3.37023C15.7825 -1.35714 14.5647 -0.962508 23.812 3.62236Z" fill="white"/>
</svg>
