<svg width="100" height="30" viewBox="0 0 100 30" fill="none" xmlns="http://www.w3.org/2000/svg">
<g clip-path="url(#clip0_40_3758)">
<path d="M15.4728 3.38876e-08C12.5544 0.000197812 9.70154 0.86579 7.27506 2.48732C4.84858 4.10885 2.95742 6.41349 1.84073 9.10982C0.724033 11.8061 0.431958 14.773 1.00143 17.6354C1.57091 20.4977 2.97636 23.1269 5.04007 25.1904C7.10377 27.254 9.73304 28.6593 12.5954 29.2285C15.4578 29.7978 18.4246 29.5055 21.1209 28.3887C23.8171 27.2718 26.1216 25.3805 27.743 22.9539C29.3644 20.5273 30.2298 17.6744 30.2298 14.756C30.2298 12.8181 29.8481 10.8992 29.1065 9.10889C28.3648 7.31855 27.2778 5.69181 25.9075 4.32158C24.5372 2.95134 22.9104 1.86445 21.12 1.12295C19.3296 0.381447 17.4107 -0.000131294 15.4728 3.38876e-08ZM22.2398 21.282C22.1764 21.3848 22.0935 21.4741 21.9956 21.5448C21.8978 21.6155 21.7869 21.6663 21.6694 21.6941C21.552 21.722 21.4301 21.7264 21.311 21.7072C21.1918 21.6879 21.0775 21.6454 20.9748 21.582C17.5098 19.466 13.1488 18.982 8.01178 20.16C7.77388 20.2142 7.52418 20.1717 7.31761 20.0419C7.11104 19.912 6.96452 19.7054 6.91028 19.4675C6.85604 19.2296 6.89853 18.9799 7.0284 18.7733C7.15827 18.5668 7.36488 18.4202 7.60278 18.366C13.2238 17.082 18.0458 17.635 21.9348 20.012C22.0386 20.075 22.1288 20.158 22.2004 20.2561C22.272 20.3541 22.3234 20.4654 22.3517 20.5835C22.3801 20.7015 22.3848 20.824 22.3656 20.9439C22.3464 21.0638 22.3036 21.1787 22.2398 21.282ZM24.0458 17.264C23.8863 17.5241 23.6301 17.7102 23.3334 17.7814C23.0368 17.8527 22.724 17.8032 22.4638 17.644C17.9848 15.1469 12.6984 14.528 7.76378 15.923C7.47204 16.0122 7.1568 15.9819 6.8874 15.8388C6.61801 15.6956 6.41653 15.4512 6.32728 15.1595C6.23803 14.8678 6.26834 14.5525 6.41152 14.2831C6.55471 14.0137 6.79904 13.8122 7.09078 13.723C9.84463 12.9302 12.7291 12.6952 15.5749 13.0318C18.4208 13.3683 21.1708 14.2697 23.6638 15.683C23.7926 15.762 23.9045 15.8655 23.9933 15.9878C24.0821 16.11 24.1458 16.2486 24.181 16.3955C24.2162 16.5424 24.2221 16.6948 24.1984 16.844C24.1747 16.9932 24.1218 17.1362 24.0428 17.265L24.0458 17.264ZM24.2008 13.08C19.4448 10.255 11.6008 9.995 7.05778 11.374C6.88327 11.4305 6.69926 11.4516 6.51649 11.4361C6.33373 11.4207 6.15588 11.3689 5.99334 11.2839C5.83081 11.199 5.68684 11.0824 5.56987 10.9411C5.4529 10.7999 5.36527 10.6367 5.31209 10.4611C5.25892 10.2856 5.24127 10.1012 5.26018 9.91877C5.2791 9.73633 5.33419 9.55949 5.42224 9.39858C5.51029 9.23768 5.62953 9.09595 5.77299 8.98167C5.91646 8.86738 6.08127 8.78285 6.25778 8.733C11.4698 7.151 20.1348 7.456 25.6108 10.707C25.7667 10.7994 25.9028 10.9217 26.0114 11.0668C26.1201 11.2118 26.1991 11.3769 26.2439 11.5525C26.2888 11.7281 26.2986 11.9108 26.2728 12.0902C26.2471 12.2696 26.1862 12.4421 26.0938 12.598C26.0013 12.7539 25.8791 12.89 25.734 12.9987C25.5889 13.1073 25.4239 13.1863 25.2483 13.2311C25.0727 13.276 24.89 13.2858 24.7106 13.2601C24.5312 13.2343 24.3587 13.1734 24.2028 13.081L24.2008 13.08ZM40.8638 13.623C38.3158 13.015 37.8638 12.589 37.8638 11.693C37.8638 10.846 38.6638 10.277 39.8458 10.277C41.1205 10.3225 42.3445 10.7876 43.3278 11.6C43.3457 11.6132 43.366 11.6227 43.3876 11.628C43.4091 11.6333 43.4316 11.6342 43.4535 11.6308C43.4755 11.6273 43.4965 11.6196 43.5154 11.6079C43.5344 11.5963 43.5508 11.581 43.5638 11.563L44.8078 9.809C44.8324 9.77422 44.8428 9.73134 44.8369 9.68914C44.8309 9.64694 44.8091 9.60861 44.7758 9.582C43.3972 8.45437 41.6635 7.85203 39.8828 7.882C37.1318 7.882 35.2098 9.533 35.2098 11.895C35.2098 14.428 36.8678 15.325 39.7328 16.017C42.1698 16.579 42.5818 17.049 42.5818 17.89C42.5818 18.822 41.7498 19.402 40.4108 19.402C38.892 19.3903 37.4371 18.7894 36.3528 17.726C36.3189 17.6972 36.2752 17.6825 36.2308 17.685C36.2087 17.6865 36.1871 17.6924 36.1674 17.7023C36.1476 17.7123 36.1301 17.7261 36.1158 17.743L34.7158 19.403C34.6877 19.4363 34.6737 19.4793 34.6767 19.5227C34.6797 19.5662 34.6994 19.6068 34.7318 19.636C36.2701 21.0298 38.274 21.7977 40.3498 21.789C43.3138 21.789 45.2288 20.17 45.2288 17.662C45.2338 15.546 43.9668 14.374 40.8638 13.62H40.8588L40.8638 13.623ZM51.9398 11.11C51.3221 11.1019 50.7109 11.237 50.1541 11.5047C49.5974 11.7724 49.1102 12.1655 48.7308 12.653V11.485C48.7309 11.4631 48.7267 11.4414 48.7184 11.4212C48.7102 11.4009 48.6979 11.3825 48.6825 11.367C48.6671 11.3515 48.6487 11.3391 48.6285 11.3307C48.6083 11.3223 48.5867 11.318 48.5648 11.318H46.2838C46.2619 11.318 46.2402 11.3223 46.22 11.3307C46.1998 11.3391 46.1815 11.3515 46.166 11.367C46.1506 11.3825 46.1384 11.4009 46.1301 11.4212C46.1218 11.4414 46.1176 11.4631 46.1178 11.485V24.454C46.1178 24.4981 46.1352 24.5404 46.1663 24.5717C46.1974 24.603 46.2397 24.6207 46.2838 24.621H48.5638C48.6079 24.6207 48.6501 24.603 48.6812 24.5717C48.7123 24.5404 48.7298 24.4981 48.7298 24.454V20.361C49.1232 20.8263 49.6153 21.198 50.1704 21.4492C50.7255 21.7003 51.3296 21.8246 51.9388 21.813C54.3268 21.813 56.7438 19.975 56.7438 16.462C56.7438 12.949 54.3298 11.109 51.9438 11.109L51.9398 11.11ZM54.0918 16.462C54.1317 16.8408 54.0926 17.2237 53.9768 17.5865C53.861 17.9493 53.6712 18.2842 53.4192 18.5698C53.1673 18.8554 52.8587 19.0855 52.5132 19.2457C52.1676 19.4058 51.7926 19.4924 51.4118 19.5C51.0301 19.4878 50.6548 19.3986 50.3084 19.2378C49.962 19.0769 49.6517 18.8478 49.3961 18.564C49.1405 18.2803 48.9449 17.9479 48.8209 17.5866C48.6969 17.2254 48.6472 16.8429 48.6748 16.462C48.6471 16.081 48.6967 15.6984 48.8206 15.337C48.9445 14.9757 49.1401 14.6431 49.3957 14.3593C49.6514 14.0755 49.9617 13.8462 50.3082 13.6853C50.6546 13.5244 51.03 13.4352 51.4118 13.423C51.791 13.435 52.1638 13.5245 52.5072 13.686C52.8505 13.8476 53.1572 14.0777 53.4083 14.3622C53.6593 14.6467 53.8495 14.9796 53.967 15.3404C54.0846 15.7012 54.127 16.0822 54.0918 16.46V16.462ZM62.9388 11.11C61.8821 11.1299 60.8549 11.4616 59.9861 12.0633C59.1174 12.665 58.4457 13.5101 58.0556 14.4922C57.6655 15.4744 57.5742 16.55 57.7933 17.5839C58.0124 18.6177 58.5321 19.5638 59.287 20.3033C60.042 21.0428 60.9987 21.5428 62.0369 21.7404C63.0751 21.9381 64.1485 21.8246 65.1224 21.4142C66.0963 21.0038 66.9272 20.3148 67.5108 19.4337C68.0945 18.5527 68.4048 17.5188 68.4028 16.462C68.3992 15.7507 68.2545 15.0472 67.9773 14.3922C67.7 13.7372 67.2956 13.1436 66.7875 12.6459C66.2794 12.1482 65.6776 11.7562 65.0169 11.4925C64.3563 11.2289 63.65 11.0989 62.9388 11.11ZM62.9388 19.518C62.5471 19.5144 62.1602 19.4314 61.8014 19.2742C61.4426 19.1169 61.1194 18.8886 60.8513 18.603C60.5832 18.3174 60.3757 17.9805 60.2414 17.6125C60.1071 17.2445 60.0487 16.8532 60.0698 16.462C60.0444 16.0747 60.0989 15.6864 60.2298 15.3211C60.3607 14.9557 60.5653 14.6211 60.8308 14.3381C61.0963 14.055 61.4171 13.8295 61.7734 13.6756C62.1296 13.5216 62.5137 13.4424 62.9018 13.443C63.2946 13.4457 63.6828 13.528 64.043 13.6848C64.4031 13.8416 64.7279 14.0696 64.9975 14.3553C65.2672 14.6409 65.4762 14.9782 65.612 15.3468C65.7479 15.7154 65.8076 16.1077 65.7878 16.5C65.8122 16.8884 65.7565 17.2777 65.6242 17.6437C65.4918 18.0097 65.2857 18.3446 65.0185 18.6276C64.7514 18.9106 64.4289 19.1356 64.0712 19.2888C63.7134 19.442 63.3279 19.52 62.9388 19.518ZM74.9688 11.318H72.4578V8.751C72.4579 8.72912 72.4537 8.70742 72.4454 8.68717C72.4371 8.66691 72.4249 8.64849 72.4095 8.63297C72.3941 8.61745 72.3757 8.60513 72.3555 8.59673C72.3353 8.58833 72.3137 8.584 72.2918 8.584H70.0108C69.9666 8.58426 69.9243 8.60194 69.893 8.6332C69.8617 8.66446 69.844 8.70679 69.8438 8.751V11.318H68.7438C68.7219 11.318 68.7002 11.3223 68.68 11.3307C68.6598 11.3391 68.6415 11.3515 68.626 11.367C68.6106 11.3825 68.5984 11.4009 68.5901 11.4212C68.5818 11.4414 68.5777 11.4631 68.5778 11.485V13.446C68.5778 13.4901 68.5952 13.5324 68.6263 13.5637C68.6574 13.595 68.6997 13.6127 68.7438 13.613H69.8438V18.687C69.8438 20.736 70.8638 21.776 72.8778 21.776C73.6247 21.7939 74.3625 21.6101 75.0138 21.244C75.0396 21.2299 75.0612 21.2091 75.0762 21.1837C75.0911 21.1584 75.0989 21.1294 75.0988 21.1V19.231C75.0987 19.2027 75.0914 19.1749 75.0776 19.1502C75.0638 19.1256 75.0439 19.1048 75.0198 19.09C74.9958 19.0747 74.9682 19.066 74.9397 19.0648C74.9113 19.0635 74.883 19.0698 74.8578 19.083C74.4441 19.297 73.9846 19.4075 73.5188 19.405C72.7878 19.405 72.4598 19.072 72.4598 18.328V13.614H74.9708C74.9927 13.614 75.0143 13.6097 75.0345 13.6013C75.0547 13.5929 75.0731 13.5805 75.0885 13.565C75.1039 13.5495 75.1161 13.5311 75.1244 13.5108C75.1327 13.4906 75.1369 13.4689 75.1368 13.447V11.487C75.1375 11.4651 75.1337 11.4434 75.1257 11.423C75.1178 11.4026 75.1058 11.3841 75.0904 11.3685C75.0751 11.3529 75.0568 11.3405 75.0366 11.3322C75.0163 11.3239 74.9947 11.3197 74.9728 11.32L74.9688 11.318ZM83.7158 11.328V11.013C83.7158 10.086 84.0718 9.672 84.8678 9.672C85.3068 9.67719 85.7417 9.75734 86.1538 9.909C86.1789 9.91746 86.2057 9.91979 86.2318 9.91579C86.258 9.91179 86.2829 9.90158 86.3043 9.88602C86.3258 9.87046 86.3432 9.84999 86.3551 9.82632C86.367 9.80266 86.373 9.77649 86.3728 9.75V7.823C86.3732 7.78713 86.3619 7.7521 86.3406 7.72323C86.3193 7.69436 86.2892 7.67322 86.2548 7.663C85.6392 7.47505 84.9983 7.3833 84.3548 7.391C82.2488 7.391 81.1338 8.578 81.1338 10.821V11.304H80.0338C79.9896 11.3043 79.9473 11.3219 79.916 11.3532C79.8847 11.3845 79.867 11.4268 79.8668 11.471V13.442C79.867 13.4862 79.8847 13.5285 79.916 13.5598C79.9473 13.5911 79.9896 13.6087 80.0338 13.609H81.1338V21.434C81.1338 21.4783 81.1514 21.5208 81.1827 21.5521C81.214 21.5834 81.2565 21.601 81.3008 21.601H83.5808C83.6027 21.6011 83.6245 21.5969 83.6449 21.5886C83.6652 21.5802 83.6836 21.5679 83.6992 21.5524C83.7147 21.5368 83.727 21.5184 83.7353 21.4981C83.7437 21.4777 83.7479 21.456 83.7478 21.434V13.614H85.8778L89.1408 21.438C88.7708 22.259 88.4058 22.423 87.9088 22.423C87.4659 22.412 87.0331 22.2888 86.6508 22.065C86.6099 22.0445 86.5627 22.0403 86.5188 22.053C86.4968 22.0602 86.4765 22.0719 86.4593 22.0874C86.442 22.1029 86.4282 22.1218 86.4188 22.143L85.6448 23.843C85.6269 23.8815 85.6245 23.9254 85.6378 23.9658C85.6512 24.0061 85.6794 24.0398 85.7168 24.06C86.4586 24.4806 87.2991 24.696 88.1518 24.684C89.8368 24.684 90.7688 23.898 91.5878 21.784L95.5538 11.556C95.5636 11.5309 95.5673 11.5037 95.5643 11.4769C95.5614 11.4501 95.552 11.4243 95.537 11.4019C95.522 11.3795 95.5017 11.3611 95.478 11.3482C95.4543 11.3353 95.4278 11.3284 95.4008 11.328H93.0248C92.9899 11.3277 92.9558 11.3384 92.9273 11.3585C92.8988 11.3786 92.8773 11.4071 92.8658 11.44L90.4328 18.389L87.7638 11.436C87.7518 11.4046 87.7306 11.3775 87.7029 11.3584C87.6752 11.3393 87.6424 11.329 87.6088 11.329H83.7088L83.7158 11.328ZM78.6448 11.318H76.3638C76.3196 11.3183 76.2773 11.3359 76.246 11.3672C76.2147 11.3985 76.197 11.4408 76.1968 11.485V21.437C76.1968 21.4589 76.2011 21.4806 76.2095 21.5009C76.2179 21.5212 76.2302 21.5396 76.2457 21.5551C76.2612 21.5706 76.2796 21.5829 76.2999 21.5913C76.3201 21.5997 76.3419 21.604 76.3638 21.604H78.6458C78.6677 21.604 78.6894 21.5997 78.7097 21.5913C78.73 21.5829 78.7484 21.5706 78.7639 21.5551C78.7794 21.5396 78.7917 21.5212 78.8001 21.5009C78.8085 21.4806 78.8128 21.4589 78.8128 21.437V11.486C78.8128 11.4417 78.7952 11.3992 78.7639 11.3679C78.7326 11.3366 78.6901 11.319 78.6458 11.319L78.6448 11.318ZM77.5168 6.786C77.1932 6.7858 76.8769 6.88156 76.6077 7.06116C76.3386 7.24076 76.1287 7.49614 76.0047 7.79501C75.8807 8.09387 75.8481 8.4228 75.911 8.74019C75.974 9.05758 76.1296 9.34918 76.3583 9.57812C76.5869 9.80706 76.8783 9.96305 77.1956 10.0264C77.5129 10.0897 77.8419 10.0575 78.1409 9.93385C78.4399 9.81021 78.6956 9.60067 78.8755 9.33174C79.0554 9.06281 79.1516 8.74657 79.1518 8.423C79.1519 8.20816 79.1097 7.99539 79.0276 7.79685C78.9455 7.59831 78.8251 7.41789 78.6733 7.26588C78.5215 7.11387 78.3412 6.99325 78.1428 6.91092C77.9443 6.82858 77.7316 6.78613 77.5168 6.786ZM97.5028 14.523C97.1847 14.5222 96.8741 14.4272 96.6099 14.2501C96.3458 14.0729 96.1401 13.8215 96.0187 13.5275C95.8973 13.2335 95.8657 12.9102 95.9278 12.5983C95.99 12.2864 96.1432 11.9999 96.368 11.7749C96.5928 11.55 96.8792 11.3966 97.1911 11.3343C97.503 11.2719 97.8263 11.3033 98.1204 11.4245C98.4144 11.5457 98.666 11.7513 98.8433 12.0153C99.0206 12.2793 99.1158 12.59 99.1168 12.908C99.1188 13.1206 99.0784 13.3314 98.998 13.5282C98.9176 13.7249 98.7988 13.9037 98.6486 14.0541C98.4983 14.2044 98.3196 14.3233 98.1229 14.4039C97.9261 14.4844 97.7153 14.5249 97.5028 14.523ZM97.5118 11.463C97.2242 11.4602 96.9423 11.543 96.7019 11.7009C96.4615 11.8587 96.2735 12.0845 96.1617 12.3495C96.05 12.6145 96.0196 12.9067 96.0743 13.189C96.1291 13.4714 96.2666 13.731 96.4693 13.935C96.672 14.139 96.9308 14.2781 97.2128 14.3346C97.4948 14.3912 97.7872 14.3626 98.0529 14.2525C98.3186 14.1424 98.5455 13.9558 98.7048 13.7164C98.8642 13.477 98.9488 13.1956 98.9478 12.908C98.949 12.7187 98.9127 12.531 98.8411 12.3557C98.7694 12.1804 98.6638 12.0211 98.5304 11.8868C98.3969 11.7525 98.2382 11.6459 98.0634 11.5732C97.8886 11.5004 97.7011 11.463 97.5118 11.463ZM97.8678 13.073L98.3228 13.709H97.9388L97.5298 13.126H97.1788V13.709H96.8578V12.023H97.6088C98.0018 12.023 98.2588 12.223 98.2588 12.561C98.2645 12.6785 98.2286 12.7942 98.1575 12.8878C98.0864 12.9815 97.9845 13.047 97.8698 13.073H97.8678ZM97.5968 12.313H97.1788V12.846H97.5968C97.8048 12.846 97.9298 12.746 97.9298 12.579C97.9298 12.412 97.8038 12.308 97.5958 12.308L97.5968 12.313Z" fill="white"/>
</g>
<defs>
<clipPath id="clip0_40_3758">
<rect width="98.4" height="29.512" fill="white" transform="translate(0.716797)"/>
</clipPath>
</defs>
</svg>
