<svg width="169" height="49" viewBox="0 0 169 49" fill="none" xmlns="http://www.w3.org/2000/svg">
<g clip-path="url(#clip0_1_135)">
<path fill-rule="evenodd" clip-rule="evenodd" d="M45.3314 10.6768L31.0853 38.5262H17.7042L23.6662 26.9842H23.3988C18.4802 33.3691 11.1416 37.5724 0.685181 38.5262V27.144C0.685181 27.144 7.37438 26.7489 11.3068 22.6145H0.685181V10.677H12.6227V20.4954L12.8906 20.4943L17.7687 10.677H26.7968V20.4332L27.0647 20.4327L32.1258 10.6768H45.3314Z" fill="#40513B"/>
<path d="M123.016 35.4522H126.86V13.3843H123.016V35.4522ZM101.821 35.2268C102.657 35.5742 103.506 35.7478 104.37 35.7478C105.797 35.7478 107.074 35.4005 108.201 34.7058C109.327 34.011 110.2 33.0533 110.82 31.8329C111.44 30.6029 111.75 29.2088 111.75 27.6502C111.75 26.0917 111.43 24.6975 110.792 23.4676C110.154 22.2377 109.266 21.2848 108.13 20.6088C106.994 19.9234 105.703 19.5854 104.258 19.5948C103.338 19.5948 102.455 19.7732 101.61 20.13C100.765 20.4867 100.061 20.9937 99.4975 21.6509C99.4541 21.701 99.4118 21.7515 99.3708 21.8025V13.3984H95.5121V35.4522H99.3427L99.3349 33.3919C99.4341 33.5134 99.5399 33.632 99.6525 33.748C100.263 34.3772 100.986 34.8701 101.821 35.2268ZM105.764 31.6638C105.135 32.0487 104.417 32.2413 103.61 32.2413C102.812 32.2413 102.079 32.0441 101.413 31.6497C100.746 31.246 100.216 30.6968 99.8215 30.0021C99.4366 29.3073 99.2441 28.5187 99.2441 27.6362C99.2347 26.7536 99.4225 25.965 99.8074 25.2702C100.202 24.5661 100.732 24.0215 101.399 23.6366C102.065 23.2423 102.802 23.0498 103.61 23.0592C104.417 23.0498 105.135 23.2376 105.764 23.6225C106.403 23.9981 106.891 24.5379 107.229 25.242C107.576 25.9368 107.75 26.7349 107.75 27.6362C107.75 28.5374 107.576 29.3355 107.229 30.0302C106.891 30.725 106.403 31.2695 105.764 31.6638ZM50.9013 14.7222H55.2951L59.2256 29.0764L63.4069 14.7222H67.0684L71.6032 28.7883L75.3773 14.7222H79.405L73.462 35.4522H69.6737L65.0626 21.7106L60.8297 35.4522H56.9991L50.9013 14.7222ZM85.8935 35.8183C84.3631 35.8276 82.9831 35.4896 81.7531 34.8043C80.5327 34.1096 79.5703 33.1472 78.8662 31.9174C78.1714 30.6874 77.824 29.2838 77.824 27.7065C77.824 26.1763 78.1809 24.7914 78.8943 23.5521C79.6078 22.3128 80.5749 21.3458 81.7953 20.651C83.0159 19.9563 84.3772 19.6089 85.8795 19.6089C87.5694 19.6089 89.0481 19.9844 90.3155 20.7355C91.5924 21.4866 92.5453 22.5522 93.1743 23.9323C93.8128 25.3031 94.0428 26.8757 93.8644 28.65H81.8014C81.8351 29.357 82.0114 30.0002 82.3306 30.5794C82.6873 31.2178 83.185 31.7155 83.8232 32.0722C84.4617 32.4289 85.1753 32.6073 85.9639 32.6073C86.5648 32.598 87.1234 32.4947 87.6398 32.2976C88.1561 32.0911 88.5927 31.814 88.9496 31.4667C89.3156 31.1193 89.5738 30.725 89.724 30.2838H93.7518C93.5077 31.3634 93.0195 32.3258 92.2871 33.1707C91.5548 34.0062 90.6347 34.6587 89.5269 35.1282C88.419 35.5976 87.2078 35.8276 85.8935 35.8183ZM82.3447 24.7773C82.1196 25.1697 81.9638 25.5922 81.877 26.0448H89.8733C89.8152 25.4729 89.6387 24.9519 89.3437 24.4816C89.0059 23.9277 88.5458 23.5005 87.9637 23.2C87.3816 22.8902 86.7244 22.7353 85.9921 22.7353C85.2129 22.7353 84.5041 22.9137 83.8656 23.2704C83.2272 23.6272 82.7201 24.1295 82.3447 24.7773ZM114.58 19.9328C114.58 18.6747 114.867 17.5575 115.439 16.5811C116.012 15.5953 116.815 14.8301 117.848 14.2856C118.89 13.7316 120.106 13.4453 121.495 13.4265V16.8487C120.847 16.858 120.293 16.9942 119.833 17.2571C119.383 17.5105 119.035 17.8814 118.791 18.3696C118.566 18.8191 118.445 19.3401 118.427 19.9328H121.411V23.1859H118.425V35.4522H114.58V23.1859H112.102V19.9328H114.58ZM136.634 35.7902C135.066 35.7902 133.662 35.4474 132.423 34.7621C131.193 34.0673 130.226 33.1096 129.522 31.8892C128.827 30.6592 128.48 29.2651 128.48 27.7065C128.48 26.1387 128.827 24.7398 129.522 23.5099C130.226 22.2706 131.193 21.3082 132.423 20.6229C133.662 19.9375 135.066 19.5948 136.634 19.5948C138.211 19.5948 139.62 19.9375 140.859 20.6229C142.108 21.3082 143.079 22.2659 143.774 23.4958C144.469 24.7257 144.821 26.1293 144.83 27.7065C144.821 29.2651 144.469 30.6592 143.774 31.8892C143.089 33.1096 142.122 34.0673 140.873 34.7621C139.624 35.4474 138.211 35.7902 136.634 35.7902ZM136.634 32.2554C137.46 32.2554 138.192 32.0676 138.831 31.692C139.469 31.3071 139.962 30.7718 140.309 30.0865C140.657 29.3918 140.831 28.5985 140.831 27.7065C140.831 26.8053 140.657 26.0072 140.309 25.3125C139.962 24.6177 139.469 24.0826 138.831 23.707C138.192 23.3221 137.46 23.1296 136.634 23.1296C135.817 23.1296 135.09 23.3221 134.451 23.707C133.822 24.0826 133.334 24.6177 132.986 25.3125C132.639 26.0072 132.47 26.8053 132.48 27.7065C132.48 28.5985 132.653 29.3918 133.001 30.0865C133.357 30.7718 133.846 31.3071 134.465 31.692C135.094 32.0676 135.817 32.2554 136.634 32.2554ZM148.985 19.9328H144.703L149.337 35.4522H153.083L156.13 25.54L159.42 35.4522H163.11L167.757 19.9328H163.885L161.249 29.5926L158.336 19.9328H154.59L151.69 29.8055L148.985 19.9328Z" fill="#40513B"/>
<path fill-rule="evenodd" clip-rule="evenodd" d="M123.016 35.4522H126.86V13.3843H123.016V35.4522ZM101.821 35.2268C102.657 35.5742 103.506 35.7478 104.37 35.7478C105.797 35.7478 107.074 35.4005 108.201 34.7058C109.327 34.011 110.2 33.0533 110.82 31.8329C111.44 30.6029 111.75 29.2088 111.75 27.6502C111.75 26.0917 111.43 24.6975 110.792 23.4676C110.154 22.2377 109.266 21.2848 108.13 20.6088C106.994 19.9234 105.703 19.5854 104.258 19.5948C103.338 19.5948 102.455 19.7732 101.61 20.13C100.765 20.4867 100.061 20.9937 99.4975 21.6509C99.4541 21.701 99.4118 21.7515 99.3708 21.8025V13.3984H95.5121V35.4522H99.3427L99.3349 33.3919C99.4341 33.5134 99.5399 33.632 99.6525 33.748C100.263 34.3772 100.986 34.8701 101.821 35.2268ZM105.764 31.6638C105.135 32.0487 104.417 32.2413 103.61 32.2413C102.812 32.2413 102.079 32.0441 101.413 31.6497C100.746 31.246 100.216 30.6968 99.8215 30.0021C99.4366 29.3073 99.2441 28.5187 99.2441 27.6362C99.2347 26.7536 99.4225 25.965 99.8074 25.2702C100.202 24.5661 100.732 24.0215 101.399 23.6366C102.065 23.2423 102.802 23.0498 103.61 23.0592C104.417 23.0498 105.135 23.2376 105.764 23.6225C106.403 23.9981 106.891 24.5379 107.229 25.242C107.576 25.9368 107.75 26.7349 107.75 27.6362C107.75 28.5374 107.576 29.3355 107.229 30.0302C106.891 30.725 106.403 31.2695 105.764 31.6638ZM50.9013 14.7222H55.2951L59.2256 29.0764L63.4069 14.7222H67.0684L71.6032 28.7883L75.3773 14.7222H79.405L73.462 35.4522H69.6737L65.0626 21.7106L60.8297 35.4522H56.9991L50.9013 14.7222ZM85.8935 35.8183C84.3631 35.8276 82.9831 35.4896 81.7531 34.8043C80.5327 34.1096 79.5703 33.1472 78.8662 31.9174C78.1714 30.6874 77.824 29.2838 77.824 27.7065C77.824 26.1763 78.1809 24.7914 78.8943 23.5521C79.6078 22.3128 80.5749 21.3458 81.7953 20.651C83.0159 19.9563 84.3772 19.6089 85.8795 19.6089C87.5694 19.6089 89.0481 19.9844 90.3155 20.7355C91.5924 21.4866 92.5453 22.5522 93.1743 23.9323C93.8128 25.3031 94.0428 26.8757 93.8644 28.65H81.8014C81.8351 29.357 82.0114 30.0002 82.3306 30.5794C82.6873 31.2178 83.185 31.7155 83.8232 32.0722C84.4617 32.4289 85.1753 32.6073 85.9639 32.6073C86.5648 32.598 87.1234 32.4947 87.6398 32.2976C88.1561 32.0911 88.5927 31.814 88.9496 31.4667C89.3156 31.1193 89.5738 30.725 89.724 30.2838H93.7518C93.5077 31.3634 93.0195 32.3258 92.2871 33.1707C91.5548 34.0062 90.6347 34.6587 89.5269 35.1282C88.419 35.5976 87.2078 35.8276 85.8935 35.8183ZM82.3447 24.7773C82.1196 25.1697 81.9638 25.5922 81.877 26.0448H89.8733C89.8152 25.4729 89.6387 24.9519 89.3437 24.4816C89.0059 23.9277 88.5458 23.5005 87.9637 23.2C87.3816 22.8902 86.7244 22.7353 85.9921 22.7353C85.2129 22.7353 84.5041 22.9137 83.8656 23.2704C83.2272 23.6272 82.7201 24.1295 82.3447 24.7773ZM114.58 19.9328C114.58 18.6747 114.867 17.5575 115.439 16.5811C116.012 15.5953 116.815 14.8301 117.848 14.2856C118.89 13.7316 120.106 13.4453 121.495 13.4265V16.8487C120.847 16.858 120.293 16.9942 119.833 17.2571C119.383 17.5105 119.035 17.8814 118.791 18.3696C118.566 18.8191 118.445 19.3401 118.427 19.9328H121.411V23.1859H118.425V35.4522H114.58V23.1859H112.102V19.9328H114.58ZM136.634 35.7902C135.066 35.7902 133.662 35.4474 132.423 34.7621C131.193 34.0673 130.226 33.1096 129.522 31.8892C128.827 30.6592 128.48 29.2651 128.48 27.7065C128.48 26.1387 128.827 24.7398 129.522 23.5099C130.226 22.2706 131.193 21.3082 132.423 20.6229C133.662 19.9375 135.066 19.5948 136.634 19.5948C138.211 19.5948 139.62 19.9375 140.859 20.6229C142.108 21.3082 143.079 22.2659 143.774 23.4958C144.469 24.7257 144.821 26.1293 144.83 27.7065C144.821 29.2651 144.469 30.6592 143.774 31.8892C143.089 33.1096 142.122 34.0673 140.873 34.7621C139.624 35.4474 138.211 35.7902 136.634 35.7902ZM136.634 32.2554C137.46 32.2554 138.192 32.0676 138.831 31.692C139.469 31.3071 139.962 30.7718 140.309 30.0865C140.657 29.3918 140.831 28.5985 140.831 27.7065C140.831 26.8053 140.657 26.0072 140.309 25.3125C139.962 24.6177 139.469 24.0826 138.831 23.707C138.192 23.3221 137.46 23.1296 136.634 23.1296C135.817 23.1296 135.09 23.3221 134.451 23.707C133.822 24.0826 133.334 24.6177 132.986 25.3125C132.639 26.0072 132.47 26.8053 132.48 27.7065C132.48 28.5985 132.653 29.3918 133.001 30.0865C133.357 30.7718 133.846 31.3071 134.465 31.692C135.094 32.0676 135.817 32.2554 136.634 32.2554ZM148.985 19.9328H144.703L149.337 35.4522H153.083L156.13 25.54L159.42 35.4522H163.11L167.757 19.9328H163.885L161.249 29.5926L158.336 19.9328H154.59L151.69 29.8055L148.985 19.9328Z" fill="#40513B"/>
<path d="M123.016 35.4522H126.86V13.3843H123.016V35.4522ZM101.821 35.2268C102.657 35.5742 103.506 35.7478 104.37 35.7478C105.797 35.7478 107.074 35.4005 108.201 34.7058C109.327 34.011 110.2 33.0533 110.82 31.8329C111.44 30.6029 111.75 29.2088 111.75 27.6502C111.75 26.0917 111.43 24.6975 110.792 23.4676C110.154 22.2377 109.266 21.2848 108.13 20.6088C106.994 19.9234 105.703 19.5854 104.258 19.5948C103.338 19.5948 102.455 19.7732 101.61 20.13C100.765 20.4867 100.061 20.9937 99.4975 21.6509C99.4541 21.701 99.4118 21.7515 99.3708 21.8025V13.3984H95.5121V35.4522H99.3427L99.3349 33.3919C99.4341 33.5134 99.5399 33.632 99.6525 33.748C100.263 34.3772 100.986 34.8701 101.821 35.2268ZM105.764 31.6638C105.135 32.0487 104.417 32.2413 103.61 32.2413C102.812 32.2413 102.079 32.0441 101.413 31.6497C100.746 31.246 100.216 30.6968 99.8215 30.0021C99.4366 29.3073 99.2441 28.5187 99.2441 27.6362C99.2347 26.7536 99.4225 25.965 99.8074 25.2702C100.202 24.5661 100.732 24.0215 101.399 23.6366C102.065 23.2423 102.802 23.0498 103.61 23.0592C104.417 23.0498 105.135 23.2376 105.764 23.6225C106.403 23.9981 106.891 24.5379 107.229 25.242C107.576 25.9368 107.75 26.7349 107.75 27.6362C107.75 28.5374 107.576 29.3355 107.229 30.0302C106.891 30.725 106.403 31.2695 105.764 31.6638ZM50.9013 14.7222H55.2951L59.2256 29.0764L63.4069 14.7222H67.0684L71.6032 28.7883L75.3773 14.7222H79.405L73.462 35.4522H69.6737L65.0626 21.7106L60.8297 35.4522H56.9991L50.9013 14.7222ZM85.8935 35.8183C84.3631 35.8276 82.9831 35.4896 81.7531 34.8043C80.5327 34.1096 79.5703 33.1472 78.8662 31.9174C78.1714 30.6874 77.824 29.2838 77.824 27.7065C77.824 26.1763 78.1809 24.7914 78.8943 23.5521C79.6078 22.3128 80.5749 21.3458 81.7953 20.651C83.0159 19.9563 84.3772 19.6089 85.8795 19.6089C87.5694 19.6089 89.0481 19.9844 90.3155 20.7355C91.5924 21.4866 92.5453 22.5522 93.1743 23.9323C93.8128 25.3031 94.0428 26.8757 93.8644 28.65H81.8014C81.8351 29.357 82.0114 30.0002 82.3306 30.5794C82.6873 31.2178 83.185 31.7155 83.8232 32.0722C84.4617 32.4289 85.1753 32.6073 85.9639 32.6073C86.5648 32.598 87.1234 32.4947 87.6398 32.2976C88.1561 32.0911 88.5927 31.814 88.9496 31.4667C89.3156 31.1193 89.5738 30.725 89.724 30.2838H93.7518C93.5077 31.3634 93.0195 32.3258 92.2871 33.1707C91.5548 34.0062 90.6347 34.6587 89.5269 35.1282C88.419 35.5976 87.2078 35.8276 85.8935 35.8183ZM82.3447 24.7773C82.1196 25.1697 81.9638 25.5922 81.877 26.0448H89.8733C89.8152 25.4729 89.6387 24.9519 89.3437 24.4816C89.0059 23.9277 88.5458 23.5005 87.9637 23.2C87.3816 22.8902 86.7244 22.7353 85.9921 22.7353C85.2129 22.7353 84.5041 22.9137 83.8656 23.2704C83.2272 23.6272 82.7201 24.1295 82.3447 24.7773ZM114.58 19.9328C114.58 18.6747 114.867 17.5575 115.439 16.5811C116.012 15.5953 116.815 14.8301 117.848 14.2856C118.89 13.7316 120.106 13.4453 121.495 13.4265V16.8487C120.847 16.858 120.293 16.9942 119.833 17.2571C119.383 17.5105 119.035 17.8814 118.791 18.3696C118.566 18.8191 118.445 19.3401 118.427 19.9328H121.411V23.1859H118.425V35.4522H114.58V23.1859H112.102V19.9328H114.58ZM136.634 35.7902C135.066 35.7902 133.662 35.4474 132.423 34.7621C131.193 34.0673 130.226 33.1096 129.522 31.8892C128.827 30.6592 128.48 29.2651 128.48 27.7065C128.48 26.1387 128.827 24.7398 129.522 23.5099C130.226 22.2706 131.193 21.3082 132.423 20.6229C133.662 19.9375 135.066 19.5948 136.634 19.5948C138.211 19.5948 139.62 19.9375 140.859 20.6229C142.108 21.3082 143.079 22.2659 143.774 23.4958C144.469 24.7257 144.821 26.1293 144.83 27.7065C144.821 29.2651 144.469 30.6592 143.774 31.8892C143.089 33.1096 142.122 34.0673 140.873 34.7621C139.624 35.4474 138.211 35.7902 136.634 35.7902ZM136.634 32.2554C137.46 32.2554 138.192 32.0676 138.831 31.692C139.469 31.3071 139.962 30.7718 140.309 30.0865C140.657 29.3918 140.831 28.5985 140.831 27.7065C140.831 26.8053 140.657 26.0072 140.309 25.3125C139.962 24.6177 139.469 24.0826 138.831 23.707C138.192 23.3221 137.46 23.1296 136.634 23.1296C135.817 23.1296 135.09 23.3221 134.451 23.707C133.822 24.0826 133.334 24.6177 132.986 25.3125C132.639 26.0072 132.47 26.8053 132.48 27.7065C132.48 28.5985 132.653 29.3918 133.001 30.0865C133.357 30.7718 133.846 31.3071 134.465 31.692C135.094 32.0676 135.817 32.2554 136.634 32.2554ZM148.985 19.9328H144.703L149.337 35.4522H153.083L156.13 25.54L159.42 35.4522H163.11L167.757 19.9328H163.885L161.249 29.5926L158.336 19.9328H154.59L151.69 29.8055L148.985 19.9328Z" fill="#40513B"/>
<path fill-rule="evenodd" clip-rule="evenodd" d="M123.016 35.4522H126.86V13.3843H123.016V35.4522ZM101.821 35.2268C102.657 35.5742 103.506 35.7478 104.37 35.7478C105.797 35.7478 107.074 35.4005 108.201 34.7058C109.327 34.011 110.2 33.0533 110.82 31.8329C111.44 30.6029 111.75 29.2088 111.75 27.6502C111.75 26.0917 111.43 24.6975 110.792 23.4676C110.154 22.2377 109.266 21.2848 108.13 20.6088C106.994 19.9234 105.703 19.5854 104.258 19.5948C103.338 19.5948 102.455 19.7732 101.61 20.13C100.765 20.4867 100.061 20.9937 99.4975 21.6509C99.4541 21.701 99.4118 21.7515 99.3708 21.8025V13.3984H95.5121V35.4522H99.3427L99.3349 33.3919C99.4341 33.5134 99.5399 33.632 99.6525 33.748C100.263 34.3772 100.986 34.8701 101.821 35.2268ZM105.764 31.6638C105.135 32.0487 104.417 32.2413 103.61 32.2413C102.812 32.2413 102.079 32.0441 101.413 31.6497C100.746 31.246 100.216 30.6968 99.8215 30.0021C99.4366 29.3073 99.2441 28.5187 99.2441 27.6362C99.2347 26.7536 99.4225 25.965 99.8074 25.2702C100.202 24.5661 100.732 24.0215 101.399 23.6366C102.065 23.2423 102.802 23.0498 103.61 23.0592C104.417 23.0498 105.135 23.2376 105.764 23.6225C106.403 23.9981 106.891 24.5379 107.229 25.242C107.576 25.9368 107.75 26.7349 107.75 27.6362C107.75 28.5374 107.576 29.3355 107.229 30.0302C106.891 30.725 106.403 31.2695 105.764 31.6638ZM50.9013 14.7222H55.2951L59.2256 29.0764L63.4069 14.7222H67.0684L71.6032 28.7883L75.3773 14.7222H79.405L73.462 35.4522H69.6737L65.0626 21.7106L60.8297 35.4522H56.9991L50.9013 14.7222ZM85.8935 35.8183C84.3631 35.8276 82.9831 35.4896 81.7531 34.8043C80.5327 34.1096 79.5703 33.1472 78.8662 31.9174C78.1714 30.6874 77.824 29.2838 77.824 27.7065C77.824 26.1763 78.1809 24.7914 78.8943 23.5521C79.6078 22.3128 80.5749 21.3458 81.7953 20.651C83.0159 19.9563 84.3772 19.6089 85.8795 19.6089C87.5694 19.6089 89.0481 19.9844 90.3155 20.7355C91.5924 21.4866 92.5453 22.5522 93.1743 23.9323C93.8128 25.3031 94.0428 26.8757 93.8644 28.65H81.8014C81.8351 29.357 82.0114 30.0002 82.3306 30.5794C82.6873 31.2178 83.185 31.7155 83.8232 32.0722C84.4617 32.4289 85.1753 32.6073 85.9639 32.6073C86.5648 32.598 87.1234 32.4947 87.6398 32.2976C88.1561 32.0911 88.5927 31.814 88.9496 31.4667C89.3156 31.1193 89.5738 30.725 89.724 30.2838H93.7518C93.5077 31.3634 93.0195 32.3258 92.2871 33.1707C91.5548 34.0062 90.6347 34.6587 89.5269 35.1282C88.419 35.5976 87.2078 35.8276 85.8935 35.8183ZM82.3447 24.7773C82.1196 25.1697 81.9638 25.5922 81.877 26.0448H89.8733C89.8152 25.4729 89.6387 24.9519 89.3437 24.4816C89.0059 23.9277 88.5458 23.5005 87.9637 23.2C87.3816 22.8902 86.7244 22.7353 85.9921 22.7353C85.2129 22.7353 84.5041 22.9137 83.8656 23.2704C83.2272 23.6272 82.7201 24.1295 82.3447 24.7773ZM114.58 19.9328C114.58 18.6747 114.867 17.5575 115.439 16.5811C116.012 15.5953 116.815 14.8301 117.848 14.2856C118.89 13.7316 120.106 13.4453 121.495 13.4265V16.8487C120.847 16.858 120.293 16.9942 119.833 17.2571C119.383 17.5105 119.035 17.8814 118.791 18.3696C118.566 18.8191 118.445 19.3401 118.427 19.9328H121.411V23.1859H118.425V35.4522H114.58V23.1859H112.102V19.9328H114.58ZM136.634 35.7902C135.066 35.7902 133.662 35.4474 132.423 34.7621C131.193 34.0673 130.226 33.1096 129.522 31.8892C128.827 30.6592 128.48 29.2651 128.48 27.7065C128.48 26.1387 128.827 24.7398 129.522 23.5099C130.226 22.2706 131.193 21.3082 132.423 20.6229C133.662 19.9375 135.066 19.5948 136.634 19.5948C138.211 19.5948 139.62 19.9375 140.859 20.6229C142.108 21.3082 143.079 22.2659 143.774 23.4958C144.469 24.7257 144.821 26.1293 144.83 27.7065C144.821 29.2651 144.469 30.6592 143.774 31.8892C143.089 33.1096 142.122 34.0673 140.873 34.7621C139.624 35.4474 138.211 35.7902 136.634 35.7902ZM136.634 32.2554C137.46 32.2554 138.192 32.0676 138.831 31.692C139.469 31.3071 139.962 30.7718 140.309 30.0865C140.657 29.3918 140.831 28.5985 140.831 27.7065C140.831 26.8053 140.657 26.0072 140.309 25.3125C139.962 24.6177 139.469 24.0826 138.831 23.707C138.192 23.3221 137.46 23.1296 136.634 23.1296C135.817 23.1296 135.09 23.3221 134.451 23.707C133.822 24.0826 133.334 24.6177 132.986 25.3125C132.639 26.0072 132.47 26.8053 132.48 27.7065C132.48 28.5985 132.653 29.3918 133.001 30.0865C133.357 30.7718 133.846 31.3071 134.465 31.692C135.094 32.0676 135.817 32.2554 136.634 32.2554ZM148.985 19.9328H144.703L149.337 35.4522H153.083L156.13 25.54L159.42 35.4522H163.11L167.757 19.9328H163.885L161.249 29.5926L158.336 19.9328H154.59L151.69 29.8055L148.985 19.9328Z" fill="#40513B"/>
<path d="M123.016 35.4522H126.86V13.3843H123.016V35.4522ZM101.821 35.2268C102.657 35.5742 103.506 35.7478 104.37 35.7478C105.797 35.7478 107.074 35.4005 108.201 34.7058C109.327 34.011 110.2 33.0533 110.82 31.8329C111.44 30.6029 111.75 29.2088 111.75 27.6502C111.75 26.0917 111.43 24.6975 110.792 23.4676C110.154 22.2377 109.266 21.2848 108.13 20.6088C106.994 19.9234 105.703 19.5854 104.258 19.5948C103.338 19.5948 102.455 19.7732 101.61 20.13C100.765 20.4867 100.061 20.9937 99.4975 21.6509C99.4541 21.701 99.4118 21.7515 99.3708 21.8025V13.3984H95.5121V35.4522H99.3427L99.3349 33.3919C99.4341 33.5134 99.5399 33.632 99.6525 33.748C100.263 34.3772 100.986 34.8701 101.821 35.2268ZM105.764 31.6638C105.135 32.0487 104.417 32.2413 103.61 32.2413C102.812 32.2413 102.079 32.0441 101.413 31.6497C100.746 31.246 100.216 30.6968 99.8215 30.0021C99.4366 29.3073 99.2441 28.5187 99.2441 27.6362C99.2347 26.7536 99.4225 25.965 99.8074 25.2702C100.202 24.5661 100.732 24.0215 101.399 23.6366C102.065 23.2423 102.802 23.0498 103.61 23.0592C104.417 23.0498 105.135 23.2376 105.764 23.6225C106.403 23.9981 106.891 24.5379 107.229 25.242C107.576 25.9368 107.75 26.7349 107.75 27.6362C107.75 28.5374 107.576 29.3355 107.229 30.0302C106.891 30.725 106.403 31.2695 105.764 31.6638ZM50.9013 14.7222H55.2951L59.2256 29.0764L63.4069 14.7222H67.0684L71.6032 28.7883L75.3773 14.7222H79.405L73.462 35.4522H69.6737L65.0626 21.7106L60.8297 35.4522H56.9991L50.9013 14.7222ZM85.8935 35.8183C84.3631 35.8276 82.9831 35.4896 81.7531 34.8043C80.5327 34.1096 79.5703 33.1472 78.8662 31.9174C78.1714 30.6874 77.824 29.2838 77.824 27.7065C77.824 26.1763 78.1809 24.7914 78.8943 23.5521C79.6078 22.3128 80.5749 21.3458 81.7953 20.651C83.0159 19.9563 84.3772 19.6089 85.8795 19.6089C87.5694 19.6089 89.0481 19.9844 90.3155 20.7355C91.5924 21.4866 92.5453 22.5522 93.1743 23.9323C93.8128 25.3031 94.0428 26.8757 93.8644 28.65H81.8014C81.8351 29.357 82.0114 30.0002 82.3306 30.5794C82.6873 31.2178 83.185 31.7155 83.8232 32.0722C84.4617 32.4289 85.1753 32.6073 85.9639 32.6073C86.5648 32.598 87.1234 32.4947 87.6398 32.2976C88.1561 32.0911 88.5927 31.814 88.9496 31.4667C89.3156 31.1193 89.5738 30.725 89.724 30.2838H93.7518C93.5077 31.3634 93.0195 32.3258 92.2871 33.1707C91.5548 34.0062 90.6347 34.6587 89.5269 35.1282C88.419 35.5976 87.2078 35.8276 85.8935 35.8183ZM82.3447 24.7773C82.1196 25.1697 81.9638 25.5922 81.877 26.0448H89.8733C89.8152 25.4729 89.6387 24.9519 89.3437 24.4816C89.0059 23.9277 88.5458 23.5005 87.9637 23.2C87.3816 22.8902 86.7244 22.7353 85.9921 22.7353C85.2129 22.7353 84.5041 22.9137 83.8656 23.2704C83.2272 23.6272 82.7201 24.1295 82.3447 24.7773ZM114.58 19.9328C114.58 18.6747 114.867 17.5575 115.439 16.5811C116.012 15.5953 116.815 14.8301 117.848 14.2856C118.89 13.7316 120.106 13.4453 121.495 13.4265V16.8487C120.847 16.858 120.293 16.9942 119.833 17.2571C119.383 17.5105 119.035 17.8814 118.791 18.3696C118.566 18.8191 118.445 19.3401 118.427 19.9328H121.411V23.1859H118.425V35.4522H114.58V23.1859H112.102V19.9328H114.58ZM136.634 35.7902C135.066 35.7902 133.662 35.4474 132.423 34.7621C131.193 34.0673 130.226 33.1096 129.522 31.8892C128.827 30.6592 128.48 29.2651 128.48 27.7065C128.48 26.1387 128.827 24.7398 129.522 23.5099C130.226 22.2706 131.193 21.3082 132.423 20.6229C133.662 19.9375 135.066 19.5948 136.634 19.5948C138.211 19.5948 139.62 19.9375 140.859 20.6229C142.108 21.3082 143.079 22.2659 143.774 23.4958C144.469 24.7257 144.821 26.1293 144.83 27.7065C144.821 29.2651 144.469 30.6592 143.774 31.8892C143.089 33.1096 142.122 34.0673 140.873 34.7621C139.624 35.4474 138.211 35.7902 136.634 35.7902ZM136.634 32.2554C137.46 32.2554 138.192 32.0676 138.831 31.692C139.469 31.3071 139.962 30.7718 140.309 30.0865C140.657 29.3918 140.831 28.5985 140.831 27.7065C140.831 26.8053 140.657 26.0072 140.309 25.3125C139.962 24.6177 139.469 24.0826 138.831 23.707C138.192 23.3221 137.46 23.1296 136.634 23.1296C135.817 23.1296 135.09 23.3221 134.451 23.707C133.822 24.0826 133.334 24.6177 132.986 25.3125C132.639 26.0072 132.47 26.8053 132.48 27.7065C132.48 28.5985 132.653 29.3918 133.001 30.0865C133.357 30.7718 133.846 31.3071 134.465 31.692C135.094 32.0676 135.817 32.2554 136.634 32.2554ZM148.985 19.9328H144.703L149.337 35.4522H153.083L156.13 25.54L159.42 35.4522H163.11L167.757 19.9328H163.885L161.249 29.5926L158.336 19.9328H154.59L151.69 29.8055L148.985 19.9328Z" fill="#40513B"/>
<path fill-rule="evenodd" clip-rule="evenodd" d="M123.016 35.4522H126.86V13.3843H123.016V35.4522ZM101.821 35.2268C102.657 35.5742 103.506 35.7478 104.37 35.7478C105.797 35.7478 107.074 35.4005 108.201 34.7058C109.327 34.011 110.2 33.0533 110.82 31.8329C111.44 30.6029 111.75 29.2088 111.75 27.6502C111.75 26.0917 111.43 24.6975 110.792 23.4676C110.154 22.2377 109.266 21.2848 108.13 20.6088C106.994 19.9234 105.703 19.5854 104.258 19.5948C103.338 19.5948 102.455 19.7732 101.61 20.13C100.765 20.4867 100.061 20.9937 99.4975 21.6509C99.4541 21.701 99.4118 21.7515 99.3708 21.8025V13.3984H95.5121V35.4522H99.3427L99.3349 33.3919C99.4341 33.5134 99.5399 33.632 99.6525 33.748C100.263 34.3772 100.986 34.8701 101.821 35.2268ZM105.764 31.6638C105.135 32.0487 104.417 32.2413 103.61 32.2413C102.812 32.2413 102.079 32.0441 101.413 31.6497C100.746 31.246 100.216 30.6968 99.8215 30.0021C99.4366 29.3073 99.2441 28.5187 99.2441 27.6362C99.2347 26.7536 99.4225 25.965 99.8074 25.2702C100.202 24.5661 100.732 24.0215 101.399 23.6366C102.065 23.2423 102.802 23.0498 103.61 23.0592C104.417 23.0498 105.135 23.2376 105.764 23.6225C106.403 23.9981 106.891 24.5379 107.229 25.242C107.576 25.9368 107.75 26.7349 107.75 27.6362C107.75 28.5374 107.576 29.3355 107.229 30.0302C106.891 30.725 106.403 31.2695 105.764 31.6638ZM50.9013 14.7222H55.2951L59.2256 29.0764L63.4069 14.7222H67.0684L71.6032 28.7883L75.3773 14.7222H79.405L73.462 35.4522H69.6737L65.0626 21.7106L60.8297 35.4522H56.9991L50.9013 14.7222ZM85.8935 35.8183C84.3631 35.8276 82.9831 35.4896 81.7531 34.8043C80.5327 34.1096 79.5703 33.1472 78.8662 31.9174C78.1714 30.6874 77.824 29.2838 77.824 27.7065C77.824 26.1763 78.1809 24.7914 78.8943 23.5521C79.6078 22.3128 80.5749 21.3458 81.7953 20.651C83.0159 19.9563 84.3772 19.6089 85.8795 19.6089C87.5694 19.6089 89.0481 19.9844 90.3155 20.7355C91.5924 21.4866 92.5453 22.5522 93.1743 23.9323C93.8128 25.3031 94.0428 26.8757 93.8644 28.65H81.8014C81.8351 29.357 82.0114 30.0002 82.3306 30.5794C82.6873 31.2178 83.185 31.7155 83.8232 32.0722C84.4617 32.4289 85.1753 32.6073 85.9639 32.6073C86.5648 32.598 87.1234 32.4947 87.6398 32.2976C88.1561 32.0911 88.5927 31.814 88.9496 31.4667C89.3156 31.1193 89.5738 30.725 89.724 30.2838H93.7518C93.5077 31.3634 93.0195 32.3258 92.2871 33.1707C91.5548 34.0062 90.6347 34.6587 89.5269 35.1282C88.419 35.5976 87.2078 35.8276 85.8935 35.8183ZM82.3447 24.7773C82.1196 25.1697 81.9638 25.5922 81.877 26.0448H89.8733C89.8152 25.4729 89.6387 24.9519 89.3437 24.4816C89.0059 23.9277 88.5458 23.5005 87.9637 23.2C87.3816 22.8902 86.7244 22.7353 85.9921 22.7353C85.2129 22.7353 84.5041 22.9137 83.8656 23.2704C83.2272 23.6272 82.7201 24.1295 82.3447 24.7773ZM114.58 19.9328C114.58 18.6747 114.867 17.5575 115.439 16.5811C116.012 15.5953 116.815 14.8301 117.848 14.2856C118.89 13.7316 120.106 13.4453 121.495 13.4265V16.8487C120.847 16.858 120.293 16.9942 119.833 17.2571C119.383 17.5105 119.035 17.8814 118.791 18.3696C118.566 18.8191 118.445 19.3401 118.427 19.9328H121.411V23.1859H118.425V35.4522H114.58V23.1859H112.102V19.9328H114.58ZM136.634 35.7902C135.066 35.7902 133.662 35.4474 132.423 34.7621C131.193 34.0673 130.226 33.1096 129.522 31.8892C128.827 30.6592 128.48 29.2651 128.48 27.7065C128.48 26.1387 128.827 24.7398 129.522 23.5099C130.226 22.2706 131.193 21.3082 132.423 20.6229C133.662 19.9375 135.066 19.5948 136.634 19.5948C138.211 19.5948 139.62 19.9375 140.859 20.6229C142.108 21.3082 143.079 22.2659 143.774 23.4958C144.469 24.7257 144.821 26.1293 144.83 27.7065C144.821 29.2651 144.469 30.6592 143.774 31.8892C143.089 33.1096 142.122 34.0673 140.873 34.7621C139.624 35.4474 138.211 35.7902 136.634 35.7902ZM136.634 32.2554C137.46 32.2554 138.192 32.0676 138.831 31.692C139.469 31.3071 139.962 30.7718 140.309 30.0865C140.657 29.3918 140.831 28.5985 140.831 27.7065C140.831 26.8053 140.657 26.0072 140.309 25.3125C139.962 24.6177 139.469 24.0826 138.831 23.707C138.192 23.3221 137.46 23.1296 136.634 23.1296C135.817 23.1296 135.09 23.3221 134.451 23.707C133.822 24.0826 133.334 24.6177 132.986 25.3125C132.639 26.0072 132.47 26.8053 132.48 27.7065C132.48 28.5985 132.653 29.3918 133.001 30.0865C133.357 30.7718 133.846 31.3071 134.465 31.692C135.094 32.0676 135.817 32.2554 136.634 32.2554ZM148.985 19.9328H144.703L149.337 35.4522H153.083L156.13 25.54L159.42 35.4522H163.11L167.757 19.9328H163.885L161.249 29.5926L158.336 19.9328H154.59L151.69 29.8055L148.985 19.9328Z" fill="#40513B"/>
<path d="M123.016 35.4522H126.86V13.3843H123.016V35.4522ZM101.821 35.2268C102.657 35.5742 103.506 35.7478 104.37 35.7478C105.797 35.7478 107.074 35.4005 108.201 34.7058C109.327 34.011 110.2 33.0533 110.82 31.8329C111.44 30.6029 111.75 29.2088 111.75 27.6502C111.75 26.0917 111.43 24.6975 110.792 23.4676C110.154 22.2377 109.266 21.2848 108.13 20.6088C106.994 19.9234 105.703 19.5854 104.258 19.5948C103.338 19.5948 102.455 19.7732 101.61 20.13C100.765 20.4867 100.061 20.9937 99.4975 21.6509C99.4541 21.701 99.4118 21.7515 99.3708 21.8025V13.3984H95.5121V35.4522H99.3427L99.3349 33.3919C99.4341 33.5134 99.5399 33.632 99.6525 33.748C100.263 34.3772 100.986 34.8701 101.821 35.2268ZM105.764 31.6638C105.135 32.0487 104.417 32.2413 103.61 32.2413C102.812 32.2413 102.079 32.0441 101.413 31.6497C100.746 31.246 100.216 30.6968 99.8215 30.0021C99.4366 29.3073 99.2441 28.5187 99.2441 27.6362C99.2347 26.7536 99.4225 25.965 99.8074 25.2702C100.202 24.5661 100.732 24.0215 101.399 23.6366C102.065 23.2423 102.802 23.0498 103.61 23.0592C104.417 23.0498 105.135 23.2376 105.764 23.6225C106.403 23.9981 106.891 24.5379 107.229 25.242C107.576 25.9368 107.75 26.7349 107.75 27.6362C107.75 28.5374 107.576 29.3355 107.229 30.0302C106.891 30.725 106.403 31.2695 105.764 31.6638ZM50.9013 14.7222H55.2951L59.2256 29.0764L63.4069 14.7222H67.0684L71.6032 28.7883L75.3773 14.7222H79.405L73.462 35.4522H69.6737L65.0626 21.7106L60.8297 35.4522H56.9991L50.9013 14.7222ZM85.8935 35.8183C84.3631 35.8276 82.9831 35.4896 81.7531 34.8043C80.5327 34.1096 79.5703 33.1472 78.8662 31.9174C78.1714 30.6874 77.824 29.2838 77.824 27.7065C77.824 26.1763 78.1809 24.7914 78.8943 23.5521C79.6078 22.3128 80.5749 21.3458 81.7953 20.651C83.0159 19.9563 84.3772 19.6089 85.8795 19.6089C87.5694 19.6089 89.0481 19.9844 90.3155 20.7355C91.5924 21.4866 92.5453 22.5522 93.1743 23.9323C93.8128 25.3031 94.0428 26.8757 93.8644 28.65H81.8014C81.8351 29.357 82.0114 30.0002 82.3306 30.5794C82.6873 31.2178 83.185 31.7155 83.8232 32.0722C84.4617 32.4289 85.1753 32.6073 85.9639 32.6073C86.5648 32.598 87.1234 32.4947 87.6398 32.2976C88.1561 32.0911 88.5927 31.814 88.9496 31.4667C89.3156 31.1193 89.5738 30.725 89.724 30.2838H93.7518C93.5077 31.3634 93.0195 32.3258 92.2871 33.1707C91.5548 34.0062 90.6347 34.6587 89.5269 35.1282C88.419 35.5976 87.2078 35.8276 85.8935 35.8183ZM82.3447 24.7773C82.1196 25.1697 81.9638 25.5922 81.877 26.0448H89.8733C89.8152 25.4729 89.6387 24.9519 89.3437 24.4816C89.0059 23.9277 88.5458 23.5005 87.9637 23.2C87.3816 22.8902 86.7244 22.7353 85.9921 22.7353C85.2129 22.7353 84.5041 22.9137 83.8656 23.2704C83.2272 23.6272 82.7201 24.1295 82.3447 24.7773ZM114.58 19.9328C114.58 18.6747 114.867 17.5575 115.439 16.5811C116.012 15.5953 116.815 14.8301 117.848 14.2856C118.89 13.7316 120.106 13.4453 121.495 13.4265V16.8487C120.847 16.858 120.293 16.9942 119.833 17.2571C119.383 17.5105 119.035 17.8814 118.791 18.3696C118.566 18.8191 118.445 19.3401 118.427 19.9328H121.411V23.1859H118.425V35.4522H114.58V23.1859H112.102V19.9328H114.58ZM136.634 35.7902C135.066 35.7902 133.662 35.4474 132.423 34.7621C131.193 34.0673 130.226 33.1096 129.522 31.8892C128.827 30.6592 128.48 29.2651 128.48 27.7065C128.48 26.1387 128.827 24.7398 129.522 23.5099C130.226 22.2706 131.193 21.3082 132.423 20.6229C133.662 19.9375 135.066 19.5948 136.634 19.5948C138.211 19.5948 139.62 19.9375 140.859 20.6229C142.108 21.3082 143.079 22.2659 143.774 23.4958C144.469 24.7257 144.821 26.1293 144.83 27.7065C144.821 29.2651 144.469 30.6592 143.774 31.8892C143.089 33.1096 142.122 34.0673 140.873 34.7621C139.624 35.4474 138.211 35.7902 136.634 35.7902ZM136.634 32.2554C137.46 32.2554 138.192 32.0676 138.831 31.692C139.469 31.3071 139.962 30.7718 140.309 30.0865C140.657 29.3918 140.831 28.5985 140.831 27.7065C140.831 26.8053 140.657 26.0072 140.309 25.3125C139.962 24.6177 139.469 24.0826 138.831 23.707C138.192 23.3221 137.46 23.1296 136.634 23.1296C135.817 23.1296 135.09 23.3221 134.451 23.707C133.822 24.0826 133.334 24.6177 132.986 25.3125C132.639 26.0072 132.47 26.8053 132.48 27.7065C132.48 28.5985 132.653 29.3918 133.001 30.0865C133.357 30.7718 133.846 31.3071 134.465 31.692C135.094 32.0676 135.817 32.2554 136.634 32.2554ZM148.985 19.9328H144.703L149.337 35.4522H153.083L156.13 25.54L159.42 35.4522H163.11L167.757 19.9328H163.885L161.249 29.5926L158.336 19.9328H154.59L151.69 29.8055L148.985 19.9328Z" fill="#40513B"/>
</g>
<defs>
<clipPath id="clip0_1_135">
<rect width="168" height="48" fill="white" transform="translate(0.685181 0.570801)"/>
</clipPath>
</defs>
</svg>
