<svg width="164" height="49" viewBox="0 0 164 49" fill="none" xmlns="http://www.w3.org/2000/svg">
<g clip-path="url(#clip0_1_132)">
<path d="M45.7355 14.5839H53.3576C58.2169 14.5839 62.2312 17.3955 62.2312 23.815V25.1639C62.2312 31.6321 58.477 34.5412 53.5039 34.5412H45.7355V14.5839ZM49.9935 18.2081V30.9008H53.2601C56.0229 30.9008 57.8756 29.0968 57.8756 25.0826V24.0263C57.8756 20.012 55.9254 18.2081 53.1138 18.2081H49.9935ZM64.4902 18.4031H67.9031L68.4556 22.1573C69.1057 19.6057 70.7634 18.2406 73.77 18.2406H74.8264V22.5473H73.0712C69.6095 22.5473 68.7644 23.75 68.7644 27.1629V34.59H64.5552V18.4031H64.4902ZM75.6715 26.8216V26.3665C75.6715 20.9546 79.1331 17.9968 83.8462 17.9968C88.6568 17.9968 92.0209 20.9546 92.0209 26.3665V26.8216C92.0209 32.136 88.7543 34.9963 83.8462 34.9963C78.6293 34.9475 75.6715 32.1522 75.6715 26.8216ZM87.7141 26.7728V26.3665C87.7141 23.3599 86.2027 21.556 83.7974 21.556C81.4409 21.556 79.8807 23.2137 79.8807 26.3665V26.7728C79.8807 29.6819 81.3921 31.3396 83.7974 31.3396C86.2027 31.2909 87.7141 29.6819 87.7141 26.7728ZM94.2311 18.4031H97.7416L98.1479 21.4585C98.993 19.4107 100.797 17.9968 103.462 17.9968C107.574 17.9968 110.288 20.9546 110.288 26.4315V26.8866C110.288 32.201 107.281 35.0125 103.462 35.0125C100.911 35.0125 99.1555 33.8587 98.2941 32.0059V40.1806H94.1824L94.2311 18.4031ZM106.014 26.7728V26.4153C106.014 23.1974 104.356 21.6047 102.146 21.6047C99.7893 21.6047 98.2291 23.4087 98.2291 26.4153V26.7241C98.2291 29.5844 99.7406 31.3884 102.097 31.3884C104.519 31.3396 106.014 29.7957 106.014 26.7728ZM116.513 31.5996L116.155 34.5575H112.547V12.9912H116.659V21.2634C117.569 19.1507 119.373 17.9968 121.924 17.9968C125.792 18.0456 128.653 20.7109 128.653 26.074V26.5778C128.653 31.9409 125.939 35.0125 121.827 35.0125C119.113 34.9475 117.358 33.6961 116.513 31.5996ZM124.33 26.5778V26.1715C124.33 23.2137 122.721 21.556 120.462 21.556C118.154 21.556 116.545 23.4087 116.545 26.2203V26.5778C116.545 29.5844 118.105 31.3396 120.413 31.3396C122.883 31.3396 124.33 29.7957 124.33 26.5778ZM130.457 26.8216V26.3665C130.457 20.9546 133.918 17.9968 138.631 17.9968C143.442 17.9968 146.806 20.9546 146.806 26.3665V26.8216C146.806 32.136 143.491 34.9963 138.631 34.9963C133.415 34.9475 130.457 32.1522 130.457 26.8216ZM142.532 26.7728V26.3665C142.532 23.3599 141.02 21.556 138.615 21.556C136.259 21.556 134.698 23.2137 134.698 26.3665V26.7728C134.698 29.6819 136.21 31.3396 138.615 31.3396C141.037 31.2909 142.532 29.6819 142.532 26.7728ZM152.315 26.1715L146.644 18.4031H151.503L154.77 23.2624L158.085 18.4031H162.895L157.142 26.1227L163.204 34.5575H158.442L154.737 29.1944L151.129 34.5575H146.156L152.315 26.1715Z" fill="#40513B"/>
<path d="M19.5374 14.584L10.1113 20.5972L19.5374 26.6104L10.1113 32.6236L0.685181 26.5779L10.1113 20.5647L0.685181 14.584L10.1113 8.5708L19.5374 14.584ZM10.0625 34.5576L19.4886 28.5444L28.9147 34.5576L19.4886 40.5708L10.0625 34.5576ZM19.5374 26.5779L28.9635 20.5647L19.5374 14.584L28.9147 8.5708L38.3408 14.584L28.9147 20.5972L38.3408 26.6104L28.9147 32.6236L19.5374 26.5779Z" fill="#40513B"/>
</g>
<defs>
<clipPath id="clip0_1_132">
<rect width="163" height="48" fill="white" transform="translate(0.685181 0.570801)"/>
</clipPath>
</defs>
</svg>
