<svg width="33" height="33" viewBox="0 0 33 33" fill="none" xmlns="http://www.w3.org/2000/svg">
<path d="M22.9352 4.5708C20.3539 4.5708 18.0939 5.6808 16.6852 7.55705C15.2764 5.6808 13.0164 4.5708 10.4352 4.5708C8.38046 4.57312 6.41057 5.39038 4.95766 6.84328C3.50476 8.29619 2.6875 10.2661 2.68518 12.3208C2.68518 21.0708 15.6589 28.1533 16.2114 28.4458C16.3571 28.5241 16.5198 28.5651 16.6852 28.5651C16.8505 28.5651 17.0133 28.5241 17.1589 28.4458C17.7114 28.1533 30.6852 21.0708 30.6852 12.3208C30.6829 10.2661 29.8656 8.29619 28.4127 6.84328C26.9598 5.39038 24.9899 4.57312 22.9352 4.5708ZM16.6852 26.4208C14.4027 25.0908 4.68518 19.0321 4.68518 12.3208C4.68717 10.7964 5.2936 9.33503 6.37151 8.25713C7.44941 7.17922 8.9108 6.57279 10.4352 6.5708C12.8664 6.5708 14.9077 7.8658 15.7602 9.9458C15.8355 10.1292 15.9637 10.2861 16.1284 10.3965C16.2931 10.5069 16.4869 10.5658 16.6852 10.5658C16.8835 10.5658 17.0773 10.5069 17.242 10.3965C17.4067 10.2861 17.5348 10.1292 17.6102 9.9458C18.4627 7.86205 20.5039 6.5708 22.9352 6.5708C24.4596 6.57279 25.9209 7.17922 26.9989 8.25713C28.0768 9.33503 28.6832 10.7964 28.6852 12.3208C28.6852 19.0221 18.9652 25.0896 16.6852 26.4208Z" fill="#AE90ED"/>
</svg>
