<svg width="33" height="33" viewBox="0 0 33 33" fill="none" xmlns="http://www.w3.org/2000/svg">
<path d="M28.6852 6.5708H4.68518C4.41996 6.5708 4.16561 6.67616 3.97807 6.86369C3.79054 7.05123 3.68518 7.30558 3.68518 7.5708V24.5708C3.68518 25.1012 3.89589 25.6099 4.27097 25.985C4.64604 26.3601 5.15475 26.5708 5.68518 26.5708H27.6852C28.2156 26.5708 28.7243 26.3601 29.0994 25.985C29.4745 25.6099 29.6852 25.1012 29.6852 24.5708V7.5708C29.6852 7.30558 29.5798 7.05123 29.3923 6.86369C29.2048 6.67616 28.9504 6.5708 28.6852 6.5708ZM16.6852 17.2146L7.25643 8.5708H26.1139L16.6852 17.2146ZM13.0239 16.5708L5.68518 23.2971V9.84455L13.0239 16.5708ZM14.5039 17.9271L16.0039 19.3083C16.1884 19.4777 16.4297 19.5716 16.6802 19.5716C16.9306 19.5716 17.1719 19.4777 17.3564 19.3083L18.8564 17.9271L26.1064 24.5708H7.25643L14.5039 17.9271ZM20.3464 16.5708L27.6852 9.8433V23.2983L20.3464 16.5708Z" fill="#9368EC"/>
</svg>
