<svg width="25" height="25" viewBox="0 0 25 25" fill="none" xmlns="http://www.w3.org/2000/svg">
<path d="M17.1852 2.8208H8.18518C6.79325 2.82229 5.45876 3.37589 4.47451 4.36013C3.49027 5.34438 2.93667 6.67887 2.93518 8.0708V17.0708C2.93667 18.4627 3.49027 19.7972 4.47451 20.7815C5.45876 21.7657 6.79325 22.3193 8.18518 22.3208H17.1852C18.5771 22.3193 19.9116 21.7657 20.8958 20.7815C21.8801 19.7972 22.4337 18.4627 22.4352 17.0708V8.0708C22.4337 6.67887 21.8801 5.34438 20.8958 4.36013C19.9116 3.37589 18.5771 2.82229 17.1852 2.8208ZM12.6852 17.0708C11.7952 17.0708 10.9251 16.8069 10.1851 16.3124C9.44509 15.8179 8.86832 15.1151 8.52772 14.2929C8.18713 13.4706 8.09801 12.5658 8.27165 11.6929C8.44528 10.82 8.87386 10.0182 9.5032 9.38882C10.1325 8.75948 10.9344 8.3309 11.8073 8.15727C12.6802 7.98363 13.585 8.07275 14.4073 8.41334C15.2295 8.75394 15.9323 9.33071 16.4268 10.0707C16.9213 10.8108 17.1852 11.6808 17.1852 12.5708C17.1839 13.7639 16.7094 14.9078 15.8658 15.7514C15.0221 16.5951 13.8783 17.0696 12.6852 17.0708ZM18.3102 8.0708C18.0877 8.0708 17.8702 8.00482 17.6852 7.8812C17.5002 7.75759 17.356 7.58189 17.2708 7.37632C17.1857 7.17075 17.1634 6.94455 17.2068 6.72632C17.2502 6.5081 17.3574 6.30764 17.5147 6.15031C17.672 5.99297 17.8725 5.88583 18.0907 5.84242C18.3089 5.79901 18.5351 5.82129 18.7407 5.90644C18.9463 5.99158 19.122 6.13578 19.2456 6.32078C19.3692 6.50579 19.4352 6.7233 19.4352 6.9458C19.4352 7.24417 19.3167 7.53032 19.1057 7.7413C18.8947 7.95227 18.6085 8.0708 18.3102 8.0708ZM15.6852 12.5708C15.6852 13.1641 15.5092 13.7442 15.1796 14.2375C14.8499 14.7309 14.3814 15.1154 13.8332 15.3424C13.2851 15.5695 12.6819 15.6289 12.0999 15.5132C11.518 15.3974 10.9834 15.1117 10.5639 14.6921C10.1443 14.2726 9.85858 13.738 9.74282 13.1561C9.62707 12.5741 9.68648 11.9709 9.91354 11.4228C10.1406 10.8746 10.5251 10.406 11.0185 10.0764C11.5118 9.74675 12.0918 9.5708 12.6852 9.5708C13.4808 9.5708 14.2439 9.88687 14.8065 10.4495C15.3691 11.0121 15.6852 11.7752 15.6852 12.5708Z" fill="#40513B"/>
</svg>
